# https://github.com/mikedh/trimesh
mtllib material.mtl
usemtl material_0
v -0.78178700 2.52798800 0.07806200
v -0.76851900 2.52798800 0.08208700
v -0.76851900 2.52798800 -0.05664800
v -0.78178700 2.52798800 -0.05262300
v -0.70471000 2.52798800 -0.03729200
v -0.71542700 2.52798800 -0.04608700
v -0.75472100 2.52798800 0.08344600
v -0.79401400 2.52798800 -0.04608700
v -0.72765500 2.52798800 -0.05262300
v -0.74092300 2.52798800 0.08208700
v -0.80473200 2.52798800 -0.03729200
v -0.74092300 2.52798800 -0.05664800
v -0.72765500 2.52798800 0.07806200
v -0.81352800 2.52798800 -0.02657400
v -0.75472100 2.52798800 -0.05800700
v -0.71542700 2.52798800 0.07152600
v -0.82006300 2.52798800 -0.01434600
v -0.70471000 2.52798800 0.06273100
v -0.82408800 2.52798800 -0.00107900
v -0.69591400 2.52798800 0.05201300
v -0.82544700 2.52798800 0.01272000
v -0.68937800 2.52798800 0.03978500
v -0.68937800 2.52798800 0.03978500
v -0.82408800 2.52798800 0.02651800
v -0.68535300 2.52798800 0.02651800
v -0.68535300 2.52798800 0.02651800
v -0.82006300 2.52798800 0.03978500
v -0.68399400 2.52798800 0.01272000
v -0.68399400 2.52798800 0.01272000
v -0.81352800 2.52798800 0.05201300
v -0.68535300 2.52798800 -0.00107900
v -0.68535300 2.52798800 -0.00107900
v -0.80473200 2.52798800 0.06273100
v -0.68937800 2.52798800 -0.01434600
v -0.79401400 2.52798800 0.07152600
v -0.69591400 2.52798800 -0.02657400
v -1.32405200 0.08972700 0.08208700
v -1.33732000 0.08972700 -0.05262300
v -1.27096100 0.08972700 -0.04608700
v -1.31025400 0.08972700 0.08344600
v -1.34954800 0.08972700 -0.04608700
v -1.28318800 0.08972700 -0.05262300
v -1.29645600 0.08972700 0.08208700
v -1.36026500 0.08972700 -0.03729200
v -1.29645600 0.08972700 -0.05664800
v -1.28318800 0.08972700 0.07806200
v -1.36906100 0.08972700 -0.02657400
v -1.31025400 0.08972700 -0.05800700
v -1.27096100 0.08972700 0.07152600
v -1.37559700 0.08972700 -0.01434600
v -1.26024300 0.08972700 0.06273100
v -1.37962100 0.08972700 -0.00107900
v -1.25144700 0.08972700 0.05201300
v -1.38098000 0.08972700 0.01272000
v -1.24491200 0.08972700 0.03978500
v -1.37962100 0.08972700 0.02651800
v -1.24088700 0.08972700 0.02651800
v -1.37559700 0.08972700 0.03978500
v -1.23952800 0.08972700 0.01272000
v -1.36906100 0.08972700 0.05201300
v -1.24088700 0.08972700 -0.00107900
v -1.36026500 0.08972700 0.06273100
v -1.24491200 0.08972700 -0.01434600
v -1.34954800 0.08972700 0.07152600
v -1.25144700 0.08972700 -0.02657400
v -1.33732000 0.08972700 0.07806200
v -1.32405200 0.08972700 -0.05664800
v -1.26024300 0.08972700 -0.03729200
v -0.05618200 2.52798800 -0.78039400
v -0.06026900 2.52798800 -0.76714600
v 0.07846400 2.52798800 -0.76649000
v 0.07450200 2.52798800 -0.77977600
v 0.05880600 2.52798800 -0.70277300
v 0.06765200 2.52798800 -0.71344900
v -0.06169300 2.52798800 -0.75335400
v 0.06802400 2.52798800 -0.79203500
v 0.07424600 2.52798800 -0.72564500
v -0.06040000 2.52798800 -0.73955000
v 0.05927900 2.52798800 -0.80279400
v 0.07833300 2.52798800 -0.73889400
v -0.05643800 2.52798800 -0.72626300
v 0.04860300 2.52798800 -0.81164000
v 0.07975800 2.52798800 -0.75268500
v -0.04996000 2.52798800 -0.71400500
v 0.03640700 2.52798800 -0.81823400
v -0.04121500 2.52798800 -0.70324600
v 0.02315800 2.52798800 -0.82232100
v -0.03053900 2.52798800 -0.69440000
v 0.00936700 2.52798800 -0.82374500
v -0.01834200 2.52798800 -0.68780600
v -0.00443800 2.52798800 -0.82245200
v -0.00509400 2.52798800 -0.68371900
v -0.01772400 2.52798800 -0.81849000
v 0.00869800 2.52798800 -0.68229400
v -0.02998300 2.52798800 -0.81201200
v 0.02250200 2.52798800 -0.68358800
v -0.04074200 2.52798800 -0.80326700
v 0.03578800 2.52798800 -0.68755000
v -0.04958800 2.52798800 -0.79259100
v 0.04804700 2.52798800 -0.69402800
v -0.05764100 0.08972700 -1.32267300
v 0.07713000 0.08972700 -1.33530300
v 0.07028000 0.08972700 -1.26897600
v -0.05906500 0.08972700 -1.30888100
v 0.07065200 0.08972700 -1.34756200
v 0.07687400 0.08972700 -1.28117200
v -0.05777200 0.08972700 -1.29507700
v 0.06190700 0.08972700 -1.35832100
v 0.08096100 0.08972700 -1.29442100
v -0.05381000 0.08972700 -1.28179000
v 0.05123100 0.08972700 -1.36716700
v 0.08238600 0.08972700 -1.30821200
v -0.04733200 0.08972700 -1.26953200
v 0.03903500 0.08972700 -1.37376100
v -0.03858700 0.08972700 -1.25877300
v 0.02578600 0.08972700 -1.37784800
v -0.02791100 0.08972700 -1.24992700
v 0.01199500 0.08972700 -1.37927200
v -0.01571500 0.08972700 -1.24333300
v -0.00181000 0.08972700 -1.37797900
v -0.00246600 0.08972700 -1.23924600
v -0.01509600 0.08972700 -1.37401700
v 0.01132500 0.08972700 -1.23782100
v -0.02735500 0.08972700 -1.36753900
v 0.02513000 0.08972700 -1.23911500
v -0.03811400 0.08972700 -1.35879400
v 0.03841600 0.08972700 -1.24307700
v -0.04696000 0.08972700 -1.34811800
v 0.05067500 0.08972700 -1.24955500
v -0.05355400 0.08972700 -1.33592100
v 0.08109200 0.08972700 -1.32201700
v 0.06143400 0.08972700 -1.25830000
v 0.78686500 2.52798800 -0.04730500
v 0.77369400 2.52798800 -0.05163500
v 0.77048900 2.52798800 0.08706200
v 0.78384600 2.52798800 0.08334500
v 0.70714400 2.52798800 0.06623700
v 0.71765600 2.52798800 0.07527800
v 0.75993100 2.52798800 -0.05331300
v 0.79622200 2.52798800 0.07709400
v 0.72972900 2.52798800 0.08209500
v 0.74610500 2.52798800 -0.05227300
v 0.80714000 2.52798800 0.06854800
v 0.74290000 2.52798800 0.08642500
v 0.73274800 2.52798800 -0.04855600
v 0.81618100 2.52798800 0.05803600
v 0.75666300 2.52798800 0.08810200
v 0.72037300 2.52798800 -0.04230400
v 0.82299700 2.52798800 0.04596300
v 0.70945500 2.52798800 -0.03375800
v 0.82732700 2.52798800 0.03279200
v 0.70041400 2.52798800 -0.02324700
v 0.82900500 2.52798800 0.01902900
v 0.69359700 2.52798800 -0.01117300
v 0.82796500 2.52798800 0.00520300
v 0.68926700 2.52798800 0.00199800
v 0.82424700 2.52798800 -0.00815400
v 0.68759000 2.52798800 0.01576100
v 0.81799600 2.52798800 -0.02053000
v 0.68863000 2.52798800 0.02958700
v 0.80945000 2.52798800 -0.03144800
v 0.69234700 2.52798800 0.04294400
v 0.79893900 2.52798800 -0.04048900
v 0.69859800 2.52798800 0.05531900
v 1.32907900 0.08972700 -0.03880300
v 1.33923100 0.08972700 0.09617800
v 1.27304100 0.08972700 0.08811100
v 1.31531600 0.08972700 -0.04048000
v 1.35160700 0.08972700 0.08992600
v 1.28511400 0.08972700 0.09492700
v 1.30149000 0.08972700 -0.03944000
v 1.36252500 0.08972700 0.08138100
v 1.29828500 0.08972700 0.09925800
v 1.28813300 0.08972700 -0.03572300
v 1.37156600 0.08972700 0.07086900
v 1.31204800 0.08972700 0.10093500
v 1.27575800 0.08972700 -0.02947100
v 1.37838200 0.08972700 0.05879600
v 1.26484000 0.08972700 -0.02092500
v 1.38271200 0.08972700 0.04562400
v 1.25579900 0.08972700 -0.01041400
v 1.38439000 0.08972700 0.03186100
v 1.24898200 0.08972700 0.00166000
v 1.38335000 0.08972700 0.01803600
v 1.24465200 0.08972700 0.01483100
v 1.37963300 0.08972700 0.00467800
v 1.24297500 0.08972700 0.02859400
v 1.37338100 0.08972700 -0.00769700
v 1.24401500 0.08972700 0.04242000
v 1.36483500 0.08972700 -0.01861500
v 1.24773200 0.08972700 0.05577700
v 1.35432400 0.08972700 -0.02765600
v 1.25398300 0.08972700 0.06815200
v 1.34225000 0.08972700 -0.03447200
v 1.32587400 0.08972700 0.09989500
v 1.26252900 0.08972700 0.07907000
v 0.07058300 2.52798800 0.78077500
v 0.07475500 2.52798800 0.76755300
v -0.06397100 2.52798800 0.76600400
v -0.06009400 2.52798800 0.77931600
v -0.04390300 2.52798800 0.70241500
v -0.05281800 2.52798800 0.71303400
v 0.07626800 2.52798800 0.75377100
v -0.05369500 2.52798800 0.79161600
v -0.05949000 2.52798800 0.72518800
v 0.07506300 2.52798800 0.73995800
v -0.04502000 2.52798800 0.80243100
v -0.06366300 2.52798800 0.73841000
v 0.07118700 2.52798800 0.72664600
v -0.03440100 2.52798800 0.81134600
v -0.06517500 2.52798800 0.75219200
v 0.06478800 2.52798800 0.71434700
v -0.02224700 2.52798800 0.81801800
v 0.05611200 2.52798800 0.70353100
v -0.00902500 2.52798800 0.82219000
v 0.04549400 2.52798800 0.69461700
v 0.00475700 2.52798800 0.82370300
v 0.03334000 2.52798800 0.68794500
v 0.01856900 2.52798800 0.82249800
v 0.02011800 2.52798800 0.68377200
v 0.03188100 2.52798800 0.81862200
v 0.00633600 2.52798800 0.68225900
v 0.04418100 2.52798800 0.81222300
v -0.00747700 2.52798800 0.68346400
v 0.05499600 2.52798800 0.80354700
v -0.02078900 2.52798800 0.68734100
v 0.06391100 2.52798800 0.79292900
v -0.03308800 2.52798800 0.69374000
v 0.06855600 0.08972700 1.32305100
v -0.06629300 0.08972700 1.33481500
v -0.05901800 0.08972700 1.26853300
v 0.07006900 0.08972700 1.30926900
v -0.05989400 0.08972700 1.34711500
v -0.06568900 0.08972700 1.28068700
v 0.06886400 0.08972700 1.29545700
v -0.05121900 0.08972700 1.35793000
v -0.06986200 0.08972700 1.29390900
v 0.06498800 0.08972700 1.28214500
v -0.04060000 0.08972700 1.36684500
v -0.07137500 0.08972700 1.30769100
v 0.05858900 0.08972700 1.26984500
v -0.02844600 0.08972700 1.37351600
v 0.04991300 0.08972700 1.25903000
v -0.01522400 0.08972700 1.37768900
v 0.03929400 0.08972700 1.25011500
v -0.00144200 0.08972700 1.37920200
v 0.02714000 0.08972700 1.24344300
v 0.01237000 0.08972700 1.37799700
v 0.01391800 0.08972700 1.23927100
v 0.02568200 0.08972700 1.37412100
v 0.00013600 0.08972700 1.23775800
v 0.03798200 0.08972700 1.36772200
v -0.01367600 0.08972700 1.23896300
v 0.04879700 0.08972700 1.35904600
v -0.02698800 0.08972700 1.24283900
v 0.05771200 0.08972700 1.34842700
v -0.03928800 0.08972700 1.24923800
v 0.06438400 0.08972700 1.33627300
v -0.07017000 0.08972700 1.32150300
v -0.05010300 0.08972700 1.25791400
vn 0.38110000 -0.08680000 -0.92050000
vn 0.19480000 -0.04440000 -0.97980000
vn 0.19480000 -0.04440000 0.97980000
vn 0.38110000 -0.08680000 0.92050000
vn -0.69790000 0.15900000 0.69830000
vn -0.55100000 0.12550000 0.82500000
vn -0.00000000 0.00000000 -1.00000000
vn 0.55100000 -0.12550000 0.82500000
vn -0.38110000 0.08680000 0.92050000
vn -0.19480000 0.04440000 -0.97980000
vn 0.69790000 -0.15900000 0.69830000
vn -0.19480000 0.04440000 0.97980000
vn -0.38110000 0.08680000 -0.92050000
vn 0.81680000 -0.18610000 0.54600000
vn -0.00000000 0.00000000 1.00000000
vn -0.55100000 0.12550000 -0.82500000
vn 0.90400000 -0.20600000 0.37460000
vn -0.69790000 0.15900000 -0.69830000
vn 0.95720000 -0.21810000 0.19050000
vn -0.81680000 0.18610000 -0.54600000
vn 0.97500000 -0.22210000 -0.00000000
vn -0.00000000 0.00000000 1.00000000
vn -0.89250000 0.20330000 -0.40270000
vn 0.95720000 -0.21810000 -0.19050000
vn -0.00000000 0.00000000 1.00000000
vn -0.95770000 0.21820000 -0.18790000
vn 0.90400000 -0.20600000 -0.37460000
vn -0.00000000 0.00000000 1.00000000
vn -0.97500000 0.22210000 0.00000000
vn 0.81680000 -0.18610000 -0.54600000
vn -0.00000000 0.00000000 1.00000000
vn -0.95080000 0.21660000 0.22130000
vn 0.69790000 -0.15900000 -0.69830000
vn -0.90400000 0.20600000 0.37460000
vn 0.55100000 -0.12550000 -0.82500000
vn -0.81680000 0.18610000 0.54600000
vn 0.19480000 -0.04440000 -0.97980000
vn 0.38110000 -0.08680000 0.92050000
vn -0.55100000 0.12550000 0.82500000
vn -0.00000000 0.00000000 -1.00000000
vn 0.55100000 -0.12550000 0.82500000
vn -0.38110000 0.08680000 0.92050000
vn -0.19480000 0.04440000 -0.97980000
vn 0.69790000 -0.15900000 0.69830000
vn -0.19480000 0.04440000 0.97980000
vn -0.38110000 0.08680000 -0.92050000
vn 0.81680000 -0.18610000 0.54600000
vn -0.00000000 0.00000000 1.00000000
vn -0.55100000 0.12550000 -0.82500000
vn 0.90400000 -0.20600000 0.37460000
vn -0.69790000 0.15900000 -0.69830000
vn 0.95720000 -0.21810000 0.19050000
vn -0.81680000 0.18610000 -0.54600000
vn 0.97500000 -0.22210000 -0.00000000
vn -0.90400000 0.20600000 -0.37460000
vn 0.95720000 -0.21810000 -0.19050000
vn -0.95720000 0.21810000 -0.19050000
vn 0.90400000 -0.20600000 -0.37460000
vn -0.97500000 0.22210000 0.00000000
vn 0.81680000 -0.18610000 -0.54600000
vn -0.95720000 0.21810000 0.19050000
vn 0.69790000 -0.15900000 -0.69830000
vn -0.90400000 0.20600000 0.37460000
vn 0.55100000 -0.12550000 -0.82500000
vn -0.81680000 0.18610000 0.54600000
vn 0.38110000 -0.08680000 -0.92050000
vn 0.19480000 -0.04440000 0.97980000
vn -0.69790000 0.15900000 0.69830000
vn 0.91860000 -0.08680000 0.38540000
vn 0.97890000 -0.04440000 0.19940000
vn -0.98070000 -0.04440000 0.19020000
vn -0.92220000 -0.08680000 0.37670000
vn -0.69500000 0.15900000 -0.70120000
vn -0.82240000 0.12550000 -0.55490000
vn 1.00000000 0.00000000 0.00470000
vn -0.82760000 -0.12550000 0.54710000
vn -0.91860000 0.08680000 -0.38540000
vn 0.98070000 0.04440000 -0.19020000
vn -0.70160000 -0.15900000 0.69460000
vn -0.97890000 0.04440000 -0.19940000
vn 0.92220000 0.08680000 -0.37670000
vn -0.54990000 -0.18610000 0.81420000
vn -1.00000000 0.00000000 -0.00470000
vn 0.82760000 0.12550000 -0.54710000
vn -0.37890000 -0.20600000 0.90220000
vn 0.70160000 0.15900000 -0.69460000
vn -0.19500000 -0.21810000 0.95620000
vn 0.54990000 0.18610000 -0.81420000
vn -0.00460000 -0.22210000 0.97500000
vn 0.40690000 0.20330000 -0.89050000
vn 0.18600000 -0.21810000 0.95810000
vn 0.19240000 0.21820000 -0.95680000
vn 0.37040000 -0.20600000 0.90580000
vn 0.00460000 0.22210000 -0.97500000
vn 0.54220000 -0.18610000 0.81940000
vn -0.21680000 0.21660000 -0.95190000
vn 0.69500000 -0.15900000 0.70120000
vn -0.37040000 0.20600000 -0.90580000
vn 0.82240000 -0.12550000 0.55490000
vn -0.54220000 0.18610000 -0.81940000
vn 0.97890000 -0.04440000 0.19940000
vn -0.92220000 -0.08680000 0.37670000
vn -0.82240000 0.12550000 -0.55490000
vn 1.00000000 0.00000000 0.00470000
vn -0.82760000 -0.12550000 0.54710000
vn -0.91860000 0.08680000 -0.38540000
vn 0.98070000 0.04440000 -0.19020000
vn -0.70160000 -0.15900000 0.69460000
vn -0.97890000 0.04440000 -0.19940000
vn 0.92220000 0.08680000 -0.37670000
vn -0.54990000 -0.18610000 0.81420000
vn -1.00000000 0.00000000 -0.00470000
vn 0.82760000 0.12550000 -0.54710000
vn -0.37890000 -0.20600000 0.90220000
vn 0.70160000 0.15900000 -0.69460000
vn -0.19500000 -0.21810000 0.95620000
vn 0.54990000 0.18610000 -0.81420000
vn -0.00460000 -0.22210000 0.97500000
vn 0.37890000 0.20600000 -0.90220000
vn 0.18600000 -0.21810000 0.95810000
vn 0.19500000 0.21810000 -0.95620000
vn 0.37040000 -0.20600000 0.90580000
vn 0.00460000 0.22210000 -0.97500000
vn 0.54220000 -0.18610000 0.81940000
vn -0.18600000 0.21810000 -0.95810000
vn 0.69500000 -0.15900000 0.70120000
vn -0.37040000 0.20600000 -0.90580000
vn 0.82240000 -0.12550000 0.55490000
vn -0.54220000 0.18610000 -0.81940000
vn 0.91860000 -0.08680000 0.38540000
vn -0.98070000 -0.04440000 0.19020000
vn -0.69500000 0.15900000 -0.70120000
vn -0.40220000 -0.08680000 0.91140000
vn -0.21740000 -0.04440000 0.97510000
vn -0.17210000 -0.04440000 -0.98410000
vn -0.35970000 -0.08680000 -0.92900000
vn 0.71390000 0.15900000 -0.68200000
vn 0.56990000 0.12550000 -0.81210000
vn -0.02310000 0.00000000 0.99970000
vn -0.53180000 -0.12550000 -0.83750000
vn 0.40220000 0.08680000 -0.91140000
vn 0.17210000 0.04440000 0.98410000
vn -0.68160000 -0.15900000 -0.71420000
vn 0.21740000 0.04440000 -0.97510000
vn 0.35970000 0.08680000 0.92900000
vn -0.80400000 -0.18610000 -0.56480000
vn 0.02310000 0.00000000 -0.99970000
vn 0.53180000 0.12550000 0.83750000
vn -0.89510000 -0.20600000 -0.39540000
vn 0.68160000 0.15900000 0.71420000
vn -0.95250000 -0.21810000 -0.21250000
vn 0.80400000 0.18610000 0.56480000
vn -0.97480000 -0.22210000 -0.02250000
vn 0.89510000 0.20600000 0.39540000
vn -0.96130000 -0.21810000 0.16830000
vn 0.95250000 0.21810000 0.21250000
vn -0.91240000 -0.20600000 0.35360000
vn 0.97480000 0.22210000 0.02250000
vn -0.82920000 -0.18610000 0.52700000
vn 0.96130000 0.21810000 -0.16830000
vn -0.71390000 -0.15900000 0.68200000
vn 0.91240000 0.20600000 -0.35370000
vn -0.56990000 -0.12550000 0.81210000
vn 0.82920000 0.18610000 -0.52700000
vn -0.21740000 -0.04440000 0.97510000
vn -0.35970000 -0.08680000 -0.92900000
vn 0.56990000 0.12550000 -0.81210000
vn -0.02310000 0.00000000 0.99970000
vn -0.53180000 -0.12550000 -0.83750000
vn 0.40220000 0.08680000 -0.91140000
vn 0.17210000 0.04440000 0.98410000
vn -0.68160000 -0.15900000 -0.71420000
vn 0.21740000 0.04440000 -0.97510000
vn 0.35970000 0.08680000 0.92900000
vn -0.80400000 -0.18610000 -0.56480000
vn 0.02310000 0.00000000 -0.99970000
vn 0.53180000 0.12550000 0.83750000
vn -0.89510000 -0.20600000 -0.39540000
vn 0.68160000 0.15900000 0.71420000
vn -0.95250000 -0.21810000 -0.21250000
vn 0.80400000 0.18610000 0.56480000
vn -0.97480000 -0.22210000 -0.02250000
vn 0.89510000 0.20600000 0.39540000
vn -0.96130000 -0.21810000 0.16830000
vn 0.95250000 0.21810000 0.21250000
vn -0.91240000 -0.20600000 0.35360000
vn 0.97480000 0.22210000 0.02250000
vn -0.82920000 -0.18610000 0.52700000
vn 0.96130000 0.21810000 -0.16830000
vn -0.71390000 -0.15900000 0.68200000
vn 0.91240000 0.20600000 -0.35370000
vn -0.56990000 -0.12550000 0.81210000
vn 0.82920000 0.18610000 -0.52700000
vn -0.40220000 -0.08680000 0.91140000
vn -0.17210000 -0.04440000 -0.98410000
vn 0.71390000 0.15900000 -0.68200000
vn -0.91610000 -0.08680000 -0.39130000
vn -0.97760000 -0.04440000 -0.20570000
vn 0.98200000 -0.04440000 -0.18390000
vn 0.92470000 -0.08680000 -0.37080000
vn 0.69040000 0.15900000 0.70570000
vn 0.81880000 0.12550000 0.56020000
vn -0.99990000 -0.00000000 -0.01120000
vn 0.83110000 -0.12550000 -0.54170000
vn 0.91610000 0.08680000 0.39130000
vn -0.98200000 0.04440000 0.18390000
vn 0.70600000 -0.15900000 -0.69010000
vn 0.97760000 0.04440000 0.20570000
vn -0.92470000 0.08680000 0.37080000
vn 0.55510000 -0.18610000 -0.81070000
vn 0.99990000 0.00000000 0.01120000
vn -0.83110000 0.12550000 0.54170000
vn 0.38470000 -0.20600000 -0.89980000
vn -0.70600000 0.15900000 0.69010000
vn 0.20120000 -0.21810000 -0.95500000
vn -0.55510000 0.18610000 0.81070000
vn 0.01090000 -0.22210000 -0.97500000
vn -0.38470000 0.20600000 0.89980000
vn -0.17980000 -0.21810000 -0.95920000
vn -0.20110000 0.21810000 0.95500000
vn -0.36450000 -0.20600000 -0.90810000
vn -0.01090000 0.22210000 0.97500000
vn -0.53690000 -0.18610000 -0.82290000
vn 0.17980000 0.21810000 0.95920000
vn -0.69040000 -0.15900000 -0.70570000
vn 0.36450000 0.20600000 0.90810000
vn -0.81880000 -0.12550000 -0.56020000
vn 0.53690000 0.18610000 0.82290000
vn -0.97760000 -0.04440000 -0.20570000
vn 0.92470000 -0.08680000 -0.37080000
vn 0.81880000 0.12550000 0.56020000
vn -0.99990000 -0.00000000 -0.01120000
vn 0.83110000 -0.12550000 -0.54170000
vn 0.91610000 0.08680000 0.39130000
vn -0.98190000 0.04440000 0.18390000
vn 0.70600000 -0.15900000 -0.69010000
vn 0.97760000 0.04440000 0.20570000
vn -0.92470000 0.08680000 0.37080000
vn 0.55510000 -0.18610000 -0.81070000
vn 0.99990000 0.00000000 0.01120000
vn -0.83110000 0.12550000 0.54170000
vn 0.38470000 -0.20600000 -0.89980000
vn -0.70600000 0.15900000 0.69010000
vn 0.20120000 -0.21810000 -0.95500000
vn -0.55510000 0.18610000 0.81070000
vn 0.01090000 -0.22210000 -0.97500000
vn -0.38470000 0.20600000 0.89980000
vn -0.17980000 -0.21810000 -0.95920000
vn -0.20110000 0.21810000 0.95500000
vn -0.36450000 -0.20600000 -0.90810000
vn -0.01090000 0.22210000 0.97500000
vn -0.53690000 -0.18610000 -0.82290000
vn 0.17980000 0.21810000 0.95920000
vn -0.69040000 -0.15900000 -0.70570000
vn 0.36450000 0.20600000 0.90810000
vn -0.81880000 -0.12550000 -0.56020000
vn 0.53690000 0.18610000 0.82290000
vn -0.91610000 -0.08680000 -0.39130000
vn 0.98190000 -0.04440000 -0.18390000
vn 0.69040000 0.15900000 0.70570000
vt 0.00000000 0.00000000
vt 0.00000000 0.00000000
vt 0.00000000 0.00000000
vt 0.00000000 0.00000000
vt 0.00000000 0.00000000
vt 0.00000000 0.00000000
vt 0.00000000 0.00000000
vt 0.00000000 0.00000000
vt 0.00000000 0.00000000
vt 0.00000000 0.00000000
vt 0.00000000 0.00000000
vt 0.00000000 0.00000000
vt 0.00000000 0.00000000
vt 0.00000000 0.00000000
vt 0.00000000 0.00000000
vt 0.00000000 0.00000000
vt 0.00000000 0.00000000
vt 0.00000000 0.00000000
vt 0.00000000 0.00000000
vt 0.00000000 0.00000000
vt 0.00000000 0.00000000
vt 0.00000000 0.00000000
vt 0.00000000 0.00000000
vt 0.00000000 0.00000000
vt 0.00000000 0.00000000
vt 0.00000000 0.00000000
vt 0.00000000 0.00000000
vt 0.00000000 0.00000000
vt 0.00000000 0.00000000
vt 0.00000000 0.00000000
vt 0.00000000 0.00000000
vt 0.00000000 0.00000000
vt 0.00000000 0.00000000
vt 0.00000000 0.00000000
vt 0.00000000 0.00000000
vt 0.00000000 0.00000000
vt 0.00000000 0.00000000
vt 0.00000000 0.00000000
vt 0.00000000 0.00000000
vt 0.00000000 0.00000000
vt 0.00000000 0.00000000
vt 0.00000000 0.00000000
vt 0.00000000 0.00000000
vt 0.00000000 0.00000000
vt 0.00000000 0.00000000
vt 0.00000000 0.00000000
vt 0.00000000 0.00000000
vt 0.00000000 0.00000000
vt 0.00000000 0.00000000
vt 0.00000000 0.00000000
vt 0.00000000 0.00000000
vt 0.00000000 0.00000000
vt 0.00000000 0.00000000
vt 0.00000000 0.00000000
vt 0.00000000 0.00000000
vt 0.00000000 0.00000000
vt 0.00000000 0.00000000
vt 0.00000000 0.00000000
vt 0.00000000 0.00000000
vt 0.00000000 0.00000000
vt 0.00000000 0.00000000
vt 0.00000000 0.00000000
vt 0.00000000 0.00000000
vt 0.00000000 0.00000000
vt 0.00000000 0.00000000
vt 0.00000000 0.00000000
vt 0.00000000 0.00000000
vt 0.00000000 0.00000000
vt 0.00000000 0.00000000
vt 0.00000000 0.00000000
vt 0.00000000 0.00000000
vt 0.00000000 0.00000000
vt 0.00000000 0.00000000
vt 0.00000000 0.00000000
vt 0.00000000 0.00000000
vt 0.00000000 0.00000000
vt 0.00000000 0.00000000
vt 0.00000000 0.00000000
vt 0.00000000 0.00000000
vt 0.00000000 0.00000000
vt 0.00000000 0.00000000
vt 0.00000000 0.00000000
vt 0.00000000 0.00000000
vt 0.00000000 0.00000000
vt 0.00000000 0.00000000
vt 0.00000000 0.00000000
vt 0.00000000 0.00000000
vt 0.00000000 0.00000000
vt 0.00000000 0.00000000
vt 0.00000000 0.00000000
vt 0.00000000 0.00000000
vt 0.00000000 0.00000000
vt 0.00000000 0.00000000
vt 0.00000000 0.00000000
vt 0.00000000 0.00000000
vt 0.00000000 0.00000000
vt 0.00000000 0.00000000
vt 0.00000000 0.00000000
vt 0.00000000 0.00000000
vt 0.00000000 0.00000000
vt 0.00000000 0.00000000
vt 0.00000000 0.00000000
vt 0.00000000 0.00000000
vt 0.00000000 0.00000000
vt 0.00000000 0.00000000
vt 0.00000000 0.00000000
vt 0.00000000 0.00000000
vt 0.00000000 0.00000000
vt 0.00000000 0.00000000
vt 0.00000000 0.00000000
vt 0.00000000 0.00000000
vt 0.00000000 0.00000000
vt 0.00000000 0.00000000
vt 0.00000000 0.00000000
vt 0.00000000 0.00000000
vt 0.00000000 0.00000000
vt 0.00000000 0.00000000
vt 0.00000000 0.00000000
vt 0.00000000 0.00000000
vt 0.00000000 0.00000000
vt 0.00000000 0.00000000
vt 0.00000000 0.00000000
vt 0.00000000 0.00000000
vt 0.00000000 0.00000000
vt 0.00000000 0.00000000
vt 0.00000000 0.00000000
vt 0.00000000 0.00000000
vt 0.00000000 0.00000000
vt 0.00000000 0.00000000
vt 0.00000000 0.00000000
vt 0.00000000 0.00000000
vt 0.00000000 0.00000000
vt 0.00000000 0.00000000
vt 0.00000000 0.00000000
vt 0.00000000 0.00000000
vt 0.00000000 0.00000000
vt 0.00000000 0.00000000
vt 0.00000000 0.00000000
vt 0.00000000 0.00000000
vt 0.00000000 0.00000000
vt 0.00000000 0.00000000
vt 0.00000000 0.00000000
vt 0.00000000 0.00000000
vt 0.00000000 0.00000000
vt 0.00000000 0.00000000
vt 0.00000000 0.00000000
vt 0.00000000 0.00000000
vt 0.00000000 0.00000000
vt 0.00000000 0.00000000
vt 0.00000000 0.00000000
vt 0.00000000 0.00000000
vt 0.00000000 0.00000000
vt 0.00000000 0.00000000
vt 0.00000000 0.00000000
vt 0.00000000 0.00000000
vt 0.00000000 0.00000000
vt 0.00000000 0.00000000
vt 0.00000000 0.00000000
vt 0.00000000 0.00000000
vt 0.00000000 0.00000000
vt 0.00000000 0.00000000
vt 0.00000000 0.00000000
vt 0.00000000 0.00000000
vt 0.00000000 0.00000000
vt 0.00000000 0.00000000
vt 0.00000000 0.00000000
vt 0.00000000 0.00000000
vt 0.00000000 0.00000000
vt 0.00000000 0.00000000
vt 0.00000000 0.00000000
vt 0.00000000 0.00000000
vt 0.00000000 0.00000000
vt 0.00000000 0.00000000
vt 0.00000000 0.00000000
vt 0.00000000 0.00000000
vt 0.00000000 0.00000000
vt 0.00000000 0.00000000
vt 0.00000000 0.00000000
vt 0.00000000 0.00000000
vt 0.00000000 0.00000000
vt 0.00000000 0.00000000
vt 0.00000000 0.00000000
vt 0.00000000 0.00000000
vt 0.00000000 0.00000000
vt 0.00000000 0.00000000
vt 0.00000000 0.00000000
vt 0.00000000 0.00000000
vt 0.00000000 0.00000000
vt 0.00000000 0.00000000
vt 0.00000000 0.00000000
vt 0.00000000 0.00000000
vt 0.00000000 0.00000000
vt 0.00000000 0.00000000
vt 0.00000000 0.00000000
vt 0.00000000 0.00000000
vt 0.00000000 0.00000000
vt 0.00000000 0.00000000
vt 0.00000000 0.00000000
vt 0.00000000 0.00000000
vt 0.00000000 0.00000000
vt 0.00000000 0.00000000
vt 0.00000000 0.00000000
vt 0.00000000 0.00000000
vt 0.00000000 0.00000000
vt 0.00000000 0.00000000
vt 0.00000000 0.00000000
vt 0.00000000 0.00000000
vt 0.00000000 0.00000000
vt 0.00000000 0.00000000
vt 0.00000000 0.00000000
vt 0.00000000 0.00000000
vt 0.00000000 0.00000000
vt 0.00000000 0.00000000
vt 0.00000000 0.00000000
vt 0.00000000 0.00000000
vt 0.00000000 0.00000000
vt 0.00000000 0.00000000
vt 0.00000000 0.00000000
vt 0.00000000 0.00000000
vt 0.00000000 0.00000000
vt 0.00000000 0.00000000
vt 0.00000000 0.00000000
vt 0.00000000 0.00000000
vt 0.00000000 0.00000000
vt 0.00000000 0.00000000
vt 0.00000000 0.00000000
vt 0.00000000 0.00000000
vt 0.00000000 0.00000000
vt 0.00000000 0.00000000
vt 0.00000000 0.00000000
vt 0.00000000 0.00000000
vt 0.00000000 0.00000000
vt 0.00000000 0.00000000
vt 0.00000000 0.00000000
vt 0.00000000 0.00000000
vt 0.00000000 0.00000000
vt 0.00000000 0.00000000
vt 0.00000000 0.00000000
vt 0.00000000 0.00000000
vt 0.00000000 0.00000000
vt 0.00000000 0.00000000
vt 0.00000000 0.00000000
vt 0.00000000 0.00000000
vt 0.00000000 0.00000000
vt 0.00000000 0.00000000
vt 0.00000000 0.00000000
vt 0.00000000 0.00000000
vt 0.00000000 0.00000000
vt 0.00000000 0.00000000
vt 0.00000000 0.00000000
vt 0.00000000 0.00000000
vt 0.00000000 0.00000000
vt 0.00000000 0.00000000
vt 0.00000000 0.00000000
vt 0.00000000 0.00000000
vt 0.00000000 0.00000000
vt 0.00000000 0.00000000
vt 0.00000000 0.00000000
vt 0.00000000 0.00000000
vt 0.00000000 0.00000000
f 68/68/68 65/65/65 36/36/36
f 67/67/67 48/48/48 15/15/15
f 66/66/66 64/64/64 35/35/35
f 65/65/65 63/63/63 34/34/34
f 64/64/64 62/62/62 33/33/33
f 63/63/63 61/61/61 32/32/32
f 62/62/62 60/60/60 30/30/30
f 61/61/61 59/59/59 29/29/29
f 60/60/60 58/58/58 27/27/27
f 59/59/59 57/57/57 26/26/26
f 58/58/58 56/56/56 24/24/24
f 57/57/57 55/55/55 23/23/23
f 56/56/56 54/54/54 21/21/21
f 55/55/55 53/53/53 20/20/20
f 54/54/54 52/52/52 19/19/19
f 53/53/53 51/51/51 18/18/18
f 52/52/52 50/50/50 17/17/17
f 51/51/51 49/49/49 16/16/16
f 50/50/50 47/47/47 14/14/14
f 49/49/49 46/46/46 13/13/13
f 48/48/48 45/45/45 12/12/12
f 47/47/47 44/44/44 11/11/11
f 46/46/46 43/43/43 10/10/10
f 45/45/45 42/42/42 9/9/9
f 44/44/44 41/41/41 8/8/8
f 43/43/43 40/40/40 7/7/7
f 42/42/42 39/39/39 6/6/6
f 41/41/41 38/38/38 4/4/4
f 40/40/40 37/37/37 2/2/2
f 39/39/39 68/68/68 5/5/5
f 38/38/38 67/67/67 3/3/3
f 37/37/37 66/66/66 1/1/1
f 31/31/31 28/28/28 28/28/28
f 25/25/25 22/22/22 22/22/22
f 28/28/28 25/25/25 25/25/25
f 132/132/132 129/129/129 100/100/100
f 131/131/131 112/112/112 83/83/83
f 130/130/130 128/128/128 99/99/99
f 129/129/129 127/127/127 98/98/98
f 128/128/128 126/126/126 97/97/97
f 127/127/127 125/125/125 96/96/96
f 126/126/126 124/124/124 95/95/95
f 125/125/125 123/123/123 94/94/94
f 124/124/124 122/122/122 93/93/93
f 123/123/123 121/121/121 92/92/92
f 122/122/122 120/120/120 91/91/91
f 121/121/121 119/119/119 90/90/90
f 120/120/120 118/118/118 89/89/89
f 119/119/119 117/117/117 88/88/88
f 118/118/118 116/116/116 87/87/87
f 117/117/117 115/115/115 86/86/86
f 116/116/116 114/114/114 85/85/85
f 115/115/115 113/113/113 84/84/84
f 114/114/114 111/111/111 82/82/82
f 113/113/113 110/110/110 81/81/81
f 112/112/112 109/109/109 80/80/80
f 111/111/111 108/108/108 79/79/79
f 110/110/110 107/107/107 78/78/78
f 109/109/109 106/106/106 77/77/77
f 108/108/108 105/105/105 76/76/76
f 107/107/107 104/104/104 75/75/75
f 106/106/106 103/103/103 74/74/74
f 105/105/105 102/102/102 72/72/72
f 104/104/104 101/101/101 70/70/70
f 103/103/103 132/132/132 73/73/73
f 102/102/102 131/131/131 71/71/71
f 101/101/101 130/130/130 69/69/69
f 196/196/196 193/193/193 164/164/164
f 195/195/195 176/176/176 147/147/147
f 194/194/194 192/192/192 163/163/163
f 193/193/193 191/191/191 162/162/162
f 192/192/192 190/190/190 161/161/161
f 191/191/191 189/189/189 160/160/160
f 190/190/190 188/188/188 159/159/159
f 189/189/189 187/187/187 158/158/158
f 188/188/188 186/186/186 157/157/157
f 187/187/187 185/185/185 156/156/156
f 186/186/186 184/184/184 155/155/155
f 185/185/185 183/183/183 154/154/154
f 184/184/184 182/182/182 153/153/153
f 183/183/183 181/181/181 152/152/152
f 182/182/182 180/180/180 151/151/151
f 181/181/181 179/179/179 150/150/150
f 180/180/180 178/178/178 149/149/149
f 179/179/179 177/177/177 148/148/148
f 178/178/178 175/175/175 146/146/146
f 177/177/177 174/174/174 145/145/145
f 176/176/176 173/173/173 144/144/144
f 175/175/175 172/172/172 143/143/143
f 174/174/174 171/171/171 142/142/142
f 173/173/173 170/170/170 141/141/141
f 172/172/172 169/169/169 140/140/140
f 171/171/171 168/168/168 139/139/139
f 170/170/170 167/167/167 138/138/138
f 169/169/169 166/166/166 136/136/136
f 168/168/168 165/165/165 134/134/134
f 167/167/167 196/196/196 137/137/137
f 166/166/166 195/195/195 135/135/135
f 165/165/165 194/194/194 133/133/133
f 260/260/260 257/257/257 228/228/228
f 259/259/259 240/240/240 211/211/211
f 258/258/258 256/256/256 227/227/227
f 257/257/257 255/255/255 226/226/226
f 256/256/256 254/254/254 225/225/225
f 255/255/255 253/253/253 224/224/224
f 254/254/254 252/252/252 223/223/223
f 253/253/253 251/251/251 222/222/222
f 252/252/252 250/250/250 221/221/221
f 251/251/251 249/249/249 220/220/220
f 250/250/250 248/248/248 219/219/219
f 249/249/249 247/247/247 218/218/218
f 248/248/248 246/246/246 217/217/217
f 247/247/247 245/245/245 216/216/216
f 246/246/246 244/244/244 215/215/215
f 245/245/245 243/243/243 214/214/214
f 244/244/244 242/242/242 213/213/213
f 243/243/243 241/241/241 212/212/212
f 242/242/242 239/239/239 210/210/210
f 241/241/241 238/238/238 209/209/209
f 240/240/240 237/237/237 208/208/208
f 239/239/239 236/236/236 207/207/207
f 238/238/238 235/235/235 206/206/206
f 237/237/237 234/234/234 205/205/205
f 236/236/236 233/233/233 204/204/204
f 235/235/235 232/232/232 203/203/203
f 234/234/234 231/231/231 202/202/202
f 233/233/233 230/230/230 200/200/200
f 232/232/232 229/229/229 198/198/198
f 231/231/231 260/260/260 201/201/201
f 230/230/230 259/259/259 199/199/199
f 229/229/229 258/258/258 197/197/197
f 36/36/36 5/5/5 68/68/68
f 15/15/15 3/3/3 67/67/67
f 35/35/35 1/1/1 66/66/66
f 34/34/34 36/36/36 65/65/65
f 33/33/33 35/35/35 64/64/64
f 32/32/32 34/34/34 63/63/63
f 30/30/30 33/33/33 62/62/62
f 29/29/29 32/32/32 61/61/61
f 27/27/27 30/30/30 60/60/60
f 26/26/26 29/29/29 59/59/59
f 24/24/24 27/27/27 58/58/58
f 23/23/23 26/26/26 57/57/57
f 21/21/21 24/24/24 56/56/56
f 20/20/20 23/23/23 55/55/55
f 19/19/19 21/21/21 54/54/54
f 18/18/18 20/20/20 53/53/53
f 17/17/17 19/19/19 52/52/52
f 16/16/16 18/18/18 51/51/51
f 14/14/14 17/17/17 50/50/50
f 13/13/13 16/16/16 49/49/49
f 12/12/12 15/15/15 48/48/48
f 11/11/11 14/14/14 47/47/47
f 10/10/10 13/13/13 46/46/46
f 9/9/9 12/12/12 45/45/45
f 8/8/8 11/11/11 44/44/44
f 7/7/7 10/10/10 43/43/43
f 6/6/6 9/9/9 42/42/42
f 4/4/4 8/8/8 41/41/41
f 2/2/2 7/7/7 40/40/40
f 5/5/5 6/6/6 39/39/39
f 3/3/3 4/4/4 38/38/38
f 1/1/1 2/2/2 37/37/37
f 28/28/28 31/31/31 31/31/31
f 22/22/22 25/25/25 25/25/25
f 25/25/25 28/28/28 28/28/28
f 100/100/100 73/73/73 132/132/132
f 83/83/83 71/71/71 131/131/131
f 99/99/99 69/69/69 130/130/130
f 98/98/98 100/100/100 129/129/129
f 97/97/97 99/99/99 128/128/128
f 96/96/96 98/98/98 127/127/127
f 95/95/95 97/97/97 126/126/126
f 94/94/94 96/96/96 125/125/125
f 93/93/93 95/95/95 124/124/124
f 92/92/92 94/94/94 123/123/123
f 91/91/91 93/93/93 122/122/122
f 90/90/90 92/92/92 121/121/121
f 89/89/89 91/91/91 120/120/120
f 88/88/88 90/90/90 119/119/119
f 87/87/87 89/89/89 118/118/118
f 86/86/86 88/88/88 117/117/117
f 85/85/85 87/87/87 116/116/116
f 84/84/84 86/86/86 115/115/115
f 82/82/82 85/85/85 114/114/114
f 81/81/81 84/84/84 113/113/113
f 80/80/80 83/83/83 112/112/112
f 79/79/79 82/82/82 111/111/111
f 78/78/78 81/81/81 110/110/110
f 77/77/77 80/80/80 109/109/109
f 76/76/76 79/79/79 108/108/108
f 75/75/75 78/78/78 107/107/107
f 74/74/74 77/77/77 106/106/106
f 72/72/72 76/76/76 105/105/105
f 70/70/70 75/75/75 104/104/104
f 73/73/73 74/74/74 103/103/103
f 71/71/71 72/72/72 102/102/102
f 69/69/69 70/70/70 101/101/101
f 164/164/164 137/137/137 196/196/196
f 147/147/147 135/135/135 195/195/195
f 163/163/163 133/133/133 194/194/194
f 162/162/162 164/164/164 193/193/193
f 161/161/161 163/163/163 192/192/192
f 160/160/160 162/162/162 191/191/191
f 159/159/159 161/161/161 190/190/190
f 158/158/158 160/160/160 189/189/189
f 157/157/157 159/159/159 188/188/188
f 156/156/156 158/158/158 187/187/187
f 155/155/155 157/157/157 186/186/186
f 154/154/154 156/156/156 185/185/185
f 153/153/153 155/155/155 184/184/184
f 152/152/152 154/154/154 183/183/183
f 151/151/151 153/153/153 182/182/182
f 150/150/150 152/152/152 181/181/181
f 149/149/149 151/151/151 180/180/180
f 148/148/148 150/150/150 179/179/179
f 146/146/146 149/149/149 178/178/178
f 145/145/145 148/148/148 177/177/177
f 144/144/144 147/147/147 176/176/176
f 143/143/143 146/146/146 175/175/175
f 142/142/142 145/145/145 174/174/174
f 141/141/141 144/144/144 173/173/173
f 140/140/140 143/143/143 172/172/172
f 139/139/139 142/142/142 171/171/171
f 138/138/138 141/141/141 170/170/170
f 136/136/136 140/140/140 169/169/169
f 134/134/134 139/139/139 168/168/168
f 137/137/137 138/138/138 167/167/167
f 135/135/135 136/136/136 166/166/166
f 133/133/133 134/134/134 165/165/165
f 228/228/228 201/201/201 260/260/260
f 211/211/211 199/199/199 259/259/259
f 227/227/227 197/197/197 258/258/258
f 226/226/226 228/228/228 257/257/257
f 225/225/225 227/227/227 256/256/256
f 224/224/224 226/226/226 255/255/255
f 223/223/223 225/225/225 254/254/254
f 222/222/222 224/224/224 253/253/253
f 221/221/221 223/223/223 252/252/252
f 220/220/220 222/222/222 251/251/251
f 219/219/219 221/221/221 250/250/250
f 218/218/218 220/220/220 249/249/249
f 217/217/217 219/219/219 248/248/248
f 216/216/216 218/218/218 247/247/247
f 215/215/215 217/217/217 246/246/246
f 214/214/214 216/216/216 245/245/245
f 213/213/213 215/215/215 244/244/244
f 212/212/212 214/214/214 243/243/243
f 210/210/210 213/213/213 242/242/242
f 209/209/209 212/212/212 241/241/241
f 208/208/208 211/211/211 240/240/240
f 207/207/207 210/210/210 239/239/239
f 206/206/206 209/209/209 238/238/238
f 205/205/205 208/208/208 237/237/237
f 204/204/204 207/207/207 236/236/236
f 203/203/203 206/206/206 235/235/235
f 202/202/202 205/205/205 234/234/234
f 200/200/200 204/204/204 233/233/233
f 198/198/198 203/203/203 232/232/232
f 201/201/201 202/202/202 231/231/231
f 199/199/199 200/200/200 230/230/230
f 197/197/197 198/198/198 229/229/229

