# https://github.com/mikedh/trimesh
v -5.83740000 2.97860000 -52.59790000
v -5.79860000 2.66530000 -52.59790000
v -5.79860000 2.66530000 -52.47660000
v -5.83740000 2.97860000 -52.47660000
v -5.77200000 2.39540000 -52.59790000
v -5.77200000 2.39540000 -52.47660000
v -5.74530000 2.15840000 -52.59790000
v -5.74530000 2.15840000 -52.47660000
v -5.70630000 1.94420000 -52.59790000
v -5.70630000 1.94420000 -52.47660000
v -5.64280000 1.74250000 -52.59790000
v -5.64280000 1.74250000 -52.47660000
v -5.54260000 1.54310000 -52.59790000
v -5.54260000 1.54310000 -52.47660000
v -5.39360000 1.33570000 -52.59790000
v -5.39360000 1.33570000 -52.47660000
v -5.25920000 1.19060000 -52.59790000
v -5.25920000 1.19060000 -52.47660000
v -5.09810000 1.04960000 -52.59790000
v -5.09810000 1.04960000 -52.47660000
v -4.91250000 0.91720000 -52.59790000
v -4.91250000 0.91720000 -52.47660000
v -4.70470000 0.79830000 -52.59790000
v -4.70470000 0.79830000 -52.47660000
v -4.47700000 0.69740000 -52.59790000
v -4.47700000 0.69740000 -52.47660000
v -4.23160000 0.61920000 -52.59790000
v -4.23160000 0.61920000 -52.47660000
v -3.97070000 0.56850000 -52.59790000
v -3.97070000 0.56850000 -52.47660000
v -3.78490000 0.69800000 -52.59790000
v -3.78490000 0.69800000 -52.47660000
v -3.56180000 0.86790000 -52.59790000
v -3.56180000 0.86790000 -52.47660000
v -3.32280000 1.06670000 -52.59790000
v -3.32280000 1.06670000 -52.47660000
v -3.08960000 1.28300000 -52.59790000
v -3.08960000 1.28300000 -52.47660000
v -2.88370000 1.50530000 -52.59790000
v -2.88370000 1.50530000 -52.47660000
v -2.72680000 1.72220000 -52.59790000
v -2.72680000 1.72220000 -52.47660000
v -2.64040000 1.92200000 -52.59790000
v -2.64040000 1.92200000 -52.47660000
v -2.62430000 1.92720000 -52.59790000
v -2.62430000 1.92720000 -52.47660000
v -2.59490000 1.93700000 -52.59790000
v -2.59490000 1.93700000 -52.47660000
v -2.55720000 1.96200000 -52.59790000
v -2.55720000 1.96200000 -52.47660000
v -2.51590000 2.01250000 -52.59790000
v -2.51590000 2.01250000 -52.47660000
v -2.47620000 2.09900000 -52.59790000
v -2.47620000 2.09900000 -52.47660000
v -2.44290000 2.23180000 -52.59790000
v -2.44290000 2.23180000 -52.47660000
v -2.42100000 2.42140000 -52.59790000
v -2.42100000 2.42140000 -52.47660000
v -2.41900000 2.51120000 -52.59790000
v -2.41900000 2.51120000 -52.47660000
v -2.42420000 2.59860000 -52.59790000
v -2.42420000 2.59860000 -52.47660000
v -2.43480000 2.68570000 -52.59790000
v -2.43480000 2.68570000 -52.47660000
v -2.44890000 2.77490000 -52.59790000
v -2.44890000 2.77490000 -52.47660000
v -2.46490000 2.86830000 -52.59790000
v -2.46490000 2.86830000 -52.47660000
v -2.48080000 2.96830000 -52.59790000
v -2.48080000 2.96830000 -52.47660000
v -2.49490000 3.07690000 -52.59790000
v -2.49490000 3.07690000 -52.47660000
v -2.51220000 3.27830000 -52.59790000
v -2.51220000 3.27830000 -52.47660000
v -2.52100000 3.47940000 -52.59790000
v -2.52100000 3.47940000 -52.47660000
v -2.52320000 3.68030000 -52.59790000
v -2.52320000 3.68030000 -52.47660000
v -2.52080000 3.88110000 -52.59790000
v -2.52080000 3.88110000 -52.47660000
v -2.51590000 4.08200000 -52.59790000
v -2.51590000 4.08200000 -52.47660000
v -2.51030000 4.28310000 -52.59790000
v -2.51030000 4.28310000 -52.47660000
v -2.50620000 4.48460000 -52.59790000
v -2.50620000 4.48460000 -52.47660000
v -2.51780000 4.87310000 -52.59790000
v -2.51780000 4.87310000 -52.47660000
v -2.55630000 5.24180000 -52.59790000
v -2.55630000 5.24180000 -52.47660000
v -2.61110000 5.59270000 -52.59790000
v -2.61110000 5.59270000 -52.47660000
v -2.67140000 5.92760000 -52.59790000
v -2.67140000 5.92760000 -52.47660000
v -2.72670000 6.24820000 -52.59790000
v -2.72670000 6.24820000 -52.47660000
v -2.76630000 6.55650000 -52.59790000
v -2.76630000 6.55650000 -52.47660000
v -2.77960000 6.85430000 -52.59790000
v -2.77960000 6.85430000 -52.47660000
v -2.76750000 7.05460000 -52.59790000
v -2.76750000 7.05460000 -52.47660000
v -2.73950000 7.21760000 -52.59790000
v -2.73950000 7.21760000 -52.47660000
v -2.70130000 7.35650000 -52.59790000
v -2.70130000 7.35650000 -52.47660000
v -2.65810000 7.48460000 -52.59790000
v -2.65810000 7.48460000 -52.47660000
v -2.61530000 7.61510000 -52.59790000
v -2.61530000 7.61510000 -52.47660000
v -2.57860000 7.76140000 -52.59790000
v -2.57860000 7.76140000 -52.47660000
v -2.55310000 7.93680000 -52.59790000
v -2.55310000 7.93680000 -52.47660000
v -2.54520000 8.12810000 -52.59790000
v -2.54520000 8.12810000 -52.47660000
v -2.55410000 8.30880000 -52.59790000
v -2.55410000 8.30880000 -52.47660000
v -2.57380000 8.48380000 -52.59790000
v -2.57380000 8.48380000 -52.47660000
v -2.59780000 8.65800000 -52.59790000
v -2.59780000 8.65800000 -52.47660000
v -2.62030000 8.83640000 -52.59790000
v -2.62030000 8.83640000 -52.47660000
v -2.63480000 9.02390000 -52.59790000
v -2.63480000 9.02390000 -52.47660000
v -2.63530000 9.22540000 -52.59790000
v -2.63530000 9.22540000 -52.47660000
v -2.60200000 9.52610000 -52.59790000
v -2.60200000 9.52610000 -52.47660000
v -2.53270000 9.84240000 -52.59790000
v -2.53270000 9.84240000 -52.47660000
v -2.43830000 10.16720000 -52.59790000
v -2.43830000 10.16720000 -52.47660000
v -2.32920000 10.49350000 -52.59790000
v -2.32920000 10.49350000 -52.47660000
v -2.21600000 10.81410000 -52.59790000
v -2.21600000 10.81410000 -52.47660000
v -2.10930000 11.12210000 -52.59790000
v -2.10930000 11.12210000 -52.47660000
v -2.01970000 11.41020000 -52.59790000
v -2.01970000 11.41020000 -52.47660000
v -1.83190000 11.44030000 -52.59790000
v -1.83190000 11.44030000 -52.47660000
v -1.72430000 11.47450000 -52.59790000
v -1.72430000 11.47450000 -52.47660000
v -1.66810000 11.51850000 -52.59790000
v -1.66810000 11.51850000 -52.47660000
v -1.63450000 11.57810000 -52.59790000
v -1.63450000 11.57810000 -52.47660000
v -1.59480000 11.65890000 -52.59790000
v -1.59480000 11.65890000 -52.47660000
v -1.52010000 11.76660000 -52.59790000
v -1.52010000 11.76660000 -52.47660000
v -1.38170000 11.90700000 -52.59790000
v -1.38170000 11.90700000 -52.47660000
v -1.22050000 11.69900000 -52.59790000
v -1.22050000 11.69900000 -52.47660000
v -1.09760000 11.50030000 -52.59790000
v -1.09760000 11.50030000 -52.47660000
v -0.98870000 11.31450000 -52.59790000
v -0.98870000 11.31450000 -52.47660000
v -0.86890000 11.14520000 -52.59790000
v -0.86890000 11.14520000 -52.47660000
v -0.71400000 10.99610000 -52.59790000
v -0.71400000 10.99610000 -52.47660000
v -0.49940000 10.87090000 -52.59790000
v -0.49940000 10.87090000 -52.47660000
v -0.20050000 10.77310000 -52.59790000
v -0.20050000 10.77310000 -52.47660000
v -0.11950000 10.60420000 -52.59790000
v -0.11950000 10.60420000 -52.47660000
v -0.02530000 10.44370000 -52.59790000
v -0.02530000 10.44370000 -52.47660000
v 0.07850000 10.28720000 -52.59790000
v 0.07850000 10.28720000 -52.47660000
v 0.18810000 10.13030000 -52.59790000
v 0.18810000 10.13030000 -52.47660000
v 0.29980000 9.96860000 -52.59790000
v 0.29980000 9.96860000 -52.47660000
v 0.40990000 9.79790000 -52.59790000
v 0.40990000 9.79790000 -52.47660000
v 0.51470000 9.61350000 -52.59790000
v 0.51470000 9.61350000 -52.47660000
v 1.03020000 8.40410000 -52.59790000
v 1.03020000 8.40410000 -52.47660000
v 1.16580000 8.12730000 -52.59790000
v 1.16580000 8.12730000 -52.47660000
v 1.25030000 7.94900000 -52.59790000
v 1.25030000 7.94900000 -52.47660000
v 1.29960000 7.82560000 -52.59790000
v 1.29960000 7.82560000 -52.47660000
v 1.32970000 7.71350000 -52.59790000
v 1.32970000 7.71350000 -52.47660000
v 1.35640000 7.56900000 -52.59790000
v 1.35640000 7.56900000 -52.47660000
v 1.39600000 7.34870000 -52.59790000
v 1.39600000 7.34870000 -52.47660000
v 1.46410000 7.00880000 -52.59790000
v 1.46410000 7.00880000 -52.47660000
v 1.53090000 6.75790000 -52.59790000
v 1.53090000 6.75790000 -52.47660000
v 1.60100000 6.56900000 -52.59790000
v 1.60100000 6.56900000 -52.47660000
v 1.66350000 6.41740000 -52.59790000
v 1.66350000 6.41740000 -52.47660000
v 1.70750000 6.27840000 -52.59790000
v 1.70750000 6.27840000 -52.47660000
v 1.72220000 6.12710000 -52.59790000
v 1.72220000 6.12710000 -52.47660000
v 1.69670000 5.93880000 -52.59790000
v 1.69670000 5.93880000 -52.47660000
v 1.62010000 5.68880000 -52.59790000
v 1.62010000 5.68880000 -52.47660000
v 1.58470000 5.47440000 -52.59790000
v 1.58470000 5.47440000 -52.47660000
v 1.55520000 5.32160000 -52.59790000
v 1.55520000 5.32160000 -52.47660000
v 1.53570000 5.20470000 -52.59790000
v 1.53570000 5.20470000 -52.47660000
v 1.53060000 5.09870000 -52.59790000
v 1.53060000 5.09870000 -52.47660000
v 1.54400000 4.97800000 -52.59790000
v 1.54400000 4.97800000 -52.47660000
v 1.58030000 4.81730000 -52.59790000
v 1.58030000 4.81730000 -52.47660000
v 1.64360000 4.59120000 -52.59790000
v 1.64360000 4.59120000 -52.47660000
v 1.70520000 4.35730000 -52.59790000
v 1.70520000 4.35730000 -52.47660000
v 1.73380000 4.19200000 -52.59790000
v 1.73380000 4.19200000 -52.47660000
v 1.73840000 4.07030000 -52.59790000
v 1.73840000 4.07030000 -52.47660000
v 1.72840000 3.96730000 -52.59790000
v 1.72840000 3.96730000 -52.47660000
v 1.71280000 3.85790000 -52.59790000
v 1.71280000 3.85790000 -52.47660000
v 1.70060000 3.71730000 -52.59790000
v 1.70060000 3.71730000 -52.47660000
v 1.70100000 3.52040000 -52.59790000
v 1.70100000 3.52040000 -52.47660000
v 2.17830000 1.47280000 -52.59790000
v 2.17830000 1.47280000 -52.47660000
v 2.47170000 1.50440000 -52.59790000
v 2.47170000 1.50440000 -52.47660000
v 2.82090000 1.60450000 -52.59790000
v 2.82090000 1.60450000 -52.47660000
v 3.19750000 1.75400000 -52.59790000
v 3.19750000 1.75400000 -52.47660000
v 3.57290000 1.93390000 -52.59790000
v 3.57290000 1.93390000 -52.47660000
v 3.91880000 2.12520000 -52.59790000
v 3.91880000 2.12520000 -52.47660000
v 4.20660000 2.30900000 -52.59790000
v 4.20660000 2.30900000 -52.47660000
v 4.40780000 2.46610000 -52.59790000
v 4.40780000 2.46610000 -52.47660000
v 4.59340000 2.67870000 -52.59790000
v 4.59340000 2.67870000 -52.47660000
v 4.77060000 2.96130000 -52.59790000
v 4.77060000 2.96130000 -52.47660000
v 4.92250000 3.29290000 -52.59790000
v 4.92250000 3.29290000 -52.47660000
v 5.03290000 3.65310000 -52.59790000
v 5.03290000 3.65310000 -52.47660000
v 5.08470000 4.02090000 -52.59790000
v 5.08470000 4.02090000 -52.47660000
v 5.06160000 4.37570000 -52.59790000
v 5.06160000 4.37570000 -52.47660000
v 4.94680000 4.69670000 -52.59790000
v 4.94680000 4.69670000 -52.47660000
v 4.93540000 4.70730000 -52.59790000
v 4.93540000 4.70730000 -52.47660000
v 4.92290000 4.72040000 -52.59790000
v 4.92290000 4.72040000 -52.47660000
v 4.91000000 4.73410000 -52.59790000
v 4.91000000 4.73410000 -52.47660000
v 4.89760000 4.74640000 -52.59790000
v 4.89760000 4.74640000 -52.47660000
v 4.88640000 4.75520000 -52.59790000
v 4.88640000 4.75520000 -52.47660000
v 4.87720000 4.75840000 -52.59790000
v 4.87720000 4.75840000 -52.47660000
v 4.87060000 4.75400000 -52.59790000
v 4.87060000 4.75400000 -52.47660000
v 4.82970000 4.74260000 -52.59790000
v 4.82970000 4.74260000 -52.47660000
v 4.77150000 4.80350000 -52.59790000
v 4.77150000 4.80350000 -52.47660000
v 4.70250000 4.91900000 -52.59790000
v 4.70250000 4.91900000 -52.47660000
v 4.62940000 5.07190000 -52.59790000
v 4.62940000 5.07190000 -52.47660000
v 4.55870000 5.24470000 -52.59790000
v 4.55870000 5.24470000 -52.47660000
v 4.49700000 5.41980000 -52.59790000
v 4.49700000 5.41980000 -52.47660000
v 4.45080000 5.57980000 -52.59790000
v 4.45080000 5.57980000 -52.47660000
v 4.23030000 6.61500000 -52.59790000
v 4.23030000 6.61500000 -52.47660000
v 4.15700000 7.28580000 -52.59790000
v 4.15700000 7.28580000 -52.47660000
v 4.18570000 7.70830000 -52.59790000
v 4.18570000 7.70830000 -52.47660000
v 4.27080000 7.99860000 -52.59790000
v 4.27080000 7.99860000 -52.47660000
v 4.36700000 8.27240000 -52.59790000
v 4.36700000 8.27240000 -52.47660000
v 4.42880000 8.64590000 -52.59790000
v 4.42880000 8.64590000 -52.47660000
v 4.41080000 9.23500000 -52.59790000
v 4.41080000 9.23500000 -52.47660000
v 4.35310000 9.60420000 -52.59790000
v 4.35310000 9.60420000 -52.47660000
v 4.26920000 9.87400000 -52.59790000
v 4.26920000 9.87400000 -52.47660000
v 4.16560000 10.06680000 -52.59790000
v 4.16560000 10.06680000 -52.47660000
v 4.04900000 10.20500000 -52.59790000
v 4.04900000 10.20500000 -52.47660000
v 3.92590000 10.31080000 -52.59790000
v 3.92590000 10.31080000 -52.47660000
v 3.80290000 10.40660000 -52.59790000
v 3.80290000 10.40660000 -52.47660000
v 3.68650000 10.51470000 -52.59790000
v 3.68650000 10.51470000 -52.47660000
v 3.35520000 10.83790000 -52.59790000
v 3.35520000 10.83790000 -52.47660000
v 3.13460000 10.97600000 -52.59790000
v 3.13460000 10.97600000 -52.47660000
v 2.98540000 10.99830000 -52.59790000
v 2.98540000 10.99830000 -52.47660000
v 2.86900000 10.97420000 -52.59790000
v 2.86900000 10.97420000 -52.47660000
v 2.74610000 10.97280000 -52.59790000
v 2.74610000 10.97280000 -52.47660000
v 2.57770000 11.06350000 -52.59790000
v 2.57770000 11.06350000 -52.47660000
v 2.32480000 11.31550000 -52.59790000
v 2.32480000 11.31550000 -52.47660000
v 2.21950000 11.44580000 -52.59790000
v 2.21950000 11.44580000 -52.47660000
v 2.13200000 11.57610000 -52.59790000
v 2.13200000 11.57610000 -52.47660000
v 2.06160000 11.71210000 -52.59790000
v 2.06160000 11.71210000 -52.47660000
v 2.00760000 11.85950000 -52.59790000
v 2.00760000 11.85950000 -52.47660000
v 1.96900000 12.02400000 -52.59790000
v 1.96900000 12.02400000 -52.47660000
v 1.94510000 12.21120000 -52.59790000
v 1.94510000 12.21120000 -52.47660000
v 1.93520000 12.42700000 -52.59790000
v 1.93520000 12.42700000 -52.47660000
v 1.90890000 12.66310000 -52.59790000
v 1.90890000 12.66310000 -52.47660000
v 1.84840000 12.89870000 -52.59790000
v 1.84840000 12.89870000 -52.47660000
v 1.76310000 13.13580000 -52.59790000
v 1.76310000 13.13580000 -52.47660000
v 1.66240000 13.37640000 -52.59790000
v 1.66240000 13.37640000 -52.47660000
v 1.55580000 13.62230000 -52.59790000
v 1.55580000 13.62230000 -52.47660000
v 1.45250000 13.87530000 -52.59790000
v 1.45250000 13.87530000 -52.47660000
v 1.36220000 14.13750000 -52.59790000
v 1.36220000 14.13750000 -52.47660000
v 0.85880000 16.11900000 -52.59790000
v 0.85880000 16.11900000 -52.47660000
v 0.46710000 17.09970000 -52.59790000
v 0.46710000 17.09970000 -52.47660000
v 0.17370000 17.56490000 -52.59790000
v 0.17370000 17.56490000 -52.47660000
v -0.02740000 17.80080000 -52.59790000
v -0.02740000 17.80080000 -52.47660000
v -0.14150000 18.09370000 -52.59790000
v -0.14150000 18.09370000 -52.47660000
v -0.17450000 18.72950000 -52.59790000
v -0.17450000 18.72950000 -52.47660000
v -0.13180000 19.99460000 -52.59790000
v -0.13180000 19.99460000 -52.47660000
v -0.01930000 22.17510000 -52.59790000
v -0.01930000 22.17510000 -52.47660000
v -0.00750000 22.36420000 -52.59790000
v -0.00750000 22.36420000 -52.47660000
v 0.00610000 22.52540000 -52.59790000
v 0.00610000 22.52540000 -52.47660000
v 0.02210000 22.66810000 -52.59790000
v 0.02210000 22.66810000 -52.47660000
v 0.04100000 22.80170000 -52.59790000
v 0.04100000 22.80170000 -52.47660000
v 0.06320000 22.93540000 -52.59790000
v 0.06320000 22.93540000 -52.47660000
v 0.08950000 23.07860000 -52.59790000
v 0.08950000 23.07860000 -52.47660000
v 0.12030000 23.24060000 -52.59790000
v 0.12030000 23.24060000 -52.47660000
v 0.14470000 23.40480000 -52.59790000
v 0.14470000 23.40480000 -52.47660000
v 0.15350000 23.54610000 -52.59790000
v 0.15350000 23.54610000 -52.47660000
v 0.15260000 23.67490000 -52.59790000
v 0.15260000 23.67490000 -52.47660000
v 0.14770000 23.80200000 -52.59790000
v 0.14770000 23.80200000 -52.47660000
v 0.14450000 23.93790000 -52.59790000
v 0.14450000 23.93790000 -52.47660000
v 0.14890000 24.09310000 -52.59790000
v 0.14890000 24.09310000 -52.47660000
v 0.16650000 24.27840000 -52.59790000
v 0.16650000 24.27840000 -52.47660000
v 0.25810000 24.93700000 -52.59790000
v 0.25810000 24.93700000 -52.47660000
v 0.35580000 25.54480000 -52.59790000
v 0.35580000 25.54480000 -52.47660000
v 0.46050000 26.11930000 -52.59790000
v 0.46050000 26.11930000 -52.47660000
v 0.57350000 26.67830000 -52.59790000
v 0.57350000 26.67830000 -52.47660000
v 0.69540000 27.23900000 -52.59790000
v 0.69540000 27.23900000 -52.47660000
v 0.82740000 27.81940000 -52.59790000
v 0.82740000 27.81940000 -52.47660000
v 0.97040000 28.43670000 -52.59790000
v 0.97040000 28.43670000 -52.47660000
v 2.61290000 36.60250000 -52.59790000
v 2.61290000 36.60250000 -52.47660000
v 2.82610000 38.07200000 -52.59790000
v 2.82610000 38.07200000 -52.47660000
v 2.83510000 39.30760000 -52.59790000
v 2.83510000 39.30760000 -52.47660000
v 2.70180000 40.33440000 -52.59790000
v 2.70180000 40.33440000 -52.47660000
v 2.48840000 41.17780000 -52.59790000
v 2.48840000 41.17780000 -52.47660000
v 2.25710000 41.86300000 -52.59790000
v 2.25710000 41.86300000 -52.47660000
v 2.06970000 42.41520000 -52.59790000
v 2.06970000 42.41520000 -52.47660000
v 1.98860000 42.85960000 -52.59790000
v 1.98860000 42.85960000 -52.47660000
v 1.94790000 43.23340000 -52.59790000
v 1.94790000 43.23340000 -52.47660000
v 1.85870000 43.52730000 -52.59790000
v 1.85870000 43.52730000 -52.47660000
v 1.74660000 43.76490000 -52.59790000
v 1.74660000 43.76490000 -52.47660000
v 1.63730000 43.97030000 -52.59790000
v 1.63730000 43.97030000 -52.47660000
v 1.55640000 44.16720000 -52.59790000
v 1.55640000 44.16720000 -52.47660000
v 1.52960000 44.37950000 -52.59790000
v 1.52960000 44.37950000 -52.47660000
v 1.58250000 44.63110000 -52.59790000
v 1.58250000 44.63110000 -52.47660000
v 1.59010000 44.60960000 -52.59790000
v 1.59010000 44.60960000 -52.47660000
v 1.61900000 44.55870000 -52.59790000
v 1.61900000 44.55870000 -52.47660000
v 1.67990000 44.49680000 -52.59790000
v 1.67990000 44.49680000 -52.47660000
v 1.78380000 44.44290000 -52.59790000
v 1.78380000 44.44290000 -52.47660000
v 1.94100000 44.41560000 -52.59790000
v 1.94100000 44.41560000 -52.47660000
v 2.16250000 44.43350000 -52.59790000
v 2.16250000 44.43350000 -52.47660000
v 2.45900000 44.51550000 -52.59790000
v 2.45900000 44.51550000 -52.47660000
v 2.90300000 44.73190000 -52.59790000
v 2.90300000 44.73190000 -52.47660000
v 3.52840000 45.10820000 -52.59790000
v 3.52840000 45.10820000 -52.47660000
v 4.25850000 45.58500000 -52.59790000
v 4.25850000 45.58500000 -52.47660000
v 5.01690000 46.10340000 -52.59790000
v 5.01690000 46.10340000 -52.47660000
v 5.72730000 46.60410000 -52.59790000
v 5.72730000 46.60410000 -52.47660000
v 6.31300000 47.02800000 -52.59790000
v 6.31300000 47.02800000 -52.47660000
v 6.69780000 47.31600000 -52.59790000
v 6.69780000 47.31600000 -52.47660000
v 8.87670000 49.12920000 -52.59790000
v 8.87670000 49.12920000 -52.47660000
v 9.17770000 49.35810000 -52.59790000
v 9.17770000 49.35810000 -52.47660000
v 9.51430000 49.60470000 -52.59790000
v 9.51430000 49.60470000 -52.47660000
v 9.84820000 49.88170000 -52.59790000
v 9.84820000 49.88170000 -52.47660000
v 10.14160000 50.20160000 -52.59790000
v 10.14160000 50.20160000 -52.47660000
v 10.35660000 50.57680000 -52.59790000
v 10.35660000 50.57680000 -52.47660000
v 10.45500000 51.02000000 -52.59790000
v 10.45500000 51.02000000 -52.47660000
v 10.39910000 51.54350000 -52.59790000
v 10.39910000 51.54350000 -52.47660000
v 10.13780000 52.12780000 -52.59790000
v 10.13780000 52.12780000 -52.47660000
v 9.66440000 52.82400000 -52.59790000
v 9.66440000 52.82400000 -52.47660000
v 9.05240000 53.57280000 -52.59790000
v 9.05240000 53.57280000 -52.47660000
v 8.37570000 54.31560000 -52.59790000
v 8.37570000 54.31560000 -52.47660000
v 7.70760000 54.99340000 -52.59790000
v 7.70760000 54.99340000 -52.47660000
v 7.12180000 55.54700000 -52.59790000
v 7.12180000 55.54700000 -52.47660000
v 6.69190000 55.91770000 -52.59790000
v 6.69190000 55.91770000 -52.47660000
v 6.25900000 56.29910000 -52.59790000
v 6.25900000 56.29910000 -52.47660000
v 5.91310000 56.67200000 -52.59790000
v 5.91310000 56.67200000 -52.47660000
v 5.60410000 57.05330000 -52.59790000
v 5.60410000 57.05330000 -52.47660000
v 5.28170000 57.45980000 -52.59790000
v 5.28170000 57.45980000 -52.47660000
v 4.89560000 57.90820000 -52.59790000
v 4.89560000 57.90820000 -52.47660000
v 4.39550000 58.41540000 -52.59790000
v 4.39550000 58.41540000 -52.47660000
v 3.73130000 58.99790000 -52.59790000
v 3.73130000 58.99790000 -52.47660000
v 3.53140000 59.16050000 -52.59790000
v 3.53140000 59.16050000 -52.47660000
v 3.39010000 59.27590000 -52.59790000
v 3.39010000 59.27590000 -52.47660000
v 3.28830000 59.36540000 -52.59790000
v 3.28830000 59.36540000 -52.47660000
v 3.20700000 59.45060000 -52.59790000
v 3.20700000 59.45060000 -52.47660000
v 3.12690000 59.55270000 -52.59790000
v 3.12690000 59.55270000 -52.47660000
v 3.02890000 59.69310000 -52.59790000
v 3.02890000 59.69310000 -52.47660000
v 2.89410000 59.89320000 -52.59790000
v 2.89410000 59.89320000 -52.47660000
v 2.86240000 59.94040000 -52.59790000
v 2.86240000 59.94040000 -52.47660000
v 2.83490000 59.98140000 -52.59790000
v 2.83490000 59.98140000 -52.47660000
v 2.81050000 60.01730000 -52.59790000
v 2.81050000 60.01730000 -52.47660000
v 2.78870000 60.04910000 -52.59790000
v 2.78870000 60.04910000 -52.47660000
v 2.76840000 60.07750000 -52.59790000
v 2.76840000 60.07750000 -52.47660000
v 2.74900000 60.10380000 -52.59790000
v 2.74900000 60.10380000 -52.47660000
v 2.72950000 60.12860000 -52.59790000
v 2.72950000 60.12860000 -52.47660000
v 2.56380000 60.31040000 -52.59790000
v 2.56380000 60.31040000 -52.47660000
v 2.28470000 60.50660000 -52.59790000
v 2.28470000 60.50660000 -52.47660000
v 1.92960000 60.70570000 -52.59790000
v 1.92960000 60.70570000 -52.47660000
v 1.53600000 60.89640000 -52.59790000
v 1.53600000 60.89640000 -52.47660000
v 1.14130000 61.06720000 -52.59790000
v 1.14130000 61.06720000 -52.47660000
v 0.78300000 61.20660000 -52.59790000
v 0.78300000 61.20660000 -52.47660000
v 0.49850000 61.30340000 -52.59790000
v 0.49850000 61.30340000 -52.47660000
v 0.40270000 61.66160000 -52.59790000
v 0.40270000 61.66160000 -52.47660000
v 0.25030000 61.99090000 -52.59790000
v 0.25030000 61.99090000 -52.47660000
v 0.08020000 62.30300000 -52.59790000
v 0.08020000 62.30300000 -52.47660000
v -0.06900000 62.60990000 -52.59790000
v -0.06900000 62.60990000 -52.47660000
v -0.15860000 62.92300000 -52.59790000
v -0.15860000 62.92300000 -52.47660000
v -0.14980000 63.25430000 -52.59790000
v -0.14980000 63.25430000 -52.47660000
v -0.00380000 63.61530000 -52.59790000
v -0.00380000 63.61530000 -52.47660000
v 0.14510000 63.80430000 -52.59790000
v 0.14510000 63.80430000 -52.47660000
v 0.34420000 64.07250000 -52.59790000
v 0.34420000 64.07250000 -52.47660000
v 0.41880000 64.25660000 -52.59790000
v 0.41880000 64.25660000 -52.47660000
v 0.41730000 64.38130000 -52.59790000
v 0.41730000 64.38130000 -52.47660000
v 0.38840000 64.47160000 -52.59790000
v 0.38840000 64.47160000 -52.47660000
v 0.38040000 64.55220000 -52.59790000
v 0.38040000 64.55220000 -52.47660000
v 0.44200000 64.64790000 -52.59790000
v 0.44200000 64.64790000 -52.47660000
v 0.62160000 64.78350000 -52.59790000
v 0.62160000 64.78350000 -52.47660000
v 0.36070000 65.10200000 -52.59790000
v 0.36070000 65.10200000 -52.47660000
v 0.32040000 65.39610000 -52.59790000
v 0.32040000 65.39610000 -52.47660000
v 0.42360000 65.70520000 -52.59790000
v 0.42360000 65.70520000 -52.47660000
v 0.59380000 66.06870000 -52.59790000
v 0.59380000 66.06870000 -52.47660000
v 0.75380000 66.52600000 -52.59790000
v 0.75380000 66.52600000 -52.47660000
v 0.82710000 67.11630000 -52.59790000
v 0.82710000 67.11630000 -52.47660000
v 0.73670000 67.87920000 -52.59790000
v 0.73670000 67.87920000 -52.47660000
v 0.62220000 68.28340000 -52.59790000
v 0.62220000 68.28340000 -52.47660000
v 0.47320000 68.68400000 -52.59790000
v 0.47320000 68.68400000 -52.47660000
v 0.30120000 69.08700000 -52.59790000
v 0.30120000 69.08700000 -52.47660000
v 0.11740000 69.49880000 -52.59790000
v 0.11740000 69.49880000 -52.47660000
v -0.06690000 69.92560000 -52.59790000
v -0.06690000 69.92560000 -52.47660000
v -0.24030000 70.37340000 -52.59790000
v -0.24030000 70.37340000 -52.47660000
v -0.39150000 70.84870000 -52.59790000
v -0.39150000 70.84870000 -52.47660000
v -0.54980000 71.33190000 -52.59790000
v -0.54980000 71.33190000 -52.47660000
v -0.73680000 71.76040000 -52.59790000
v -0.73680000 71.76040000 -52.47660000
v -0.94890000 72.14210000 -52.59790000
v -0.94890000 72.14210000 -52.47660000
v -1.18220000 72.48530000 -52.59790000
v -1.18220000 72.48530000 -52.47660000
v -1.43300000 72.79790000 -52.59790000
v -1.43300000 72.79790000 -52.47660000
v -1.69740000 73.08810000 -52.59790000
v -1.69740000 73.08810000 -52.47660000
v -1.97190000 73.36380000 -52.59790000
v -1.97190000 73.36380000 -52.47660000
v -2.09920000 73.47580000 -52.59790000
v -2.09920000 73.47580000 -52.47660000
v -2.25640000 73.59530000 -52.59790000
v -2.25640000 73.59530000 -52.47660000
v -2.43490000 73.71880000 -52.59790000
v -2.43490000 73.71880000 -52.47660000
v -2.62640000 73.84310000 -52.59790000
v -2.62640000 73.84310000 -52.47660000
v -2.82260000 73.96460000 -52.59790000
v -2.82260000 73.96460000 -52.47660000
v -3.01510000 74.07980000 -52.59790000
v -3.01510000 74.07980000 -52.47660000
v -3.19570000 74.18530000 -52.59790000
v -3.19570000 74.18530000 -52.47660000
v -3.52690000 74.35110000 -52.59790000
v -3.52690000 74.35110000 -52.47660000
v -3.79340000 74.43120000 -52.59790000
v -3.79340000 74.43120000 -52.47660000
v -4.01900000 74.44460000 -52.59790000
v -4.01900000 74.44460000 -52.47660000
v -4.22750000 74.41060000 -52.59790000
v -4.22750000 74.41060000 -52.47660000
v -4.44280000 74.34840000 -52.59790000
v -4.44280000 74.34840000 -52.47660000
v -4.68850000 74.27720000 -52.59790000
v -4.68850000 74.27720000 -52.47660000
v -4.98860000 74.21620000 -52.59790000
v -4.98860000 74.21620000 -52.47660000
v -5.38550000 74.21380000 -52.59790000
v -5.38550000 74.21380000 -52.47660000
v -5.70330000 74.28860000 -52.59790000
v -5.70330000 74.28860000 -52.47660000
v -5.98430000 74.36420000 -52.59790000
v -5.98430000 74.36420000 -52.47660000
v -6.27060000 74.36420000 -52.59790000
v -6.27060000 74.36420000 -52.47660000
v -6.60480000 74.21200000 -52.59790000
v -6.60480000 74.21200000 -52.47660000
v -7.02890000 73.83120000 -52.59790000
v -7.02890000 73.83120000 -52.47660000
v -7.58520000 73.14520000 -52.59790000
v -7.58520000 73.14520000 -52.47660000
v -8.28110000 72.33220000 -52.59790000
v -8.28110000 72.33220000 -52.47660000
v -8.42070000 72.11170000 -52.59790000
v -8.42070000 72.11170000 -52.47660000
v -8.52650000 71.83960000 -52.59790000
v -8.52650000 71.83960000 -52.47660000
v -8.60620000 71.53270000 -52.59790000
v -8.60620000 71.53270000 -52.47660000
v -8.66720000 71.20760000 -52.59790000
v -8.66720000 71.20760000 -52.47660000
v -8.71710000 70.88110000 -52.59790000
v -8.71710000 70.88110000 -52.47660000
v -8.76350000 70.57000000 -52.59790000
v -8.76350000 70.57000000 -52.47660000
v -8.81390000 70.29100000 -52.59790000
v -8.81390000 70.29100000 -52.47660000
v -8.91660000 69.84710000 -52.59790000
v -8.91660000 69.84710000 -52.47660000
v -9.04100000 69.34890000 -52.59790000
v -9.04100000 69.34890000 -52.47660000
v -9.17330000 68.81900000 -52.59790000
v -9.17330000 68.81900000 -52.47660000
v -9.29950000 68.27980000 -52.59790000
v -9.29950000 68.27980000 -52.47660000
v -9.40580000 67.75380000 -52.59790000
v -9.40580000 67.75380000 -52.47660000
v -9.47830000 67.26340000 -52.59790000
v -9.47830000 67.26340000 -52.47660000
v -9.50320000 66.83130000 -52.59790000
v -9.50320000 66.83130000 -52.47660000
v -9.50000000 66.68960000 -52.59790000
v -9.50000000 66.68960000 -52.47660000
v -9.49260000 66.55400000 -52.59790000
v -9.49260000 66.55400000 -52.47660000
v -9.48100000 66.42360000 -52.59790000
v -9.48100000 66.42360000 -52.47660000
v -9.46440000 66.29800000 -52.59790000
v -9.46440000 66.29800000 -52.47660000
v -9.44280000 66.17600000 -52.59790000
v -9.44280000 66.17600000 -52.47660000
v -9.41580000 66.05710000 -52.59790000
v -9.41580000 66.05710000 -52.47660000
v -9.38290000 65.94040000 -52.59790000
v -9.38290000 65.94040000 -52.47660000
v -9.32740000 65.78690000 -52.59790000
v -9.32740000 65.78690000 -52.47660000
v -9.26900000 65.66480000 -52.59790000
v -9.26900000 65.66480000 -52.47660000
v -9.21020000 65.56640000 -52.59790000
v -9.21020000 65.56640000 -52.47660000
v -9.15350000 65.48420000 -52.59790000
v -9.15350000 65.48420000 -52.47660000
v -9.10130000 65.41040000 -52.59790000
v -9.10130000 65.41040000 -52.47660000
v -9.05620000 65.33740000 -52.59790000
v -9.05620000 65.33740000 -52.47660000
v -9.02060000 65.25760000 -52.59790000
v -9.02060000 65.25760000 -52.47660000
v -8.98210000 65.12460000 -52.59790000
v -8.98210000 65.12460000 -52.47660000
v -8.96210000 65.01150000 -52.59790000
v -8.96210000 65.01150000 -52.47660000
v -8.95040000 64.90820000 -52.59790000
v -8.95040000 64.90820000 -52.47660000
v -8.93640000 64.80510000 -52.59790000
v -8.93640000 64.80510000 -52.47660000
v -8.90980000 64.69210000 -52.59790000
v -8.90980000 64.69210000 -52.47660000
v -8.86030000 64.55930000 -52.59790000
v -8.86030000 64.55930000 -52.47660000
v -8.77740000 64.39680000 -52.59790000
v -8.77740000 64.39680000 -52.47660000
v -8.71560000 64.29180000 -52.59790000
v -8.71560000 64.29180000 -52.47660000
v -8.65890000 64.19990000 -52.59790000
v -8.65890000 64.19990000 -52.47660000
v -8.60600000 64.11450000 -52.59790000
v -8.60600000 64.11450000 -52.47660000
v -8.55560000 64.02910000 -52.59790000
v -8.55560000 64.02910000 -52.47660000
v -8.50630000 63.93670000 -52.59790000
v -8.50630000 63.93670000 -52.47660000
v -8.45670000 63.83080000 -52.59790000
v -8.45670000 63.83080000 -52.47660000
v -8.40560000 63.70470000 -52.59790000
v -8.40560000 63.70470000 -52.47660000
v -9.02320000 63.17840000 -52.59790000
v -9.02320000 63.17840000 -52.47660000
v -8.78570000 62.91540000 -52.59790000
v -8.78570000 62.91540000 -52.47660000
v -9.53700000 62.56670000 -52.59790000
v -9.53700000 62.56670000 -52.47660000
v -9.79690000 62.52530000 -52.59790000
v -9.79690000 62.52530000 -52.47660000
v -10.12330000 62.47090000 -52.59790000
v -10.12330000 62.47090000 -52.47660000
v -10.48530000 62.41030000 -52.59790000
v -10.48530000 62.41030000 -52.47660000
v -10.85230000 62.35090000 -52.59790000
v -10.85230000 62.35090000 -52.47660000
v -11.19340000 62.29960000 -52.59790000
v -11.19340000 62.29960000 -52.47660000
v -11.47800000 62.26350000 -52.59790000
v -11.47800000 62.26350000 -52.47660000
v -11.67540000 62.24970000 -52.59790000
v -11.67540000 62.24970000 -52.47660000
v -11.84360000 62.20040000 -52.59790000
v -11.84360000 62.20040000 -52.47660000
v -11.95430000 62.15000000 -52.59790000
v -11.95430000 62.15000000 -52.47660000
v -12.02710000 62.09330000 -52.59790000
v -12.02710000 62.09330000 -52.47660000
v -12.08140000 62.02540000 -52.59790000
v -12.08140000 62.02540000 -52.47660000
v -12.13660000 61.94130000 -52.59790000
v -12.13660000 61.94130000 -52.47660000
v -12.21230000 61.83580000 -52.59790000
v -12.21230000 61.83580000 -52.47660000
v -12.32800000 61.70410000 -52.59790000
v -12.32800000 61.70410000 -52.47660000
v -14.23990000 60.05810000 -52.59790000
v -14.23990000 60.05810000 -52.47660000
v -14.57930000 59.70750000 -52.59790000
v -14.57930000 59.70750000 -52.47660000
v -14.89430000 59.35160000 -52.59790000
v -14.89430000 59.35160000 -52.47660000
v -15.19780000 58.99410000 -52.59790000
v -15.19780000 58.99410000 -52.47660000
v -15.50270000 58.63910000 -52.59790000
v -15.50270000 58.63910000 -52.47660000
v -15.82190000 58.29010000 -52.59790000
v -15.82190000 58.29010000 -52.47660000
v -16.16830000 57.95120000 -52.59790000
v -16.16830000 57.95120000 -52.47660000
v -16.55480000 57.62610000 -52.59790000
v -16.55480000 57.62610000 -52.47660000
v -17.14920000 57.14130000 -52.59790000
v -17.14920000 57.14130000 -52.47660000
v -17.89360000 56.47830000 -52.59790000
v -17.89360000 56.47830000 -52.47660000
v -18.69940000 55.69110000 -52.59790000
v -18.69940000 55.69110000 -52.47660000
v -19.47780000 54.83390000 -52.59790000
v -19.47780000 54.83390000 -52.47660000
v -20.14040000 53.96050000 -52.59790000
v -20.14040000 53.96050000 -52.47660000
v -20.59850000 53.12500000 -52.59790000
v -20.59850000 53.12500000 -52.47660000
v -20.76340000 52.38150000 -52.59790000
v -20.76340000 52.38150000 -52.47660000
v -20.72840000 52.16160000 -52.59790000
v -20.72840000 52.16160000 -52.47660000
v -20.64030000 51.93100000 -52.59790000
v -20.64030000 51.93100000 -52.47660000
v -20.51390000 51.69700000 -52.59790000
v -20.51390000 51.69700000 -52.47660000
v -20.36420000 51.46750000 -52.59790000
v -20.36420000 51.46750000 -52.47660000
v -20.20610000 51.24980000 -52.59790000
v -20.20610000 51.24980000 -52.47660000
v -20.05450000 51.05170000 -52.59790000
v -20.05450000 51.05170000 -52.47660000
v -19.92430000 50.88070000 -52.59790000
v -19.92430000 50.88070000 -52.47660000
v -19.13050000 49.79680000 -52.59790000
v -19.13050000 49.79680000 -52.47660000
v -18.42720000 48.83210000 -52.59790000
v -18.42720000 48.83210000 -52.47660000
v -17.76680000 47.94480000 -52.59790000
v -17.76680000 47.94480000 -52.47660000
v -17.10140000 47.09350000 -52.59790000
v -17.10140000 47.09350000 -52.47660000
v -16.38350000 46.23650000 -52.59790000
v -16.38350000 46.23650000 -52.47660000
v -15.56510000 45.33220000 -52.59790000
v -15.56510000 45.33220000 -52.47660000
v -14.59860000 44.33900000 -52.59790000
v -14.59860000 44.33900000 -52.47660000
v -13.91610000 43.74640000 -52.59790000
v -13.91610000 43.74640000 -52.47660000
v -13.39980000 43.47190000 -52.59790000
v -13.39980000 43.47190000 -52.47660000
v -12.98860000 43.42340000 -52.59790000
v -12.98860000 43.42340000 -52.47660000
v -12.62130000 43.50860000 -52.59790000
v -12.62130000 43.50860000 -52.47660000
v -12.23680000 43.63530000 -52.59790000
v -12.23680000 43.63530000 -52.47660000
v -11.77400000 43.71150000 -52.59790000
v -11.77400000 43.71150000 -52.47660000
v -11.17170000 43.64490000 -52.59790000
v -11.17170000 43.64490000 -52.47660000
v -11.16680000 43.47170000 -52.59790000
v -11.16680000 43.47170000 -52.47660000
v -11.17540000 43.32030000 -52.59790000
v -11.17540000 43.32030000 -52.47660000
v -11.19130000 43.18450000 -52.59790000
v -11.19130000 43.18450000 -52.47660000
v -11.20850000 43.05820000 -52.59790000
v -11.20850000 43.05820000 -52.47660000
v -11.22090000 42.93510000 -52.59790000
v -11.22090000 42.93510000 -52.47660000
v -11.22230000 42.80940000 -52.59790000
v -11.22230000 42.80940000 -52.47660000
v -11.20660000 42.67460000 -52.59790000
v -11.20660000 42.67460000 -52.47660000
v -11.18380000 42.53990000 -52.59790000
v -11.18380000 42.53990000 -52.47660000
v -11.17480000 42.46960000 -52.59790000
v -11.17480000 42.46960000 -52.47660000
v -11.17170000 42.44280000 -52.59790000
v -11.17170000 42.44280000 -52.47660000
v -11.16670000 42.43890000 -52.59790000
v -11.16670000 42.43890000 -52.47660000
v -11.15200000 42.43680000 -52.59790000
v -11.15200000 42.43680000 -52.47660000
v -11.11960000 42.41580000 -52.59790000
v -11.11960000 42.41580000 -52.47660000
v -11.06170000 42.35490000 -52.59790000
v -11.06170000 42.35490000 -52.47660000
v -11.06560000 41.48140000 -52.59790000
v -11.06560000 41.48140000 -52.47660000
v -11.06570000 40.94090000 -52.59790000
v -11.06570000 40.94090000 -52.47660000
v -11.06120000 40.43260000 -52.59790000
v -11.06120000 40.43260000 -52.47660000
v -11.04440000 39.94830000 -52.59790000
v -11.04440000 39.94830000 -52.47660000
v -11.00780000 39.48020000 -52.59790000
v -11.00780000 39.48020000 -52.47660000
v -10.94360000 39.01990000 -52.59790000
v -10.94360000 39.01990000 -52.47660000
v -10.84430000 38.55940000 -52.59790000
v -10.84430000 38.55940000 -52.47660000
v -10.70230000 38.09060000 -52.59790000
v -10.70230000 38.09060000 -52.47660000
v -10.50580000 37.33360000 -52.59790000
v -10.50580000 37.33360000 -52.47660000
v -10.32700000 36.31060000 -52.59790000
v -10.32700000 36.31060000 -52.47660000
v -10.15870000 35.10690000 -52.59790000
v -10.15870000 35.10690000 -52.47660000
v -9.99360000 33.80800000 -52.59790000
v -9.99360000 33.80800000 -52.47660000
v -9.82450000 32.49930000 -52.59790000
v -9.82450000 32.49930000 -52.47660000
v -9.64420000 31.26630000 -52.59790000
v -9.64420000 31.26630000 -52.47660000
v -9.44540000 30.19430000 -52.59790000
v -9.44540000 30.19430000 -52.47660000
v -9.00230000 28.70170000 -52.59790000
v -9.00230000 28.70170000 -52.47660000
v -8.97180000 28.08460000 -52.59790000
v -8.97180000 28.08460000 -52.47660000
v -8.77910000 27.24270000 -52.59790000
v -8.77910000 27.24270000 -52.47660000
v -8.47300000 26.26270000 -52.59790000
v -8.47300000 26.26270000 -52.47660000
v -8.10260000 25.23150000 -52.59790000
v -8.10260000 25.23150000 -52.47660000
v -7.71670000 24.23600000 -52.59790000
v -7.71670000 24.23600000 -52.47660000
v -7.36440000 23.36280000 -52.59790000
v -7.36440000 23.36280000 -52.47660000
v -7.09450000 22.69890000 -52.59790000
v -7.09450000 22.69890000 -52.47660000
v -6.98510000 22.40460000 -52.59790000
v -6.98510000 22.40460000 -52.47660000
v -6.89010000 22.11180000 -52.59790000
v -6.89010000 22.11180000 -52.47660000
v -6.80490000 21.81970000 -52.59790000
v -6.80490000 21.81970000 -52.47660000
v -6.72470000 21.52740000 -52.59790000
v -6.72470000 21.52740000 -52.47660000
v -6.64490000 21.23410000 -52.59790000
v -6.64490000 21.23410000 -52.47660000
v -6.56070000 20.93890000 -52.59790000
v -6.56070000 20.93890000 -52.47660000
v -6.46770000 20.64100000 -52.59790000
v -6.46770000 20.64100000 -52.47660000
v -6.33510000 20.32930000 -52.59790000
v -6.33510000 20.32930000 -52.47660000
v -6.13640000 19.95410000 -52.59790000
v -6.13640000 19.95410000 -52.47660000
v -5.90020000 19.53920000 -52.59790000
v -5.90020000 19.53920000 -52.47660000
v -5.65490000 19.10850000 -52.59790000
v -5.65490000 19.10850000 -52.47660000
v -5.42910000 18.68570000 -52.59790000
v -5.42910000 18.68570000 -52.47660000
v -5.25130000 18.29460000 -52.59790000
v -5.25130000 18.29460000 -52.47660000
v -5.14990000 17.95900000 -52.59790000
v -5.14990000 17.95900000 -52.47660000
v -5.09000000 17.66740000 -52.59790000
v -5.09000000 17.66740000 -52.47660000
v -5.03750000 17.50340000 -52.59790000
v -5.03750000 17.50340000 -52.47660000
v -4.98520000 17.42370000 -52.59790000
v -4.98520000 17.42370000 -52.47660000
v -4.92590000 17.38500000 -52.59790000
v -4.92590000 17.38500000 -52.47660000
v -4.85220000 17.34410000 -52.59790000
v -4.85220000 17.34410000 -52.47660000
v -4.75690000 17.25750000 -52.59790000
v -4.75690000 17.25750000 -52.47660000
v -4.63280000 17.08200000 -52.59790000
v -4.63280000 17.08200000 -52.47660000
v -4.49820000 16.61250000 -52.59790000
v -4.49820000 16.61250000 -52.47660000
v -4.43070000 15.86740000 -52.59790000
v -4.43070000 15.86740000 -52.47660000
v -4.40910000 14.96780000 -52.59790000
v -4.40910000 14.96780000 -52.47660000
v -4.41230000 14.03480000 -52.59790000
v -4.41230000 14.03480000 -52.47660000
v -4.41890000 13.18950000 -52.59790000
v -4.41890000 13.18950000 -52.47660000
v -4.40780000 12.55310000 -52.59790000
v -4.40780000 12.55310000 -52.47660000
v -4.35780000 12.24670000 -52.59790000
v -4.35780000 12.24670000 -52.47660000
v -4.31530000 11.52460000 -52.59790000
v -4.31530000 11.52460000 -52.47660000
v -4.34050000 10.94400000 -52.59790000
v -4.34050000 10.94400000 -52.47660000
v -4.42070000 10.46910000 -52.59790000
v -4.42070000 10.46910000 -52.47660000
v -4.54320000 10.06390000 -52.59790000
v -4.54320000 10.06390000 -52.47660000
v -4.69520000 9.69270000 -52.59790000
v -4.69520000 9.69270000 -52.47660000
v -4.86380000 9.31940000 -52.59790000
v -4.86380000 9.31940000 -52.47660000
v -5.03650000 8.90830000 -52.59790000
v -5.03650000 8.90830000 -52.47660000
v -5.11450000 8.52020000 -52.59790000
v -5.11450000 8.52020000 -52.47660000
v -5.18860000 7.84160000 -52.59790000
v -5.18860000 7.84160000 -52.47660000
v -5.26840000 6.95500000 -52.59790000
v -5.26840000 6.95500000 -52.47660000
v -5.36360000 5.94300000 -52.59790000
v -5.36360000 5.94300000 -52.47660000
v -5.48380000 4.88800000 -52.59790000
v -5.48380000 4.88800000 -52.47660000
v -5.63850000 3.87230000 -52.59790000
v -5.63850000 3.87230000 -52.47660000
v -17.37680000 52.67290000 -52.59790000
v -17.24720000 52.80920000 -52.59790000
v -17.24720000 52.80920000 -52.47660000
v -17.37680000 52.67290000 -52.47660000
v -17.09020000 52.95890000 -52.59790000
v -17.09020000 52.95890000 -52.47660000
v -16.91460000 53.11650000 -52.59790000
v -16.91460000 53.11650000 -52.47660000
v -16.72940000 53.27660000 -52.59790000
v -16.72940000 53.27660000 -52.47660000
v -16.54360000 53.43360000 -52.59790000
v -16.54360000 53.43360000 -52.47660000
v -16.36610000 53.58200000 -52.59790000
v -16.36610000 53.58200000 -52.47660000
v -16.20580000 53.71640000 -52.59790000
v -16.20580000 53.71640000 -52.47660000
v -16.00470000 53.88720000 -52.59790000
v -16.00470000 53.88720000 -52.47660000
v -15.82290000 54.04410000 -52.59790000
v -15.82290000 54.04410000 -52.47660000
v -15.65390000 54.19410000 -52.59790000
v -15.65390000 54.19410000 -52.47660000
v -15.49120000 54.34380000 -52.59790000
v -15.49120000 54.34380000 -52.47660000
v -15.32850000 54.50020000 -52.59790000
v -15.32850000 54.50020000 -52.47660000
v -15.15910000 54.66990000 -52.59790000
v -15.15910000 54.66990000 -52.47660000
v -14.97660000 54.85980000 -52.59790000
v -14.97660000 54.85980000 -52.47660000
v -14.65010000 55.19450000 -52.59790000
v -14.65010000 55.19450000 -52.47660000
v -14.31680000 55.51340000 -52.59790000
v -14.31680000 55.51340000 -52.47660000
v -13.97210000 55.81990000 -52.59790000
v -13.97210000 55.81990000 -52.47660000
v -13.61130000 56.11750000 -52.59790000
v -13.61130000 56.11750000 -52.47660000
v -13.22970000 56.40970000 -52.59790000
v -13.22970000 56.40970000 -52.47660000
v -12.82250000 56.69970000 -52.59790000
v -12.82250000 56.69970000 -52.47660000
v -12.38510000 56.99120000 -52.59790000
v -12.38510000 56.99120000 -52.47660000
v -12.09430000 56.80600000 -52.59790000
v -12.09430000 56.80600000 -52.47660000
v -11.94390000 56.67950000 -52.59790000
v -11.94390000 56.67950000 -52.47660000
v -11.80020000 56.48540000 -52.59790000
v -11.80020000 56.48540000 -52.47660000
v -11.66670000 56.24270000 -52.59790000
v -11.66670000 56.24270000 -52.47660000
v -11.54700000 55.97070000 -52.59790000
v -11.54700000 55.97070000 -52.47660000
v -11.44480000 55.68860000 -52.59790000
v -11.44480000 55.68860000 -52.47660000
v -11.36370000 55.41530000 -52.59790000
v -11.36370000 55.41530000 -52.47660000
v -11.30720000 55.17020000 -52.59790000
v -11.30720000 55.17020000 -52.47660000
v -11.25410000 54.86610000 -52.59790000
v -11.25410000 54.86610000 -52.47660000
v -11.20780000 54.54970000 -52.59790000
v -11.20780000 54.54970000 -52.47660000
v -11.16860000 54.22470000 -52.59790000
v -11.16860000 54.22470000 -52.47660000
v -11.13640000 53.89520000 -52.59790000
v -11.13640000 53.89520000 -52.47660000
v -11.11140000 53.56500000 -52.59790000
v -11.11140000 53.56500000 -52.47660000
v -11.09380000 53.23790000 -52.59790000
v -11.09380000 53.23790000 -52.47660000
v -11.08370000 52.91790000 -52.59790000
v -11.08370000 52.91790000 -52.47660000
v -11.05690000 52.35560000 -52.59790000
v -11.05690000 52.35560000 -52.47660000
v -11.00560000 51.66810000 -52.59790000
v -11.00560000 51.66810000 -52.47660000
v -10.94400000 50.91110000 -52.59790000
v -10.94400000 50.91110000 -52.47660000
v -10.88650000 50.14040000 -52.59790000
v -10.88650000 50.14040000 -52.47660000
v -10.84730000 49.41170000 -52.59790000
v -10.84730000 49.41170000 -52.47660000
v -10.84070000 48.78070000 -52.59790000
v -10.84070000 48.78070000 -52.47660000
v -10.88090000 48.30340000 -52.59790000
v -10.88090000 48.30340000 -52.47660000
v -10.88760000 46.66020000 -52.59790000
v -10.88760000 46.66020000 -52.47660000
v -11.12910000 46.47670000 -52.59790000
v -11.12910000 46.47670000 -52.47660000
v -11.42820000 46.26710000 -52.59790000
v -11.42820000 46.26710000 -52.47660000
v -11.76890000 46.06270000 -52.59790000
v -11.76890000 46.06270000 -52.47660000
v -12.13480000 45.89440000 -52.59790000
v -12.13480000 45.89440000 -52.47660000
v -12.51020000 45.79340000 -52.59790000
v -12.51020000 45.79340000 -52.47660000
v -12.87870000 45.79070000 -52.59790000
v -12.87870000 45.79070000 -52.47660000
v -13.22430000 45.91750000 -52.59790000
v -13.22430000 45.91750000 -52.47660000
v -13.37230000 46.02680000 -52.59790000
v -13.37230000 46.02680000 -52.47660000
v -13.50980000 46.16010000 -52.59790000
v -13.50980000 46.16010000 -52.47660000
v -13.63870000 46.30870000 -52.59790000
v -13.63870000 46.30870000 -52.47660000
v -13.76060000 46.46420000 -52.59790000
v -13.76060000 46.46420000 -52.47660000
v -13.87730000 46.61770000 -52.59790000
v -13.87730000 46.61770000 -52.47660000
v -13.99080000 46.76080000 -52.59790000
v -13.99080000 46.76080000 -52.47660000
v -14.10280000 46.88480000 -52.59790000
v -14.10280000 46.88480000 -52.47660000
v -14.26580000 47.04650000 -52.59790000
v -14.26580000 47.04650000 -52.47660000
v -14.40410000 47.18270000 -52.59790000
v -14.40410000 47.18270000 -52.47660000
v -14.52540000 47.30330000 -52.59790000
v -14.52540000 47.30330000 -52.47660000
v -14.63730000 47.41810000 -52.59790000
v -14.63730000 47.41810000 -52.47660000
v -14.74770000 47.53690000 -52.59790000
v -14.74770000 47.53690000 -52.47660000
v -14.86430000 47.66960000 -52.59790000
v -14.86430000 47.66960000 -52.47660000
v -14.99490000 47.82610000 -52.59790000
v -14.99490000 47.82610000 -52.47660000
v -15.30330000 48.24950000 -52.59790000
v -15.30330000 48.24950000 -52.47660000
v -15.72300000 48.89600000 -52.59790000
v -15.72300000 48.89600000 -52.47660000
v -16.19360000 49.68570000 -52.59790000
v -16.19360000 49.68570000 -52.47660000
v -16.65470000 50.53840000 -52.59790000
v -16.65470000 50.53840000 -52.47660000
v -17.04590000 51.37390000 -52.59790000
v -17.04590000 51.37390000 -52.47660000
v -17.30670000 52.11210000 -52.59790000
v -17.30670000 52.11210000 -52.47660000
v -0.52190000 48.89320000 -52.59790000
v -0.75960000 49.03340000 -52.59790000
v -0.75960000 49.03340000 -52.47660000
v -0.52190000 48.89320000 -52.47660000
v -0.75870000 49.27760000 -52.59790000
v -0.75870000 49.27760000 -52.47660000
v -0.73600000 49.42500000 -52.59790000
v -0.73600000 49.42500000 -52.47660000
v -0.69790000 49.51280000 -52.59790000
v -0.69790000 49.51280000 -52.47660000
v -0.65060000 49.57800000 -52.59790000
v -0.65060000 49.57800000 -52.47660000
v -0.60060000 49.65780000 -52.59790000
v -0.60060000 49.65780000 -52.47660000
v -0.55410000 49.78920000 -52.59790000
v -0.55410000 49.78920000 -52.47660000
v -0.51750000 50.00930000 -52.59790000
v -0.51750000 50.00930000 -52.47660000
v -0.50700000 50.19980000 -52.59790000
v -0.50700000 50.19980000 -52.47660000
v -0.51560000 50.36100000 -52.59790000
v -0.51560000 50.36100000 -52.47660000
v -0.53640000 50.50260000 -52.59790000
v -0.53640000 50.50260000 -52.47660000
v -0.56260000 50.63480000 -52.59790000
v -0.56260000 50.63480000 -52.47660000
v -0.58720000 50.76730000 -52.59790000
v -0.58720000 50.76730000 -52.47660000
v -0.60360000 50.91000000 -52.59790000
v -0.60360000 50.91000000 -52.47660000
v -0.60480000 51.07280000 -52.59790000
v -0.60480000 51.07280000 -52.47660000
v -0.59100000 51.21390000 -52.59790000
v -0.59100000 51.21390000 -52.47660000
v -0.56690000 51.34240000 -52.59790000
v -0.56690000 51.34240000 -52.47660000
v -0.53680000 51.46570000 -52.59790000
v -0.53680000 51.46570000 -52.47660000
v -0.50490000 51.59120000 -52.59790000
v -0.50490000 51.59120000 -52.47660000
v -0.47530000 51.72610000 -52.59790000
v -0.47530000 51.72610000 -52.47660000
v -0.45240000 51.87810000 -52.59790000
v -0.45240000 51.87810000 -52.47660000
v -0.44030000 52.05430000 -52.59790000
v -0.44030000 52.05430000 -52.47660000
v -0.40020000 53.13680000 -52.59790000
v -0.40020000 53.13680000 -52.47660000
v -0.31690000 53.56970000 -52.59790000
v -0.31690000 53.56970000 -52.47660000
v -0.14320000 54.03160000 -52.59790000
v -0.14320000 54.03160000 -52.47660000
v 0.10560000 54.48930000 -52.59790000
v 0.10560000 54.48930000 -52.47660000
v 0.41470000 54.90970000 -52.59790000
v 0.41470000 54.90970000 -52.47660000
v 0.76890000 55.25940000 -52.59790000
v 0.76890000 55.25940000 -52.47660000
v 1.15320000 55.50550000 -52.59790000
v 1.15320000 55.50550000 -52.47660000
v 1.55250000 55.61450000 -52.59790000
v 1.55250000 55.61450000 -52.47660000
v 1.86860000 55.74920000 -52.59790000
v 1.86860000 55.74920000 -52.47660000
v 2.16700000 55.76670000 -52.59790000
v 2.16700000 55.76670000 -52.47660000
v 2.44660000 55.69450000 -52.59790000
v 2.44660000 55.69450000 -52.47660000
v 2.70630000 55.56060000 -52.59790000
v 2.70630000 55.56060000 -52.47660000
v 2.94490000 55.39250000 -52.59790000
v 2.94490000 55.39250000 -52.47660000
v 3.16130000 55.21800000 -52.59790000
v 3.16130000 55.21800000 -52.47660000
v 3.35440000 55.06470000 -52.59790000
v 3.35440000 55.06470000 -52.47660000
v 3.60120000 54.88240000 -52.59790000
v 3.60120000 54.88240000 -52.47660000
v 3.80930000 54.72630000 -52.59790000
v 3.80930000 54.72630000 -52.47660000
v 3.99120000 54.58490000 -52.59790000
v 3.99120000 54.58490000 -52.47660000
v 4.15950000 54.44670000 -52.59790000
v 4.15950000 54.44670000 -52.47660000
v 4.32690000 54.30040000 -52.59790000
v 4.32690000 54.30040000 -52.47660000
v 4.50580000 54.13450000 -52.59790000
v 4.50580000 54.13450000 -52.47660000
v 4.70900000 53.93770000 -52.59790000
v 4.70900000 53.93770000 -52.47660000
v 4.96280000 53.68110000 -52.59790000
v 4.96280000 53.68110000 -52.47660000
v 5.33400000 53.29610000 -52.59790000
v 5.33400000 53.29610000 -52.47660000
v 5.76940000 52.83550000 -52.59790000
v 5.76940000 52.83550000 -52.47660000
v 6.21560000 52.35260000 -52.59790000
v 6.21560000 52.35260000 -52.47660000
v 6.61940000 51.90020000 -52.59790000
v 6.61940000 51.90020000 -52.47660000
v 6.92760000 51.53140000 -52.59790000
v 6.92760000 51.53140000 -52.47660000
v 7.08680000 51.29930000 -52.59790000
v 7.08680000 51.29930000 -52.47660000
v 7.06340000 51.11750000 -52.59790000
v 7.06340000 51.11750000 -52.47660000
v 6.96280000 50.90770000 -52.59790000
v 6.96280000 50.90770000 -52.47660000
v 6.80850000 50.68430000 -52.59790000
v 6.80850000 50.68430000 -52.47660000
v 6.62390000 50.46170000 -52.59790000
v 6.62390000 50.46170000 -52.47660000
v 6.43260000 50.25420000 -52.59790000
v 6.43260000 50.25420000 -52.47660000
v 6.25790000 50.07630000 -52.59790000
v 6.25790000 50.07630000 -52.47660000
v 6.12350000 49.94230000 -52.59790000
v 6.12350000 49.94230000 -52.47660000
v 5.62420000 49.42230000 -52.59790000
v 5.62420000 49.42230000 -52.47660000
v 5.30820000 49.06850000 -52.59790000
v 5.30820000 49.06850000 -52.47660000
v 5.09150000 48.81720000 -52.59790000
v 5.09150000 48.81720000 -52.47660000
v 4.88990000 48.60490000 -52.59790000
v 4.88990000 48.60490000 -52.47660000
v 4.61920000 48.36820000 -52.59790000
v 4.61920000 48.36820000 -52.47660000
v 4.19550000 48.04360000 -52.59790000
v 4.19550000 48.04360000 -52.47660000
v 3.53440000 47.56750000 -52.59790000
v 3.53440000 47.56750000 -52.47660000
v 2.73990000 47.03630000 -52.59790000
v 2.73990000 47.03630000 -52.47660000
v 2.21440000 46.76630000 -52.59790000
v 2.21440000 46.76630000 -52.47660000
v 1.88350000 46.71260000 -52.59790000
v 1.88350000 46.71260000 -52.47660000
v 1.67280000 46.83060000 -52.59790000
v 1.67280000 46.83060000 -52.47660000
v 1.50790000 47.07530000 -52.59790000
v 1.50790000 47.07530000 -52.47660000
v 1.31420000 47.40210000 -52.59790000
v 1.31420000 47.40210000 -52.47660000
v 1.01740000 47.76610000 -52.59790000
v 1.01740000 47.76610000 -52.47660000
v 0.83210000 47.93690000 -52.59790000
v 0.83210000 47.93690000 -52.47660000
v 0.67500000 48.05360000 -52.59790000
v 0.67500000 48.05360000 -52.47660000
v 0.52850000 48.13000000 -52.59790000
v 0.52850000 48.13000000 -52.47660000
v 0.37520000 48.17960000 -52.59790000
v 0.37520000 48.17960000 -52.47660000
v 0.19720000 48.21610000 -52.59790000
v 0.19720000 48.21610000 -52.47660000
v -0.02300000 48.25290000 -52.59790000
v -0.02300000 48.25290000 -52.47660000
v -0.30300000 48.30380000 -52.59790000
v -0.30300000 48.30380000 -52.47660000
v -0.38260000 48.61050000 -52.59790000
v -0.38260000 48.61050000 -52.47660000
v -0.42230000 48.70120000 -52.59790000
v -0.42230000 48.70120000 -52.47660000
f 1 2 3
f 3 4 1
f 2 5 6
f 6 3 2
f 5 7 8
f 8 6 5
f 7 9 10
f 10 8 7
f 9 11 12
f 12 10 9
f 11 13 14
f 14 12 11
f 13 15 16
f 16 14 13
f 15 17 18
f 18 16 15
f 17 19 20
f 20 18 17
f 19 21 22
f 22 20 19
f 21 23 24
f 24 22 21
f 23 25 26
f 26 24 23
f 25 27 28
f 28 26 25
f 27 29 30
f 30 28 27
f 29 31 32
f 32 30 29
f 31 33 34
f 34 32 31
f 33 35 36
f 36 34 33
f 35 37 38
f 38 36 35
f 37 39 40
f 40 38 37
f 39 41 42
f 42 40 39
f 41 43 44
f 44 42 41
f 43 45 46
f 46 44 43
f 45 47 48
f 48 46 45
f 47 49 50
f 50 48 47
f 49 51 52
f 52 50 49
f 51 53 54
f 54 52 51
f 53 55 56
f 56 54 53
f 55 57 58
f 58 56 55
f 57 59 60
f 60 58 57
f 59 61 62
f 62 60 59
f 61 63 64
f 64 62 61
f 63 65 66
f 66 64 63
f 65 67 68
f 68 66 65
f 67 69 70
f 70 68 67
f 69 71 72
f 72 70 69
f 71 73 74
f 74 72 71
f 73 75 76
f 76 74 73
f 75 77 78
f 78 76 75
f 77 79 80
f 80 78 77
f 79 81 82
f 82 80 79
f 81 83 84
f 84 82 81
f 83 85 86
f 86 84 83
f 85 87 88
f 88 86 85
f 87 89 90
f 90 88 87
f 89 91 92
f 92 90 89
f 91 93 94
f 94 92 91
f 93 95 96
f 96 94 93
f 95 97 98
f 98 96 95
f 97 99 100
f 100 98 97
f 99 101 102
f 102 100 99
f 101 103 104
f 104 102 101
f 103 105 106
f 106 104 103
f 105 107 108
f 108 106 105
f 107 109 110
f 110 108 107
f 109 111 112
f 112 110 109
f 111 113 114
f 114 112 111
f 113 115 116
f 116 114 113
f 115 117 118
f 118 116 115
f 117 119 120
f 120 118 117
f 119 121 122
f 122 120 119
f 121 123 124
f 124 122 121
f 123 125 126
f 126 124 123
f 125 127 128
f 128 126 125
f 127 129 130
f 130 128 127
f 129 131 132
f 132 130 129
f 131 133 134
f 134 132 131
f 133 135 136
f 136 134 133
f 135 137 138
f 138 136 135
f 137 139 140
f 140 138 137
f 139 141 142
f 142 140 139
f 141 143 144
f 144 142 141
f 143 145 146
f 146 144 143
f 145 147 148
f 148 146 145
f 147 149 150
f 150 148 147
f 149 151 152
f 152 150 149
f 151 153 154
f 154 152 151
f 153 155 156
f 156 154 153
f 155 157 158
f 158 156 155
f 157 159 160
f 160 158 157
f 159 161 162
f 162 160 159
f 161 163 164
f 164 162 161
f 163 165 166
f 166 164 163
f 165 167 168
f 168 166 165
f 167 169 170
f 170 168 167
f 169 171 172
f 172 170 169
f 171 173 174
f 174 172 171
f 173 175 176
f 176 174 173
f 175 177 178
f 178 176 175
f 177 179 180
f 180 178 177
f 179 181 182
f 182 180 179
f 181 183 184
f 184 182 181
f 183 185 186
f 186 184 183
f 185 187 188
f 188 186 185
f 187 189 190
f 190 188 187
f 189 191 192
f 192 190 189
f 191 193 194
f 194 192 191
f 193 195 196
f 196 194 193
f 195 197 198
f 198 196 195
f 197 199 200
f 200 198 197
f 199 201 202
f 202 200 199
f 201 203 204
f 204 202 201
f 203 205 206
f 206 204 203
f 205 207 208
f 208 206 205
f 207 209 210
f 210 208 207
f 209 211 212
f 212 210 209
f 211 213 214
f 214 212 211
f 213 215 216
f 216 214 213
f 215 217 218
f 218 216 215
f 217 219 220
f 220 218 217
f 219 221 222
f 222 220 219
f 221 223 224
f 224 222 221
f 223 225 226
f 226 224 223
f 225 227 228
f 228 226 225
f 227 229 230
f 230 228 227
f 229 231 232
f 232 230 229
f 231 233 234
f 234 232 231
f 233 235 236
f 236 234 233
f 235 237 238
f 238 236 235
f 237 239 240
f 240 238 237
f 239 241 242
f 242 240 239
f 241 243 244
f 244 242 241
f 243 245 246
f 246 244 243
f 245 247 248
f 248 246 245
f 247 249 250
f 250 248 247
f 249 251 252
f 252 250 249
f 251 253 254
f 254 252 251
f 253 255 256
f 256 254 253
f 255 257 258
f 258 256 255
f 257 259 260
f 260 258 257
f 259 261 262
f 262 260 259
f 261 263 264
f 264 262 261
f 263 265 266
f 266 264 263
f 265 267 268
f 268 266 265
f 267 269 270
f 270 268 267
f 269 271 272
f 272 270 269
f 271 273 274
f 274 272 271
f 273 275 276
f 276 274 273
f 275 277 278
f 278 276 275
f 277 279 280
f 280 278 277
f 279 281 282
f 282 280 279
f 281 283 284
f 284 282 281
f 283 285 286
f 286 284 283
f 285 287 288
f 288 286 285
f 287 289 290
f 290 288 287
f 289 291 292
f 292 290 289
f 291 293 294
f 294 292 291
f 293 295 296
f 296 294 293
f 295 297 298
f 298 296 295
f 297 299 300
f 300 298 297
f 299 301 302
f 302 300 299
f 301 303 304
f 304 302 301
f 303 305 306
f 306 304 303
f 305 307 308
f 308 306 305
f 307 309 310
f 310 308 307
f 309 311 312
f 312 310 309
f 311 313 314
f 314 312 311
f 313 315 316
f 316 314 313
f 315 317 318
f 318 316 315
f 317 319 320
f 320 318 317
f 319 321 322
f 322 320 319
f 321 323 324
f 324 322 321
f 323 325 326
f 326 324 323
f 325 327 328
f 328 326 325
f 327 329 330
f 330 328 327
f 329 331 332
f 332 330 329
f 331 333 334
f 334 332 331
f 333 335 336
f 336 334 333
f 335 337 338
f 338 336 335
f 337 339 340
f 340 338 337
f 339 341 342
f 342 340 339
f 341 343 344
f 344 342 341
f 343 345 346
f 346 344 343
f 345 347 348
f 348 346 345
f 347 349 350
f 350 348 347
f 349 351 352
f 352 350 349
f 351 353 354
f 354 352 351
f 353 355 356
f 356 354 353
f 355 357 358
f 358 356 355
f 357 359 360
f 360 358 357
f 359 361 362
f 362 360 359
f 361 363 364
f 364 362 361
f 363 365 366
f 366 364 363
f 365 367 368
f 368 366 365
f 367 369 370
f 370 368 367
f 369 371 372
f 372 370 369
f 371 373 374
f 374 372 371
f 373 375 376
f 376 374 373
f 375 377 378
f 378 376 375
f 377 379 380
f 380 378 377
f 379 381 382
f 382 380 379
f 381 383 384
f 384 382 381
f 383 385 386
f 386 384 383
f 385 387 388
f 388 386 385
f 387 389 390
f 390 388 387
f 389 391 392
f 392 390 389
f 391 393 394
f 394 392 391
f 393 395 396
f 396 394 393
f 395 397 398
f 398 396 395
f 397 399 400
f 400 398 397
f 399 401 402
f 402 400 399
f 401 403 404
f 404 402 401
f 403 405 406
f 406 404 403
f 405 407 408
f 408 406 405
f 407 409 410
f 410 408 407
f 409 411 412
f 412 410 409
f 411 413 414
f 414 412 411
f 413 415 416
f 416 414 413
f 415 417 418
f 418 416 415
f 417 419 420
f 420 418 417
f 419 421 422
f 422 420 419
f 421 423 424
f 424 422 421
f 423 425 426
f 426 424 423
f 425 427 428
f 428 426 425
f 427 429 430
f 430 428 427
f 429 431 432
f 432 430 429
f 431 433 434
f 434 432 431
f 433 435 436
f 436 434 433
f 435 437 438
f 438 436 435
f 437 439 440
f 440 438 437
f 439 441 442
f 442 440 439
f 441 443 444
f 444 442 441
f 443 445 446
f 446 444 443
f 445 447 448
f 448 446 445
f 447 449 450
f 450 448 447
f 449 451 452
f 452 450 449
f 451 453 454
f 454 452 451
f 453 455 456
f 456 454 453
f 455 457 458
f 458 456 455
f 457 459 460
f 460 458 457
f 459 461 462
f 462 460 459
f 461 463 464
f 464 462 461
f 463 465 466
f 466 464 463
f 465 467 468
f 468 466 465
f 467 469 470
f 470 468 467
f 469 471 472
f 472 470 469
f 471 473 474
f 474 472 471
f 473 475 476
f 476 474 473
f 475 477 478
f 478 476 475
f 477 479 480
f 480 478 477
f 479 481 482
f 482 480 479
f 481 483 484
f 484 482 481
f 483 485 486
f 486 484 483
f 485 487 488
f 488 486 485
f 487 489 490
f 490 488 487
f 489 491 492
f 492 490 489
f 491 493 494
f 494 492 491
f 493 495 496
f 496 494 493
f 495 497 498
f 498 496 495
f 497 499 500
f 500 498 497
f 499 501 502
f 502 500 499
f 501 503 504
f 504 502 501
f 503 505 506
f 506 504 503
f 505 507 508
f 508 506 505
f 507 509 510
f 510 508 507
f 509 511 512
f 512 510 509
f 511 513 514
f 514 512 511
f 513 515 516
f 516 514 513
f 515 517 518
f 518 516 515
f 517 519 520
f 520 518 517
f 519 521 522
f 522 520 519
f 521 523 524
f 524 522 521
f 523 525 526
f 526 524 523
f 525 527 528
f 528 526 525
f 527 529 530
f 530 528 527
f 529 531 532
f 532 530 529
f 531 533 534
f 534 532 531
f 533 535 536
f 536 534 533
f 535 537 538
f 538 536 535
f 537 539 540
f 540 538 537
f 539 541 542
f 542 540 539
f 541 543 544
f 544 542 541
f 543 545 546
f 546 544 543
f 545 547 548
f 548 546 545
f 547 549 550
f 550 548 547
f 549 551 552
f 552 550 549
f 551 553 554
f 554 552 551
f 553 555 556
f 556 554 553
f 555 557 558
f 558 556 555
f 557 559 560
f 560 558 557
f 559 561 562
f 562 560 559
f 561 563 564
f 564 562 561
f 563 565 566
f 566 564 563
f 565 567 568
f 568 566 565
f 567 569 570
f 570 568 567
f 569 571 572
f 572 570 569
f 571 573 574
f 574 572 571
f 573 575 576
f 576 574 573
f 575 577 578
f 578 576 575
f 577 579 580
f 580 578 577
f 579 581 582
f 582 580 579
f 581 583 584
f 584 582 581
f 583 585 586
f 586 584 583
f 585 587 588
f 588 586 585
f 587 589 590
f 590 588 587
f 589 591 592
f 592 590 589
f 591 593 594
f 594 592 591
f 593 595 596
f 596 594 593
f 595 597 598
f 598 596 595
f 597 599 600
f 600 598 597
f 599 601 602
f 602 600 599
f 601 603 604
f 604 602 601
f 603 605 606
f 606 604 603
f 605 607 608
f 608 606 605
f 607 609 610
f 610 608 607
f 609 611 612
f 612 610 609
f 611 613 614
f 614 612 611
f 613 615 616
f 616 614 613
f 615 617 618
f 618 616 615
f 617 619 620
f 620 618 617
f 619 621 622
f 622 620 619
f 621 623 624
f 624 622 621
f 623 625 626
f 626 624 623
f 625 627 628
f 628 626 625
f 627 629 630
f 630 628 627
f 629 631 632
f 632 630 629
f 631 633 634
f 634 632 631
f 633 635 636
f 636 634 633
f 635 637 638
f 638 636 635
f 637 639 640
f 640 638 637
f 639 641 642
f 642 640 639
f 641 643 644
f 644 642 641
f 643 645 646
f 646 644 643
f 645 647 648
f 648 646 645
f 647 649 650
f 650 648 647
f 649 651 652
f 652 650 649
f 651 653 654
f 654 652 651
f 653 655 656
f 656 654 653
f 655 657 658
f 658 656 655
f 657 659 660
f 660 658 657
f 659 661 662
f 662 660 659
f 661 663 664
f 664 662 661
f 663 665 666
f 666 664 663
f 665 667 668
f 668 666 665
f 667 669 670
f 670 668 667
f 669 671 672
f 672 670 669
f 671 673 674
f 674 672 671
f 673 675 676
f 676 674 673
f 675 677 678
f 678 676 675
f 677 679 680
f 680 678 677
f 679 681 682
f 682 680 679
f 681 683 684
f 684 682 681
f 683 685 686
f 686 684 683
f 685 687 688
f 688 686 685
f 687 689 690
f 690 688 687
f 689 691 692
f 692 690 689
f 691 693 694
f 694 692 691
f 693 695 696
f 696 694 693
f 695 697 698
f 698 696 695
f 697 699 700
f 700 698 697
f 699 701 702
f 702 700 699
f 701 703 704
f 704 702 701
f 703 705 706
f 706 704 703
f 705 707 708
f 708 706 705
f 707 709 710
f 710 708 707
f 709 711 712
f 712 710 709
f 711 713 714
f 714 712 711
f 713 715 716
f 716 714 713
f 715 717 718
f 718 716 715
f 717 719 720
f 720 718 717
f 719 721 722
f 722 720 719
f 721 723 724
f 724 722 721
f 723 725 726
f 726 724 723
f 725 727 728
f 728 726 725
f 727 729 730
f 730 728 727
f 729 731 732
f 732 730 729
f 731 733 734
f 734 732 731
f 733 735 736
f 736 734 733
f 735 737 738
f 738 736 735
f 737 739 740
f 740 738 737
f 739 741 742
f 742 740 739
f 741 743 744
f 744 742 741
f 743 745 746
f 746 744 743
f 745 747 748
f 748 746 745
f 747 749 750
f 750 748 747
f 749 751 752
f 752 750 749
f 751 753 754
f 754 752 751
f 753 755 756
f 756 754 753
f 755 757 758
f 758 756 755
f 757 759 760
f 760 758 757
f 759 761 762
f 762 760 759
f 761 763 764
f 764 762 761
f 763 765 766
f 766 764 763
f 765 767 768
f 768 766 765
f 767 769 770
f 770 768 767
f 769 771 772
f 772 770 769
f 771 773 774
f 774 772 771
f 773 775 776
f 776 774 773
f 775 777 778
f 778 776 775
f 777 779 780
f 780 778 777
f 779 781 782
f 782 780 779
f 781 783 784
f 784 782 781
f 783 785 786
f 786 784 783
f 785 787 788
f 788 786 785
f 787 789 790
f 790 788 787
f 789 791 792
f 792 790 789
f 791 793 794
f 794 792 791
f 793 795 796
f 796 794 793
f 795 797 798
f 798 796 795
f 797 799 800
f 800 798 797
f 799 801 802
f 802 800 799
f 801 803 804
f 804 802 801
f 803 805 806
f 806 804 803
f 805 807 808
f 808 806 805
f 807 809 810
f 810 808 807
f 809 811 812
f 812 810 809
f 811 813 814
f 814 812 811
f 813 815 816
f 816 814 813
f 815 817 818
f 818 816 815
f 817 819 820
f 820 818 817
f 819 821 822
f 822 820 819
f 821 823 824
f 824 822 821
f 823 825 826
f 826 824 823
f 825 827 828
f 828 826 825
f 827 829 830
f 830 828 827
f 829 831 832
f 832 830 829
f 831 833 834
f 834 832 831
f 833 835 836
f 836 834 833
f 835 837 838
f 838 836 835
f 837 839 840
f 840 838 837
f 839 841 842
f 842 840 839
f 841 843 844
f 844 842 841
f 843 845 846
f 846 844 843
f 845 847 848
f 848 846 845
f 847 849 850
f 850 848 847
f 849 851 852
f 852 850 849
f 851 853 854
f 854 852 851
f 853 855 856
f 856 854 853
f 855 857 858
f 858 856 855
f 857 859 860
f 860 858 857
f 859 861 862
f 862 860 859
f 861 863 864
f 864 862 861
f 863 865 866
f 866 864 863
f 865 867 868
f 868 866 865
f 867 869 870
f 870 868 867
f 869 871 872
f 872 870 869
f 871 873 874
f 874 872 871
f 873 875 876
f 876 874 873
f 875 877 878
f 878 876 875
f 877 879 880
f 880 878 877
f 879 881 882
f 882 880 879
f 881 883 884
f 884 882 881
f 883 885 886
f 886 884 883
f 885 887 888
f 888 886 885
f 887 889 890
f 890 888 887
f 889 891 892
f 892 890 889
f 891 893 894
f 894 892 891
f 893 895 896
f 896 894 893
f 895 897 898
f 898 896 895
f 897 899 900
f 900 898 897
f 899 901 902
f 902 900 899
f 901 903 904
f 904 902 901
f 903 905 906
f 906 904 903
f 905 907 908
f 908 906 905
f 907 909 910
f 910 908 907
f 909 911 912
f 912 910 909
f 911 913 914
f 914 912 911
f 913 915 916
f 916 914 913
f 915 917 918
f 918 916 915
f 917 919 920
f 920 918 917
f 919 921 922
f 922 920 919
f 921 923 924
f 924 922 921
f 923 925 926
f 926 924 923
f 925 927 928
f 928 926 925
f 927 929 930
f 930 928 927
f 929 931 932
f 932 930 929
f 931 933 934
f 934 932 931
f 933 935 936
f 936 934 933
f 935 937 938
f 938 936 935
f 937 939 940
f 940 938 937
f 939 941 942
f 942 940 939
f 941 943 944
f 944 942 941
f 943 945 946
f 946 944 943
f 945 947 948
f 948 946 945
f 947 949 950
f 950 948 947
f 949 951 952
f 952 950 949
f 951 953 954
f 954 952 951
f 953 955 956
f 956 954 953
f 955 957 958
f 958 956 955
f 957 959 960
f 960 958 957
f 959 961 962
f 962 960 959
f 961 963 964
f 964 962 961
f 963 965 966
f 966 964 963
f 965 967 968
f 968 966 965
f 967 969 970
f 970 968 967
f 969 971 972
f 972 970 969
f 971 973 974
f 974 972 971
f 973 975 976
f 976 974 973
f 975 977 978
f 978 976 975
f 977 979 980
f 980 978 977
f 979 981 982
f 982 980 979
f 981 983 984
f 984 982 981
f 983 985 986
f 986 984 983
f 985 987 988
f 988 986 985
f 987 989 990
f 990 988 987
f 989 991 992
f 992 990 989
f 991 993 994
f 994 992 991
f 993 995 996
f 996 994 993
f 995 997 998
f 998 996 995
f 997 999 1000
f 1000 998 997
f 999 1001 1002
f 1002 1000 999
f 1001 1003 1004
f 1004 1002 1001
f 1003 1005 1006
f 1006 1004 1003
f 1005 1007 1008
f 1008 1006 1005
f 1007 1009 1010
f 1010 1008 1007
f 1009 1011 1012
f 1012 1010 1009
f 1011 1013 1014
f 1014 1012 1011
f 1013 1015 1016
f 1016 1014 1013
f 1015 1017 1018
f 1018 1016 1015
f 1017 1019 1020
f 1020 1018 1017
f 1019 1021 1022
f 1022 1020 1019
f 1021 1023 1024
f 1024 1022 1021
f 1023 1025 1026
f 1026 1024 1023
f 1025 1027 1028
f 1028 1026 1025
f 1027 1029 1030
f 1030 1028 1027
f 1029 1031 1032
f 1032 1030 1029
f 1031 1033 1034
f 1034 1032 1031
f 1033 1 4
f 4 1034 1033
f 1035 1036 1037
f 1037 1038 1035
f 1036 1039 1040
f 1040 1037 1036
f 1039 1041 1042
f 1042 1040 1039
f 1041 1043 1044
f 1044 1042 1041
f 1043 1045 1046
f 1046 1044 1043
f 1045 1047 1048
f 1048 1046 1045
f 1047 1049 1050
f 1050 1048 1047
f 1049 1051 1052
f 1052 1050 1049
f 1051 1053 1054
f 1054 1052 1051
f 1053 1055 1056
f 1056 1054 1053
f 1055 1057 1058
f 1058 1056 1055
f 1057 1059 1060
f 1060 1058 1057
f 1059 1061 1062
f 1062 1060 1059
f 1061 1063 1064
f 1064 1062 1061
f 1063 1065 1066
f 1066 1064 1063
f 1065 1067 1068
f 1068 1066 1065
f 1067 1069 1070
f 1070 1068 1067
f 1069 1071 1072
f 1072 1070 1069
f 1071 1073 1074
f 1074 1072 1071
f 1073 1075 1076
f 1076 1074 1073
f 1075 1077 1078
f 1078 1076 1075
f 1077 1079 1080
f 1080 1078 1077
f 1079 1081 1082
f 1082 1080 1079
f 1081 1083 1084
f 1084 1082 1081
f 1083 1085 1086
f 1086 1084 1083
f 1085 1087 1088
f 1088 1086 1085
f 1087 1089 1090
f 1090 1088 1087
f 1089 1091 1092
f 1092 1090 1089
f 1091 1093 1094
f 1094 1092 1091
f 1093 1095 1096
f 1096 1094 1093
f 1095 1097 1098
f 1098 1096 1095
f 1097 1099 1100
f 1100 1098 1097
f 1099 1101 1102
f 1102 1100 1099
f 1101 1103 1104
f 1104 1102 1101
f 1103 1105 1106
f 1106 1104 1103
f 1105 1107 1108
f 1108 1106 1105
f 1107 1109 1110
f 1110 1108 1107
f 1109 1111 1112
f 1112 1110 1109
f 1111 1113 1114
f 1114 1112 1111
f 1113 1115 1116
f 1116 1114 1113
f 1115 1117 1118
f 1118 1116 1115
f 1117 1119 1120
f 1120 1118 1117
f 1119 1121 1122
f 1122 1120 1119
f 1121 1123 1124
f 1124 1122 1121
f 1123 1125 1126
f 1126 1124 1123
f 1125 1127 1128
f 1128 1126 1125
f 1127 1129 1130
f 1130 1128 1127
f 1129 1131 1132
f 1132 1130 1129
f 1131 1133 1134
f 1134 1132 1131
f 1133 1135 1136
f 1136 1134 1133
f 1135 1137 1138
f 1138 1136 1135
f 1137 1139 1140
f 1140 1138 1137
f 1139 1141 1142
f 1142 1140 1139
f 1141 1143 1144
f 1144 1142 1141
f 1143 1145 1146
f 1146 1144 1143
f 1145 1147 1148
f 1148 1146 1145
f 1147 1149 1150
f 1150 1148 1147
f 1149 1151 1152
f 1152 1150 1149
f 1151 1153 1154
f 1154 1152 1151
f 1153 1155 1156
f 1156 1154 1153
f 1155 1157 1158
f 1158 1156 1155
f 1157 1159 1160
f 1160 1158 1157
f 1159 1161 1162
f 1162 1160 1159
f 1161 1163 1164
f 1164 1162 1161
f 1163 1165 1166
f 1166 1164 1163
f 1165 1167 1168
f 1168 1166 1165
f 1167 1169 1170
f 1170 1168 1167
f 1169 1171 1172
f 1172 1170 1169
f 1171 1173 1174
f 1174 1172 1171
f 1173 1175 1176
f 1176 1174 1173
f 1175 1177 1178
f 1178 1176 1175
f 1177 1035 1038
f 1038 1178 1177
f 1179 1180 1181
f 1181 1182 1179
f 1180 1183 1184
f 1184 1181 1180
f 1183 1185 1186
f 1186 1184 1183
f 1185 1187 1188
f 1188 1186 1185
f 1187 1189 1190
f 1190 1188 1187
f 1189 1191 1192
f 1192 1190 1189
f 1191 1193 1194
f 1194 1192 1191
f 1193 1195 1196
f 1196 1194 1193
f 1195 1197 1198
f 1198 1196 1195
f 1197 1199 1200
f 1200 1198 1197
f 1199 1201 1202
f 1202 1200 1199
f 1201 1203 1204
f 1204 1202 1201
f 1203 1205 1206
f 1206 1204 1203
f 1205 1207 1208
f 1208 1206 1205
f 1207 1209 1210
f 1210 1208 1207
f 1209 1211 1212
f 1212 1210 1209
f 1211 1213 1214
f 1214 1212 1211
f 1213 1215 1216
f 1216 1214 1213
f 1215 1217 1218
f 1218 1216 1215
f 1217 1219 1220
f 1220 1218 1217
f 1219 1221 1222
f 1222 1220 1219
f 1221 1223 1224
f 1224 1222 1221
f 1223 1225 1226
f 1226 1224 1223
f 1225 1227 1228
f 1228 1226 1225
f 1227 1229 1230
f 1230 1228 1227
f 1229 1231 1232
f 1232 1230 1229
f 1231 1233 1234
f 1234 1232 1231
f 1233 1235 1236
f 1236 1234 1233
f 1235 1237 1238
f 1238 1236 1235
f 1237 1239 1240
f 1240 1238 1237
f 1239 1241 1242
f 1242 1240 1239
f 1241 1243 1244
f 1244 1242 1241
f 1243 1245 1246
f 1246 1244 1243
f 1245 1247 1248
f 1248 1246 1245
f 1247 1249 1250
f 1250 1248 1247
f 1249 1251 1252
f 1252 1250 1249
f 1251 1253 1254
f 1254 1252 1251
f 1253 1255 1256
f 1256 1254 1253
f 1255 1257 1258
f 1258 1256 1255
f 1257 1259 1260
f 1260 1258 1257
f 1259 1261 1262
f 1262 1260 1259
f 1261 1263 1264
f 1264 1262 1261
f 1263 1265 1266
f 1266 1264 1263
f 1265 1267 1268
f 1268 1266 1265
f 1267 1269 1270
f 1270 1268 1267
f 1269 1271 1272
f 1272 1270 1269
f 1271 1273 1274
f 1274 1272 1271
f 1273 1275 1276
f 1276 1274 1273
f 1275 1277 1278
f 1278 1276 1275
f 1277 1279 1280
f 1280 1278 1277
f 1279 1281 1282
f 1282 1280 1279
f 1281 1283 1284
f 1284 1282 1281
f 1283 1285 1286
f 1286 1284 1283
f 1285 1287 1288
f 1288 1286 1285
f 1287 1289 1290
f 1290 1288 1287
f 1289 1291 1292
f 1292 1290 1289
f 1291 1293 1294
f 1294 1292 1291
f 1293 1295 1296
f 1296 1294 1293
f 1295 1297 1298
f 1298 1296 1295
f 1297 1299 1300
f 1300 1298 1297
f 1299 1301 1302
f 1302 1300 1299
f 1301 1303 1304
f 1304 1302 1301
f 1303 1305 1306
f 1306 1304 1303
f 1305 1307 1308
f 1308 1306 1305
f 1307 1309 1310
f 1310 1308 1307
f 1309 1311 1312
f 1312 1310 1309
f 1311 1313 1314
f 1314 1312 1311
f 1313 1315 1316
f 1316 1314 1313
f 1315 1317 1318
f 1318 1316 1315
f 1317 1319 1320
f 1320 1318 1317
f 1319 1321 1322
f 1322 1320 1319
f 1321 1323 1324
f 1324 1322 1321
f 1323 1325 1326
f 1326 1324 1323
f 1325 1327 1328
f 1328 1326 1325
f 1327 1329 1330
f 1330 1328 1327
f 1329 1331 1332
f 1332 1330 1329
f 1331 1333 1334
f 1334 1332 1331
f 1333 1335 1336
f 1336 1334 1333
f 1335 1337 1338
f 1338 1336 1335
f 1337 1339 1340
f 1340 1338 1337
f 1339 1341 1342
f 1342 1340 1339
f 1341 1179 1182
f 1182 1342 1341
f 113 1097 1095
f 1095 1093 113
f 1195 1081 1079
f 1079 1077 1195
f 113 1101 1099
f 1099 1097 113
f 113 1105 1103
f 1103 1101 113
f 113 1109 1107
f 1107 1105 113
f 113 1113 1111
f 1111 1109 113
f 113 1117 1115
f 1115 1113 113
f 113 1121 1119
f 1119 1117 113
f 1093 117 115
f 115 113 1093
f 1093 121 119
f 119 117 1093
f 1093 125 123
f 123 121 1093
f 1093 129 127
f 127 125 1093
f 113 1125 1123
f 1123 1121 113
f 1093 133 131
f 131 129 1093
f 1195 1085 1083
f 1083 1081 1195
f 1093 137 135
f 135 133 1093
f 1093 141 139
f 139 137 1093
f 1195 1089 1087
f 1087 1085 1195
f 1195 1093 1091
f 1091 1089 1195
f 1077 1199 1197
f 1197 1195 1077
f 1077 1203 1201
f 1201 1199 1077
f 1077 1207 1205
f 1205 1203 1077
f 1077 1211 1209
f 1209 1207 1077
f 1077 1215 1213
f 1213 1211 1077
f 1077 1219 1217
f 1217 1215 1077
f 1077 1223 1221
f 1221 1219 1077
f 1077 1227 1225
f 1225 1223 1077
f 599 597 603
f 603 601 599
f 771 581 775
f 775 773 771
f 1093 145 143
f 143 141 1093
f 1093 149 147
f 147 145 1093
f 1093 153 151
f 151 149 1093
f 1093 1183 155
f 155 153 1093
f 1077 1231 1229
f 1229 1227 1077
f 241 247 245
f 245 243 241
f 241 251 249
f 249 247 241
f 1193 1191 1093
f 1093 1195 1193
f 1189 1187 1093
f 1093 1191 1189
f 1185 1183 1093
f 1093 1187 1185
f 1180 1179 155
f 155 1183 1180
f 1341 1339 155
f 155 1179 1341
f 1337 1335 155
f 155 1339 1337
f 1333 1331 155
f 155 1335 1333
f 1329 1327 155
f 155 1331 1329
f 1325 1323 155
f 155 1327 1325
f 1321 1319 155
f 155 1323 1321
f 1317 157 155
f 155 1319 1317
f 241 255 253
f 253 251 241
f 1077 1235 1233
f 1233 1231 1077
f 239 257 255
f 255 241 239
f 239 261 259
f 259 257 239
f 237 235 261
f 261 239 237
f 235 265 263
f 263 261 235
f 233 267 265
f 265 235 233
f 233 271 269
f 269 267 233
f 233 275 273
f 273 271 233
f 233 279 277
f 277 275 233
f 231 229 279
f 279 233 231
f 281 279 285
f 285 283 281
f 27 25 31
f 31 29 27
f 895 901 899
f 899 897 895
f 1077 1239 1237
f 1237 1235 1077
f 1317 161 159
f 159 157 1317
f 1317 455 163
f 163 161 1317
f 279 229 287
f 287 285 279
f 229 291 289
f 289 287 229
f 229 295 293
f 293 291 229
f 227 297 295
f 295 229 227
f 225 299 297
f 297 227 225
f 223 221 299
f 299 225 223
f 219 217 299
f 299 221 219
f 215 213 299
f 299 217 215
f 211 301 299
f 299 213 211
f 209 207 301
f 301 211 209
f 207 205 303
f 303 301 207
f 203 201 303
f 303 205 203
f 199 197 303
f 303 201 199
f 197 195 305
f 305 303 197
f 193 191 305
f 305 195 193
f 191 189 307
f 307 305 191
f 189 311 309
f 309 307 189
f 189 187 313
f 313 311 189
f 185 315 313
f 313 187 185
f 185 319 317
f 317 315 185
f 185 323 321
f 321 319 185
f 185 183 325
f 325 323 185
f 183 329 327
f 327 325 183
f 183 333 331
f 331 329 183
f 183 337 335
f 335 333 183
f 183 341 339
f 339 337 183
f 181 179 341
f 341 183 181
f 179 177 343
f 343 341 179
f 177 175 345
f 345 343 177
f 173 347 345
f 345 175 173
f 171 169 347
f 347 173 171
f 169 351 349
f 349 347 169
f 169 355 353
f 353 351 169
f 169 359 357
f 357 355 169
f 167 165 359
f 359 169 167
f 163 361 359
f 359 165 163
f 163 365 363
f 363 361 163
f 163 369 367
f 367 365 163
f 163 373 371
f 371 369 163
f 163 377 375
f 375 373 163
f 163 381 379
f 379 377 163
f 25 23 33
f 33 31 25
f 23 21 35
f 35 33 23
f 19 37 35
f 35 21 19
f 17 15 37
f 37 19 17
f 13 11 37
f 37 15 13
f 9 7 37
f 37 11 9
f 7 5 39
f 39 37 7
f 5 43 41
f 41 39 5
f 2 1 43
f 43 5 2
f 1033 1031 43
f 43 1 1033
f 1031 47 45
f 45 43 1031
f 1031 51 49
f 49 47 1031
f 1031 55 53
f 53 51 1031
f 1031 59 57
f 57 55 1031
f 1031 63 61
f 61 59 1031
f 1031 67 65
f 65 63 1031
f 1031 71 69
f 69 67 1031
f 1031 75 73
f 73 71 1031
f 1031 79 77
f 77 75 1031
f 1031 83 81
f 81 79 1031
f 1031 87 85
f 85 83 1031
f 1031 1029 89
f 89 87 1031
f 1029 93 91
f 91 89 1029
f 1029 1027 95
f 95 93 1029
f 1027 99 97
f 97 95 1027
f 1025 101 99
f 99 1027 1025
f 1025 105 103
f 103 101 1025
f 1023 107 105
f 105 1025 1023
f 1023 111 109
f 109 107 1023
f 1023 1021 113
f 113 111 1023
f 1019 1017 113
f 113 1021 1019
f 1015 1013 113
f 113 1017 1015
f 1011 1009 113
f 113 1013 1011
f 893 903 901
f 901 895 893
f 677 675 681
f 681 679 677
f 675 673 683
f 683 681 675
f 673 671 685
f 685 683 673
f 671 689 687
f 687 685 671
f 671 693 691
f 691 689 671
f 671 697 695
f 695 693 671
f 671 701 699
f 699 697 671
f 669 703 701
f 701 671 669
f 667 705 703
f 703 669 667
f 665 663 705
f 705 667 665
f 661 659 705
f 705 663 661
f 657 655 705
f 705 659 657
f 653 651 705
f 705 655 653
f 649 647 705
f 705 651 649
f 645 643 705
f 705 647 645
f 641 639 705
f 705 643 641
f 637 635 705
f 705 639 637
f 633 631 705
f 705 635 633
f 629 627 705
f 705 631 629
f 625 707 705
f 705 627 625
f 623 709 707
f 707 625 623
f 621 711 709
f 709 623 621
f 619 713 711
f 711 621 619
f 619 717 715
f 715 713 619
f 619 721 719
f 719 717 619
f 619 725 723
f 723 721 619
f 619 729 727
f 727 725 619
f 619 733 731
f 731 729 619
f 619 737 735
f 735 733 619
f 619 741 739
f 739 737 619
f 619 617 743
f 743 741 619
f 615 613 743
f 743 617 615
f 611 609 743
f 743 613 611
f 607 605 743
f 743 609 607
f 605 747 745
f 745 743 605
f 605 751 749
f 749 747 605
f 605 755 753
f 753 751 605
f 605 759 757
f 757 755 605
f 605 763 761
f 761 759 605
f 605 767 765
f 765 763 605
f 605 771 769
f 769 767 605
f 603 597 771
f 771 605 603
f 595 593 771
f 771 597 595
f 591 589 771
f 771 593 591
f 587 585 771
f 771 589 587
f 583 581 771
f 771 585 583
f 579 577 775
f 775 581 579
f 575 573 775
f 775 577 575
f 571 777 775
f 775 573 571
f 983 981 987
f 987 985 983
f 981 979 989
f 989 987 981
f 1007 1005 113
f 113 1009 1007
f 979 977 991
f 991 989 979
f 833 839 837
f 837 835 833
f 833 831 841
f 841 839 833
f 831 845 843
f 843 841 831
f 831 829 847
f 847 845 831
f 829 851 849
f 849 847 829
f 827 825 851
f 851 829 827
f 825 823 853
f 853 851 825
f 823 1035 855
f 855 853 823
f 1077 1243 1241
f 1241 1239 1077
f 865 871 869
f 869 867 865
f 863 873 871
f 871 865 863
f 861 875 873
f 873 863 861
f 859 877 875
f 875 861 859
f 857 855 877
f 877 859 857
f 497 495 501
f 501 499 497
f 495 493 503
f 503 501 495
f 491 505 503
f 503 493 491
f 489 507 505
f 505 491 489
f 487 485 507
f 507 489 487
f 485 511 509
f 509 507 485
f 461 459 465
f 465 463 461
f 459 457 467
f 467 465 459
f 457 471 469
f 469 467 457
f 457 475 473
f 473 471 457
f 457 479 477
f 477 475 457
f 891 905 903
f 903 893 891
f 889 887 905
f 905 891 889
f 885 883 905
f 905 887 885
f 571 781 779
f 779 777 571
f 571 785 783
f 783 781 571
f 881 879 905
f 905 883 881
f 571 569 787
f 787 785 571
f 567 565 787
f 787 569 567
f 563 561 787
f 787 565 563
f 559 557 787
f 787 561 559
f 555 553 787
f 787 557 555
f 551 549 787
f 787 553 551
f 547 545 787
f 787 549 547
f 543 541 787
f 787 545 543
f 539 537 787
f 787 541 539
f 535 533 787
f 787 537 535
f 531 529 787
f 787 533 531
f 527 525 787
f 787 529 527
f 523 521 787
f 787 525 523
f 519 517 787
f 787 521 519
f 517 515 789
f 789 787 517
f 515 793 791
f 791 789 515
f 515 797 795
f 795 793 515
f 515 801 799
f 799 797 515
f 515 805 803
f 803 801 515
f 515 809 807
f 807 805 515
f 515 813 811
f 811 809 515
f 515 817 815
f 815 813 515
f 515 821 819
f 819 817 515
f 513 1077 821
f 821 515 513
f 1003 1001 113
f 113 1005 1003
f 999 997 113
f 113 1001 999
f 457 483 481
f 481 479 457
f 443 449 447
f 447 445 443
f 443 427 451
f 451 449 443
f 937 943 941
f 941 939 937
f 457 1301 485
f 485 483 457
f 977 1125 993
f 993 991 977
f 995 1125 113
f 113 997 995
f 993 1125 995
f 975 973 1125
f 1125 977 975
f 971 969 1125
f 1125 973 971
f 967 965 1125
f 1125 969 967
f 963 961 1125
f 1125 965 963
f 959 957 1125
f 1125 961 959
f 955 953 1125
f 1125 957 955
f 951 949 1125
f 1125 953 951
f 947 945 1125
f 1125 949 947
f 943 937 1125
f 1125 945 943
f 935 933 1125
f 1125 937 935
f 931 929 1125
f 1125 933 931
f 927 925 1125
f 1125 929 927
f 923 921 1125
f 1125 925 923
f 919 917 1125
f 1125 921 919
f 915 905 1125
f 1125 917 915
f 429 435 433
f 433 431 429
f 429 439 437
f 437 435 429
f 427 441 439
f 439 429 427
f 427 443 441
f 427 425 453
f 453 451 427
f 423 455 453
f 453 425 423
f 421 419 455
f 455 423 421
f 417 415 455
f 455 419 417
f 399 405 403
f 403 401 399
f 397 407 405
f 405 399 397
f 397 395 409
f 409 407 397
f 393 411 409
f 409 395 393
f 413 411 455
f 455 415 413
f 877 1125 905
f 905 879 877
f 1147 1153 1151
f 1151 1149 1147
f 1145 1155 1153
f 1153 1147 1145
f 1143 1157 1155
f 1155 1145 1143
f 163 385 383
f 383 381 163
f 391 389 411
f 411 393 391
f 1143 855 1159
f 1159 1157 1143
f 911 909 915
f 915 913 911
f 907 905 915
f 915 909 907
f 1295 1301 1299
f 1299 1297 1295
f 1293 485 1301
f 1301 1295 1293
f 1251 513 1255
f 1255 1253 1251
f 877 1129 1127
f 1127 1125 877
f 877 1133 1131
f 1131 1129 877
f 877 1137 1135
f 1135 1133 877
f 855 1139 1137
f 1137 877 855
f 855 1143 1141
f 1141 1139 855
f 855 1163 1161
f 1161 1159 855
f 855 1167 1165
f 1165 1163 855
f 855 1171 1169
f 1169 1167 855
f 855 1175 1173
f 1173 1171 855
f 855 1035 1177
f 1177 1175 855
f 823 1039 1036
f 1036 1035 823
f 823 1043 1041
f 1041 1039 823
f 823 1047 1045
f 1045 1043 823
f 823 1051 1049
f 1049 1047 823
f 823 1055 1053
f 1053 1051 823
f 823 1059 1057
f 1057 1055 823
f 823 1063 1061
f 1061 1059 823
f 821 1065 1063
f 1063 823 821
f 821 1069 1067
f 1067 1065 821
f 821 1073 1071
f 1071 1069 821
f 821 1077 1075
f 1075 1073 821
f 513 1245 1243
f 1243 1077 513
f 513 1249 1247
f 1247 1245 513
f 513 1251 1249
f 513 1259 1257
f 1257 1255 513
f 513 1263 1261
f 1261 1259 513
f 513 1267 1265
f 1265 1263 513
f 513 1271 1269
f 1269 1267 513
f 511 1273 1271
f 1271 513 511
f 511 1277 1275
f 1275 1273 511
f 511 1281 1279
f 1279 1277 511
f 485 1283 1281
f 1281 511 485
f 485 1287 1285
f 1285 1283 485
f 485 1291 1289
f 1289 1287 485
f 485 1293 1291
f 457 1305 1303
f 1303 1301 457
f 457 1309 1307
f 1307 1305 457
f 457 1313 1311
f 1311 1309 457
f 457 1317 1315
f 1315 1313 457
f 455 1317 457
f 389 387 455
f 455 411 389
f 163 455 387
f 387 385 163
f 114 116 1094
f 1094 1096 114
f 1196 1198 1078
f 1078 1080 1196
f 114 1096 1098
f 1098 1100 114
f 114 1100 1102
f 1102 1104 114
f 114 1104 1106
f 1106 1108 114
f 114 1108 1110
f 1110 1112 114
f 114 1112 1114
f 1114 1116 114
f 114 1116 1118
f 1118 1120 114
f 1196 1080 1082
f 1082 1084 1196
f 1094 116 118
f 118 120 1094
f 1094 120 122
f 122 124 1094
f 1094 124 126
f 126 128 1094
f 114 1120 1122
f 1122 1124 114
f 1094 128 130
f 130 132 1094
f 1094 132 134
f 134 136 1094
f 1094 136 138
f 138 140 1094
f 1094 140 142
f 142 144 1094
f 1196 1084 1086
f 1086 1088 1196
f 1196 1088 1090
f 1090 1092 1196
f 1196 1092 1094
f 1094 1194 1196
f 1078 1198 1200
f 1200 1202 1078
f 1078 1202 1204
f 1204 1206 1078
f 1078 1206 1208
f 1208 1210 1078
f 114 1124 1126
f 1126 996 114
f 1078 1210 1212
f 1212 1214 1078
f 1078 1214 1216
f 1216 1218 1078
f 1078 1218 1220
f 1220 1222 1078
f 1078 1222 1224
f 1224 1226 1078
f 1078 1226 1228
f 1228 1230 1078
f 600 602 604
f 604 598 600
f 772 774 776
f 776 582 772
f 1094 144 146
f 146 148 1094
f 1094 148 150
f 150 152 1094
f 1094 152 154
f 154 156 1094
f 242 244 246
f 246 248 242
f 242 248 250
f 250 252 242
f 1078 1230 1232
f 1232 1234 1078
f 1192 1194 1094
f 1094 1190 1192
f 1188 1190 1094
f 1094 1186 1188
f 1184 1186 1094
f 1094 156 1184
f 1181 1184 156
f 156 1182 1181
f 1342 1182 156
f 156 1340 1342
f 1338 1340 156
f 156 1336 1338
f 1334 1336 156
f 156 1332 1334
f 1330 1332 156
f 156 1328 1330
f 1326 1328 156
f 156 1324 1326
f 1322 1324 156
f 156 1320 1322
f 1318 1320 156
f 156 158 1318
f 242 252 254
f 254 256 242
f 240 242 256
f 256 258 240
f 240 258 260
f 260 262 240
f 238 240 262
f 262 236 238
f 236 262 264
f 264 266 236
f 234 236 266
f 266 268 234
f 234 268 270
f 270 272 234
f 234 272 274
f 274 276 234
f 234 276 278
f 278 280 234
f 232 234 280
f 280 230 232
f 1078 1234 1236
f 1236 1238 1078
f 282 284 286
f 286 280 282
f 28 30 32
f 32 26 28
f 896 898 900
f 900 902 896
f 1318 158 160
f 160 162 1318
f 1318 162 164
f 164 456 1318
f 280 286 288
f 288 230 280
f 230 288 290
f 290 292 230
f 230 292 294
f 294 296 230
f 228 230 296
f 296 298 228
f 226 228 298
f 298 300 226
f 224 226 300
f 300 222 224
f 220 222 300
f 300 218 220
f 216 218 300
f 300 214 216
f 212 214 300
f 300 302 212
f 210 212 302
f 302 208 210
f 208 302 304
f 304 206 208
f 204 206 304
f 304 202 204
f 200 202 304
f 304 198 200
f 198 304 306
f 306 196 198
f 194 196 306
f 306 192 194
f 192 306 308
f 308 190 192
f 190 308 310
f 310 312 190
f 190 312 314
f 314 188 190
f 186 188 314
f 314 316 186
f 186 316 318
f 318 320 186
f 186 320 322
f 322 324 186
f 186 324 326
f 326 184 186
f 184 326 328
f 328 330 184
f 184 330 332
f 332 334 184
f 184 334 336
f 336 338 184
f 184 338 340
f 340 342 184
f 182 184 342
f 342 180 182
f 180 342 344
f 344 178 180
f 178 344 346
f 346 176 178
f 174 176 346
f 346 348 174
f 172 174 348
f 348 170 172
f 170 348 350
f 350 352 170
f 170 352 354
f 354 356 170
f 170 356 358
f 358 360 170
f 168 170 360
f 360 166 168
f 164 166 360
f 360 362 164
f 164 362 364
f 364 366 164
f 164 366 368
f 368 370 164
f 164 370 372
f 372 374 164
f 164 374 376
f 376 378 164
f 164 378 380
f 380 382 164
f 26 32 34
f 34 24 26
f 24 34 36
f 36 22 24
f 20 22 36
f 36 38 20
f 18 20 38
f 38 16 18
f 14 16 38
f 38 12 14
f 10 12 38
f 38 8 10
f 8 38 40
f 40 6 8
f 6 40 42
f 42 44 6
f 3 6 44
f 44 4 3
f 1034 4 44
f 44 1032 1034
f 1032 44 46
f 46 48 1032
f 1032 48 50
f 50 52 1032
f 1032 52 54
f 54 56 1032
f 1032 56 58
f 58 60 1032
f 1032 60 62
f 62 64 1032
f 1032 64 66
f 66 68 1032
f 1032 68 70
f 70 72 1032
f 1032 72 74
f 74 76 1032
f 1032 76 78
f 78 80 1032
f 1032 80 82
f 82 84 1032
f 1032 84 86
f 86 88 1032
f 1032 88 90
f 90 1030 1032
f 1030 90 92
f 92 94 1030
f 1030 94 96
f 96 1028 1030
f 1028 96 98
f 98 100 1028
f 1026 1028 100
f 100 102 1026
f 1026 102 104
f 104 106 1026
f 1024 1026 106
f 106 108 1024
f 1024 108 110
f 110 112 1024
f 1024 112 114
f 114 1022 1024
f 1020 1022 114
f 114 1018 1020
f 1016 1018 114
f 114 1014 1016
f 1012 1014 114
f 114 1010 1012
f 894 896 902
f 902 904 894
f 678 680 682
f 682 676 678
f 676 682 684
f 684 674 676
f 674 684 686
f 686 672 674
f 672 686 688
f 688 690 672
f 672 690 692
f 692 694 672
f 672 694 696
f 696 698 672
f 672 698 700
f 700 702 672
f 670 672 702
f 702 704 670
f 668 670 704
f 704 706 668
f 666 668 706
f 706 664 666
f 662 664 706
f 706 660 662
f 658 660 706
f 706 656 658
f 654 656 706
f 706 652 654
f 650 652 706
f 706 648 650
f 646 648 706
f 706 644 646
f 642 644 706
f 706 640 642
f 638 640 706
f 706 636 638
f 634 636 706
f 706 632 634
f 630 632 706
f 706 628 630
f 626 628 706
f 706 708 626
f 624 626 708
f 708 710 624
f 622 624 710
f 710 712 622
f 620 622 712
f 712 714 620
f 620 714 716
f 716 718 620
f 620 718 720
f 720 722 620
f 620 722 724
f 724 726 620
f 620 726 728
f 728 730 620
f 620 730 732
f 732 734 620
f 620 734 736
f 736 738 620
f 620 738 740
f 740 742 620
f 620 742 744
f 744 618 620
f 616 618 744
f 744 614 616
f 612 614 744
f 744 610 612
f 608 610 744
f 744 606 608
f 606 744 746
f 746 748 606
f 606 748 750
f 750 752 606
f 606 752 754
f 754 756 606
f 606 756 758
f 758 760 606
f 606 760 762
f 762 764 606
f 606 764 766
f 766 768 606
f 606 768 770
f 770 772 606
f 604 606 772
f 772 598 604
f 596 598 772
f 772 594 596
f 592 594 772
f 772 590 592
f 588 590 772
f 772 586 588
f 584 586 772
f 772 582 584
f 580 582 776
f 776 578 580
f 576 578 776
f 776 574 576
f 572 574 776
f 776 778 572
f 984 986 988
f 988 982 984
f 982 988 990
f 990 980 982
f 1008 1010 114
f 114 1006 1008
f 980 990 992
f 992 978 980
f 834 836 838
f 838 840 834
f 834 840 842
f 842 832 834
f 832 842 844
f 844 846 832
f 832 846 848
f 848 830 832
f 830 848 850
f 850 852 830
f 828 830 852
f 852 826 828
f 826 852 854
f 854 824 826
f 824 854 856
f 856 1038 824
f 1078 1238 1240
f 1240 1242 1078
f 866 868 870
f 870 872 866
f 864 866 872
f 872 874 864
f 862 864 874
f 874 876 862
f 860 862 876
f 876 878 860
f 858 860 878
f 878 856 858
f 498 500 502
f 502 496 498
f 496 502 504
f 504 494 496
f 492 494 504
f 504 506 492
f 490 492 506
f 506 508 490
f 488 490 508
f 508 486 488
f 486 508 510
f 510 512 486
f 462 464 466
f 466 460 462
f 460 466 468
f 468 458 460
f 458 468 470
f 470 472 458
f 458 472 474
f 474 476 458
f 458 476 478
f 478 480 458
f 892 894 904
f 904 906 892
f 890 892 906
f 906 888 890
f 886 888 906
f 906 884 886
f 572 778 780
f 780 782 572
f 572 782 784
f 784 786 572
f 882 884 906
f 906 880 882
f 572 786 788
f 788 570 572
f 568 570 788
f 788 566 568
f 564 566 788
f 788 562 564
f 560 562 788
f 788 558 560
f 556 558 788
f 788 554 556
f 552 554 788
f 788 550 552
f 548 550 788
f 788 546 548
f 544 546 788
f 788 542 544
f 540 542 788
f 788 538 540
f 536 538 788
f 788 534 536
f 532 534 788
f 788 530 532
f 528 530 788
f 788 526 528
f 524 526 788
f 788 522 524
f 520 522 788
f 788 518 520
f 518 788 790
f 790 516 518
f 516 790 792
f 792 794 516
f 516 794 796
f 796 798 516
f 516 798 800
f 800 802 516
f 516 802 804
f 804 806 516
f 516 806 808
f 808 810 516
f 516 810 812
f 812 814 516
f 516 814 816
f 816 818 516
f 516 818 820
f 820 822 516
f 514 516 822
f 822 1078 514
f 1004 1006 114
f 114 1002 1004
f 1000 1002 114
f 114 998 1000
f 458 480 482
f 482 484 458
f 444 446 448
f 448 450 444
f 444 450 452
f 452 428 444
f 938 940 942
f 942 944 938
f 458 484 486
f 486 1302 458
f 978 992 994
f 994 1126 978
f 1078 1242 1244
f 1244 514 1078
f 996 998 114
f 994 996 1126
f 976 978 1126
f 1126 974 976
f 972 974 1126
f 1126 970 972
f 968 970 1126
f 1126 966 968
f 964 966 1126
f 1126 962 964
f 960 962 1126
f 1126 958 960
f 956 958 1126
f 1126 954 956
f 952 954 1126
f 1126 950 952
f 948 950 1126
f 1126 946 948
f 944 946 1126
f 1126 938 944
f 936 938 1126
f 1126 934 936
f 932 934 1126
f 1126 930 932
f 928 930 1126
f 1126 926 928
f 924 926 1126
f 1126 922 924
f 920 922 1126
f 1126 918 920
f 916 918 1126
f 1126 906 916
f 430 432 434
f 434 436 430
f 430 436 438
f 438 440 430
f 428 430 440
f 440 442 428
f 428 442 444
f 428 452 454
f 454 426 428
f 424 426 454
f 454 456 424
f 422 424 456
f 456 420 422
f 418 420 456
f 456 416 418
f 400 402 404
f 404 406 400
f 398 400 406
f 406 408 398
f 398 408 410
f 410 396 398
f 394 396 410
f 410 412 394
f 414 416 456
f 456 412 414
f 878 880 906
f 906 1126 878
f 1148 1150 1152
f 1152 1154 1148
f 1146 1148 1154
f 1154 1156 1146
f 1144 1146 1156
f 1156 1158 1144
f 164 382 384
f 384 386 164
f 392 394 412
f 412 390 392
f 1144 1158 1160
f 1160 856 1144
f 912 914 916
f 916 910 912
f 908 910 916
f 916 906 908
f 1296 1298 1300
f 1300 1302 1296
f 1294 1296 1302
f 1302 486 1294
f 1252 1254 1256
f 1256 514 1252
f 878 1126 1128
f 1128 1130 878
f 878 1130 1132
f 1132 1134 878
f 878 1134 1136
f 1136 1138 878
f 856 878 1138
f 1138 1140 856
f 856 1140 1142
f 1142 1144 856
f 856 1160 1162
f 1162 1164 856
f 856 1164 1166
f 1166 1168 856
f 856 1168 1170
f 1170 1172 856
f 856 1172 1174
f 1174 1176 856
f 856 1176 1178
f 1178 1038 856
f 824 1038 1037
f 1037 1040 824
f 824 1040 1042
f 1042 1044 824
f 824 1044 1046
f 1046 1048 824
f 824 1048 1050
f 1050 1052 824
f 824 1052 1054
f 1054 1056 824
f 824 1056 1058
f 1058 1060 824
f 824 1060 1062
f 1062 1064 824
f 822 824 1064
f 1064 1066 822
f 822 1066 1068
f 1068 1070 822
f 822 1070 1072
f 1072 1074 822
f 822 1074 1076
f 1076 1078 822
f 514 1244 1246
f 1246 1248 514
f 514 1248 1250
f 1250 1252 514
f 514 1256 1258
f 1258 1260 514
f 514 1260 1262
f 1262 1264 514
f 514 1264 1266
f 1266 1268 514
f 514 1268 1270
f 1270 1272 514
f 512 514 1272
f 1272 1274 512
f 512 1274 1276
f 1276 1278 512
f 512 1278 1280
f 1280 1282 512
f 486 512 1282
f 1282 1284 486
f 486 1284 1286
f 1286 1288 486
f 486 1288 1290
f 1290 1292 486
f 486 1292 1294
f 458 1302 1304
f 1304 1306 458
f 458 1306 1308
f 1308 1310 458
f 458 1310 1312
f 1312 1314 458
f 458 1314 1316
f 1316 1318 458
f 456 458 1318
f 390 412 456
f 456 388 390
f 164 386 388
f 388 456 164

