# https://github.com/mikedh/trimesh
v 155.00690000 120.00000000 -95.98840000
v -157.58370000 120.00000000 -95.98840000
v -157.58370000 120.00000000 -90.48840000
v 155.00690000 120.00000000 -90.48840000
v -158.76980000 119.96990000 -95.98840000
v -158.76980000 119.96990000 -90.48840000
v -159.94030000 119.88080000 -95.98840000
v -159.94030000 119.88080000 -90.48840000
v -161.09400000 119.73390000 -95.98840000
v -161.09400000 119.73390000 -90.48840000
v -162.22930000 119.53090000 -95.98840000
v -162.22930000 119.53090000 -90.48840000
v -163.34480000 119.27310000 -95.98840000
v -163.34480000 119.27310000 -90.48840000
v -164.43900000 118.96190000 -95.98840000
v -164.43900000 118.96190000 -90.48840000
v -165.51050000 118.59900000 -95.98840000
v -165.51050000 118.59900000 -90.48840000
v -166.55770000 118.18560000 -95.98840000
v -166.55770000 118.18560000 -90.48840000
v -167.57940000 117.72330000 -95.98840000
v -167.57940000 117.72330000 -90.48840000
v -168.57390000 117.21360000 -95.98840000
v -168.57390000 117.21360000 -90.48840000
v -169.53990000 116.65780000 -95.98840000
v -169.53990000 116.65780000 -90.48840000
v -170.47590000 116.05740000 -95.98840000
v -170.47590000 116.05740000 -90.48840000
v -171.38040000 115.41390000 -95.98840000
v -171.38040000 115.41390000 -90.48840000
v -172.25200000 114.72880000 -95.98840000
v -172.25200000 114.72880000 -90.48840000
v -173.08910000 114.00350000 -95.98840000
v -173.08910000 114.00350000 -90.48840000
v -173.89050000 113.23940000 -95.98840000
v -173.89050000 113.23940000 -90.48840000
v -174.65460000 112.43800000 -95.98840000
v -174.65460000 112.43800000 -90.48840000
v -175.37990000 111.60080000 -95.98840000
v -175.37990000 111.60080000 -90.48840000
v -176.06510000 110.72920000 -95.98840000
v -176.06510000 110.72920000 -90.48840000
v -176.70860000 109.82470000 -95.98840000
v -176.70860000 109.82470000 -90.48840000
v -177.30890000 108.88880000 -95.98840000
v -177.30890000 108.88880000 -90.48840000
v -177.86470000 107.92280000 -95.98840000
v -177.86470000 107.92280000 -90.48840000
v -178.37450000 106.92830000 -95.98840000
v -178.37450000 106.92830000 -90.48840000
v -178.83680000 105.90660000 -95.98840000
v -178.83680000 105.90660000 -90.48840000
v -179.25010000 104.85930000 -95.98840000
v -179.25010000 104.85930000 -90.48840000
v -179.61310000 103.78790000 -95.98840000
v -179.61310000 103.78790000 -90.48840000
v -179.92420000 102.69370000 -95.98840000
v -179.92420000 102.69370000 -90.48840000
v -180.18200000 101.57820000 -95.98840000
v -180.18200000 101.57820000 -90.48840000
v -180.38510000 100.44290000 -95.98840000
v -180.38510000 100.44290000 -90.48840000
v -180.53190000 99.28920000 -95.98840000
v -180.53190000 99.28920000 -90.48840000
v -180.62110000 98.11860000 -95.98840000
v -180.62110000 98.11860000 -90.48840000
v -180.65110000 96.93260000 -95.98840000
v -180.65110000 96.93260000 -90.48840000
v -180.65110000 -0.00000000 -95.98840000
v -180.65110000 -0.00000000 -90.48840000
v 178.07430000 -0.00000000 -95.98840000
v 178.07430000 -0.00000000 -90.48840000
v 178.07430000 96.93260000 -95.98840000
v 178.07430000 96.93260000 -90.48840000
v 178.04430000 98.11860000 -95.98840000
v 178.04430000 98.11860000 -90.48840000
v 177.95510000 99.28920000 -95.98840000
v 177.95510000 99.28920000 -90.48840000
v 177.80830000 100.44290000 -95.98840000
v 177.80830000 100.44290000 -90.48840000
v 177.60520000 101.57820000 -95.98840000
v 177.60520000 101.57820000 -90.48840000
v 177.34740000 102.69370000 -95.98840000
v 177.34740000 102.69370000 -90.48840000
v 177.03630000 103.78790000 -95.98840000
v 177.03630000 103.78790000 -90.48840000
v 176.67330000 104.85930000 -95.98840000
v 176.67330000 104.85930000 -90.48840000
v 176.26000000 105.90660000 -95.98840000
v 176.26000000 105.90660000 -90.48840000
v 175.79770000 106.92830000 -95.98840000
v 175.79770000 106.92830000 -90.48840000
v 175.28790000 107.92280000 -95.98840000
v 175.28790000 107.92280000 -90.48840000
v 174.73210000 108.88880000 -95.98840000
v 174.73210000 108.88880000 -90.48840000
v 174.13180000 109.82480000 -95.98840000
v 174.13180000 109.82480000 -90.48840000
v 173.48830000 110.72920000 -95.98840000
v 173.48830000 110.72920000 -90.48840000
v 172.80310000 111.60080000 -95.98840000
v 172.80310000 111.60080000 -90.48840000
v 172.07780000 112.43800000 -95.98840000
v 172.07780000 112.43800000 -90.48840000
v 171.31370000 113.23940000 -95.98840000
v 171.31370000 113.23940000 -90.48840000
v 170.51240000 114.00350000 -95.98840000
v 170.51240000 114.00350000 -90.48840000
v 169.67520000 114.72880000 -95.98840000
v 169.67520000 114.72880000 -90.48840000
v 168.80360000 115.41390000 -95.98840000
v 168.80360000 115.41390000 -90.48840000
v 167.89910000 116.05740000 -95.98840000
v 167.89910000 116.05740000 -90.48840000
v 166.96310000 116.65780000 -95.98840000
v 166.96310000 116.65780000 -90.48840000
v 165.99710000 117.21360000 -95.98840000
v 165.99710000 117.21360000 -90.48840000
v 165.00260000 117.72330000 -95.98840000
v 165.00260000 117.72330000 -90.48840000
v 163.98100000 118.18560000 -95.98840000
v 163.98100000 118.18560000 -90.48840000
v 162.93370000 118.59900000 -95.98840000
v 162.93370000 118.59900000 -90.48840000
v 161.86220000 118.96190000 -95.98840000
v 161.86220000 118.96190000 -90.48840000
v 160.76800000 119.27310000 -95.98840000
v 160.76800000 119.27310000 -90.48840000
v 159.65250000 119.53090000 -95.98840000
v 159.65250000 119.53090000 -90.48840000
v 158.51720000 119.73390000 -95.98840000
v 158.51720000 119.73390000 -90.48840000
v 157.36360000 119.88080000 -95.98840000
v 157.36360000 119.88080000 -90.48840000
v 156.19300000 119.96990000 -95.98840000
v 156.19300000 119.96990000 -90.48840000
v 156.01940000 116.84140000 -95.98840000
v 157.03130000 116.76430000 -95.98840000
v 157.03130000 116.76430000 -90.48840000
v 156.01940000 116.84140000 -90.48840000
v 158.02860000 116.63730000 -95.98840000
v 158.02860000 116.63730000 -90.48840000
v 159.01000000 116.46160000 -95.98840000
v 159.01000000 116.46160000 -90.48840000
v 159.97440000 116.23860000 -95.98840000
v 159.97440000 116.23860000 -90.48840000
v 160.92040000 115.96960000 -95.98840000
v 160.92040000 115.96960000 -90.48840000
v 161.84680000 115.65560000 -95.98840000
v 161.84680000 115.65560000 -90.48840000
v 162.75230000 115.29810000 -95.98840000
v 162.75230000 115.29810000 -90.48840000
v 163.63570000 114.89830000 -95.98840000
v 163.63570000 114.89830000 -90.48840000
v 164.49570000 114.45740000 -95.98840000
v 164.49570000 114.45740000 -90.48840000
v 165.33100000 113.97680000 -95.98840000
v 165.33100000 113.97680000 -90.48840000
v 166.14040000 113.45750000 -95.98840000
v 166.14040000 113.45750000 -90.48840000
v 166.92270000 112.90100000 -95.98840000
v 166.92270000 112.90100000 -90.48840000
v 167.67640000 112.30850000 -95.98840000
v 167.67640000 112.30850000 -90.48840000
v 168.40050000 111.68120000 -95.98840000
v 168.40050000 111.68120000 -90.48840000
v 169.09360000 111.02040000 -95.98840000
v 169.09360000 111.02040000 -90.48840000
v 169.75450000 110.32740000 -95.98840000
v 169.75450000 110.32740000 -90.48840000
v 170.38180000 109.60340000 -95.98840000
v 170.38180000 109.60340000 -90.48840000
v 170.97440000 108.84970000 -95.98840000
v 170.97440000 108.84970000 -90.48840000
v 171.53100000 108.06750000 -95.98840000
v 171.53100000 108.06750000 -90.48840000
v 172.05030000 107.25810000 -95.98840000
v 172.05030000 107.25810000 -90.48840000
v 172.53110000 106.42280000 -95.98840000
v 172.53110000 106.42280000 -90.48840000
v 172.97210000 105.56280000 -95.98840000
v 172.97210000 105.56280000 -90.48840000
v 173.37200000 104.67930000 -95.98840000
v 173.37200000 104.67930000 -90.48840000
v 173.72960000 103.77370000 -95.98840000
v 173.72960000 103.77370000 -90.48840000
v 174.04360000 102.84720000 -95.98840000
v 174.04360000 102.84720000 -90.48840000
v 174.31280000 101.90110000 -95.98840000
v 174.31280000 101.90110000 -90.48840000
v 174.53590000 100.93660000 -95.98840000
v 174.53590000 100.93660000 -90.48840000
v 174.71150000 99.95490000 -95.98840000
v 174.71150000 99.95490000 -90.48840000
v 174.83860000 98.95740000 -95.98840000
v 174.83860000 98.95740000 -90.48840000
v 174.91570000 97.94530000 -95.98840000
v 174.91570000 97.94530000 -90.48840000
v 174.94170000 96.91990000 -95.98840000
v 174.94170000 96.91990000 -90.48840000
v 174.94170000 3.13260000 -95.98840000
v 174.94170000 3.13260000 -90.48840000
v -177.51850000 3.13260000 -95.98840000
v -177.51850000 3.13260000 -90.48840000
v -177.51850000 96.91990000 -95.98840000
v -177.51850000 96.91990000 -90.48840000
v -177.49250000 97.94540000 -95.98840000
v -177.49250000 97.94540000 -90.48840000
v -177.41530000 98.95750000 -95.98840000
v -177.41530000 98.95750000 -90.48840000
v -177.28830000 99.95500000 -95.98840000
v -177.28830000 99.95500000 -90.48840000
v -177.11260000 100.93660000 -95.98840000
v -177.11260000 100.93660000 -90.48840000
v -176.88960000 101.90110000 -95.98840000
v -176.88960000 101.90110000 -90.48840000
v -176.62040000 102.84730000 -95.98840000
v -176.62040000 102.84730000 -90.48840000
v -176.30640000 103.77370000 -95.98840000
v -176.30640000 103.77370000 -90.48840000
v -175.94880000 104.67930000 -95.98840000
v -175.94880000 104.67930000 -90.48840000
v -175.54890000 105.56280000 -95.98840000
v -175.54890000 105.56280000 -90.48840000
v -175.10790000 106.42280000 -95.98840000
v -175.10790000 106.42280000 -90.48840000
v -174.62720000 107.25810000 -95.98840000
v -174.62720000 107.25810000 -90.48840000
v -174.10780000 108.06750000 -95.98840000
v -174.10780000 108.06750000 -90.48840000
v -173.55130000 108.84970000 -95.98840000
v -173.55130000 108.84970000 -90.48840000
v -172.95860000 109.60340000 -95.98840000
v -172.95860000 109.60340000 -90.48840000
v -172.33130000 110.32740000 -95.98840000
v -172.33130000 110.32740000 -90.48840000
v -171.67040000 111.02040000 -95.98840000
v -171.67040000 111.02040000 -90.48840000
v -170.97730000 111.68120000 -95.98840000
v -170.97730000 111.68120000 -90.48840000
v -170.25330000 112.30850000 -95.98840000
v -170.25330000 112.30850000 -90.48840000
v -169.49950000 112.90100000 -95.98840000
v -169.49950000 112.90100000 -90.48840000
v -168.71730000 113.45750000 -95.98840000
v -168.71730000 113.45750000 -90.48840000
v -167.90790000 113.97670000 -95.98840000
v -167.90790000 113.97670000 -90.48840000
v -167.07250000 114.45740000 -95.98840000
v -167.07250000 114.45740000 -90.48840000
v -166.21250000 114.89830000 -95.98840000
v -166.21250000 114.89830000 -90.48840000
v -165.32920000 115.29810000 -95.98840000
v -165.32920000 115.29810000 -90.48840000
v -164.42360000 115.65560000 -95.98840000
v -164.42360000 115.65560000 -90.48840000
v -163.49720000 115.96960000 -95.98840000
v -163.49720000 115.96960000 -90.48840000
v -162.55120000 116.23860000 -95.98840000
v -162.55120000 116.23860000 -90.48840000
v -161.58680000 116.46160000 -95.98840000
v -161.58680000 116.46160000 -90.48840000
v -160.60540000 116.63730000 -95.98840000
v -160.60540000 116.63730000 -90.48840000
v -159.60810000 116.76430000 -95.98840000
v -159.60810000 116.76430000 -90.48840000
v -158.59620000 116.84140000 -95.98840000
v -158.59620000 116.84140000 -90.48840000
v -157.57100000 116.86740000 -95.98840000
v -157.57100000 116.86740000 -90.48840000
v 154.99420000 116.86740000 -95.98840000
v 154.99420000 116.86740000 -90.48840000
f 1 2 3
f 3 4 1
f 2 5 6
f 6 3 2
f 5 7 8
f 8 6 5
f 7 9 10
f 10 8 7
f 9 11 12
f 12 10 9
f 11 13 14
f 14 12 11
f 13 15 16
f 16 14 13
f 15 17 18
f 18 16 15
f 17 19 20
f 20 18 17
f 19 21 22
f 22 20 19
f 21 23 24
f 24 22 21
f 23 25 26
f 26 24 23
f 25 27 28
f 28 26 25
f 27 29 30
f 30 28 27
f 29 31 32
f 32 30 29
f 31 33 34
f 34 32 31
f 33 35 36
f 36 34 33
f 35 37 38
f 38 36 35
f 37 39 40
f 40 38 37
f 39 41 42
f 42 40 39
f 41 43 44
f 44 42 41
f 43 45 46
f 46 44 43
f 45 47 48
f 48 46 45
f 47 49 50
f 50 48 47
f 49 51 52
f 52 50 49
f 51 53 54
f 54 52 51
f 53 55 56
f 56 54 53
f 55 57 58
f 58 56 55
f 57 59 60
f 60 58 57
f 59 61 62
f 62 60 59
f 61 63 64
f 64 62 61
f 63 65 66
f 66 64 63
f 65 67 68
f 68 66 65
f 67 69 70
f 70 68 67
f 69 71 72
f 72 70 69
f 71 73 74
f 74 72 71
f 73 75 76
f 76 74 73
f 75 77 78
f 78 76 75
f 77 79 80
f 80 78 77
f 79 81 82
f 82 80 79
f 81 83 84
f 84 82 81
f 83 85 86
f 86 84 83
f 85 87 88
f 88 86 85
f 87 89 90
f 90 88 87
f 89 91 92
f 92 90 89
f 91 93 94
f 94 92 91
f 93 95 96
f 96 94 93
f 95 97 98
f 98 96 95
f 97 99 100
f 100 98 97
f 99 101 102
f 102 100 99
f 101 103 104
f 104 102 101
f 103 105 106
f 106 104 103
f 105 107 108
f 108 106 105
f 107 109 110
f 110 108 107
f 109 111 112
f 112 110 109
f 111 113 114
f 114 112 111
f 113 115 116
f 116 114 113
f 115 117 118
f 118 116 115
f 117 119 120
f 120 118 117
f 119 121 122
f 122 120 119
f 121 123 124
f 124 122 121
f 123 125 126
f 126 124 123
f 125 127 128
f 128 126 125
f 127 129 130
f 130 128 127
f 129 131 132
f 132 130 129
f 131 133 134
f 134 132 131
f 133 135 136
f 136 134 133
f 135 1 4
f 4 136 135
f 137 138 139
f 139 140 137
f 138 141 142
f 142 139 138
f 141 143 144
f 144 142 141
f 143 145 146
f 146 144 143
f 145 147 148
f 148 146 145
f 147 149 150
f 150 148 147
f 149 151 152
f 152 150 149
f 151 153 154
f 154 152 151
f 153 155 156
f 156 154 153
f 155 157 158
f 158 156 155
f 157 159 160
f 160 158 157
f 159 161 162
f 162 160 159
f 161 163 164
f 164 162 161
f 163 165 166
f 166 164 163
f 165 167 168
f 168 166 165
f 167 169 170
f 170 168 167
f 169 171 172
f 172 170 169
f 171 173 174
f 174 172 171
f 173 175 176
f 176 174 173
f 175 177 178
f 178 176 175
f 177 179 180
f 180 178 177
f 179 181 182
f 182 180 179
f 181 183 184
f 184 182 181
f 183 185 186
f 186 184 183
f 185 187 188
f 188 186 185
f 187 189 190
f 190 188 187
f 189 191 192
f 192 190 189
f 191 193 194
f 194 192 191
f 193 195 196
f 196 194 193
f 195 197 198
f 198 196 195
f 197 199 200
f 200 198 197
f 199 201 202
f 202 200 199
f 201 203 204
f 204 202 201
f 203 205 206
f 206 204 203
f 205 207 208
f 208 206 205
f 207 209 210
f 210 208 207
f 209 211 212
f 212 210 209
f 211 213 214
f 214 212 211
f 213 215 216
f 216 214 213
f 215 217 218
f 218 216 215
f 217 219 220
f 220 218 217
f 219 221 222
f 222 220 219
f 221 223 224
f 224 222 221
f 223 225 226
f 226 224 223
f 225 227 228
f 228 226 225
f 227 229 230
f 230 228 227
f 229 231 232
f 232 230 229
f 231 233 234
f 234 232 231
f 233 235 236
f 236 234 233
f 235 237 238
f 238 236 235
f 237 239 240
f 240 238 237
f 239 241 242
f 242 240 239
f 241 243 244
f 244 242 241
f 243 245 246
f 246 244 243
f 245 247 248
f 248 246 245
f 247 249 250
f 250 248 247
f 249 251 252
f 252 250 249
f 251 253 254
f 254 252 251
f 253 255 256
f 256 254 253
f 255 257 258
f 258 256 255
f 257 259 260
f 260 258 257
f 259 261 262
f 262 260 259
f 261 263 264
f 264 262 261
f 263 265 266
f 266 264 263
f 265 267 268
f 268 266 265
f 267 269 270
f 270 268 267
f 269 271 272
f 272 270 269
f 271 137 140
f 140 272 271
f 269 5 2
f 2 1 269
f 1 135 271
f 271 269 1
f 135 133 137
f 137 271 135
f 267 7 5
f 5 269 267
f 133 131 138
f 138 137 133
f 265 9 7
f 7 267 265
f 263 11 9
f 9 265 263
f 261 13 11
f 11 263 261
f 259 15 13
f 13 261 259
f 257 17 15
f 15 259 257
f 255 19 17
f 17 257 255
f 253 21 19
f 19 255 253
f 251 23 21
f 21 253 251
f 249 25 23
f 23 251 249
f 247 27 25
f 25 249 247
f 245 29 27
f 27 247 245
f 243 31 29
f 29 245 243
f 241 33 31
f 31 243 241
f 239 35 33
f 33 241 239
f 237 37 35
f 35 239 237
f 235 39 37
f 37 237 235
f 233 41 39
f 39 235 233
f 231 43 41
f 41 233 231
f 229 45 43
f 43 231 229
f 227 47 45
f 45 229 227
f 225 49 47
f 47 227 225
f 223 51 49
f 49 225 223
f 221 53 51
f 51 223 221
f 219 55 53
f 53 221 219
f 217 57 55
f 55 219 217
f 215 59 57
f 57 217 215
f 213 61 59
f 59 215 213
f 211 63 61
f 61 213 211
f 209 65 63
f 63 211 209
f 207 67 65
f 65 209 207
f 205 203 67
f 67 207 205
f 131 129 141
f 141 138 131
f 129 127 143
f 143 141 129
f 127 125 145
f 145 143 127
f 125 123 147
f 147 145 125
f 123 121 149
f 149 147 123
f 121 119 151
f 151 149 121
f 119 117 153
f 153 151 119
f 117 115 155
f 155 153 117
f 115 113 157
f 157 155 115
f 113 111 159
f 159 157 113
f 111 109 161
f 161 159 111
f 109 107 163
f 163 161 109
f 107 105 165
f 165 163 107
f 105 103 167
f 167 165 105
f 103 101 169
f 169 167 103
f 101 99 171
f 171 169 101
f 99 97 173
f 173 171 99
f 97 95 175
f 175 173 97
f 95 93 177
f 177 175 95
f 93 91 179
f 179 177 93
f 91 89 181
f 181 179 91
f 89 87 183
f 183 181 89
f 87 85 185
f 185 183 87
f 85 83 187
f 187 185 85
f 83 81 189
f 189 187 83
f 81 79 191
f 191 189 81
f 79 77 193
f 193 191 79
f 77 75 195
f 195 193 77
f 75 73 197
f 197 195 75
f 73 71 199
f 199 197 73
f 71 69 201
f 201 199 71
f 69 67 203
f 203 201 69
f 270 272 4
f 4 3 270
f 136 4 272
f 272 140 136
f 270 3 6
f 6 268 270
f 134 136 140
f 140 139 134
f 268 6 8
f 8 266 268
f 266 8 10
f 10 264 266
f 264 10 12
f 12 262 264
f 262 12 14
f 14 260 262
f 260 14 16
f 16 258 260
f 258 16 18
f 18 256 258
f 256 18 20
f 20 254 256
f 254 20 22
f 22 252 254
f 252 22 24
f 24 250 252
f 250 24 26
f 26 248 250
f 248 26 28
f 28 246 248
f 246 28 30
f 30 244 246
f 244 30 32
f 32 242 244
f 242 32 34
f 34 240 242
f 240 34 36
f 36 238 240
f 238 36 38
f 38 236 238
f 236 38 40
f 40 234 236
f 234 40 42
f 42 232 234
f 232 42 44
f 44 230 232
f 230 44 46
f 46 228 230
f 228 46 48
f 48 226 228
f 226 48 50
f 50 224 226
f 224 50 52
f 52 222 224
f 222 52 54
f 54 220 222
f 220 54 56
f 56 218 220
f 218 56 58
f 58 216 218
f 216 58 60
f 60 214 216
f 214 60 62
f 62 212 214
f 212 62 64
f 64 210 212
f 210 64 66
f 66 208 210
f 208 66 68
f 68 206 208
f 132 134 139
f 139 142 132
f 130 132 142
f 142 144 130
f 128 130 144
f 144 146 128
f 126 128 146
f 146 148 126
f 124 126 148
f 148 150 124
f 122 124 150
f 150 152 122
f 120 122 152
f 152 154 120
f 118 120 154
f 154 156 118
f 116 118 156
f 156 158 116
f 114 116 158
f 158 160 114
f 112 114 160
f 160 162 112
f 110 112 162
f 162 164 110
f 108 110 164
f 164 166 108
f 106 108 166
f 166 168 106
f 104 106 168
f 168 170 104
f 102 104 170
f 170 172 102
f 100 102 172
f 172 174 100
f 98 100 174
f 174 176 98
f 96 98 176
f 176 178 96
f 94 96 178
f 178 180 94
f 92 94 180
f 180 182 92
f 90 92 182
f 182 184 90
f 88 90 184
f 184 186 88
f 86 88 186
f 186 188 86
f 84 86 188
f 188 190 84
f 82 84 190
f 190 192 82
f 80 82 192
f 192 194 80
f 78 80 194
f 194 196 78
f 76 78 196
f 196 198 76
f 74 76 198
f 198 200 74
f 72 74 200
f 200 202 72
f 70 72 202
f 202 204 70
f 68 70 204
f 204 206 68

