# https://github.com/mikedh/trimesh
v 155.00690000 120.00000000 -95.98840000
v -157.58370000 120.00000000 -95.98840000
v -157.58370000 120.00000000 -91.98840000
v 155.00690000 120.00000000 -91.98840000
v -158.76980000 119.96990000 -95.98840000
v -158.76980000 119.96990000 -91.98840000
v -159.94030000 119.88080000 -95.98840000
v -159.94030000 119.88080000 -91.98840000
v -161.09400000 119.73390000 -95.98840000
v -161.09400000 119.73390000 -91.98840000
v -162.22930000 119.53090000 -95.98840000
v -162.22930000 119.53090000 -91.98840000
v -163.34480000 119.27310000 -95.98840000
v -163.34480000 119.27310000 -91.98840000
v -164.43900000 118.96190000 -95.98840000
v -164.43900000 118.96190000 -91.98840000
v -165.51050000 118.59900000 -95.98840000
v -165.51050000 118.59900000 -91.98840000
v -166.55770000 118.18560000 -95.98840000
v -166.55770000 118.18560000 -91.98840000
v -167.57940000 117.72330000 -95.98840000
v -167.57940000 117.72330000 -91.98840000
v -168.57390000 117.21360000 -95.98840000
v -168.57390000 117.21360000 -91.98840000
v -169.53990000 116.65780000 -95.98840000
v -169.53990000 116.65780000 -91.98840000
v -170.47590000 116.05740000 -95.98840000
v -170.47590000 116.05740000 -91.98840000
v -171.38040000 115.41390000 -95.98840000
v -171.38040000 115.41390000 -91.98840000
v -172.25200000 114.72880000 -95.98840000
v -172.25200000 114.72880000 -91.98840000
v -173.08910000 114.00350000 -95.98840000
v -173.08910000 114.00350000 -91.98840000
v -173.89050000 113.23940000 -95.98840000
v -173.89050000 113.23940000 -91.98840000
v -174.65460000 112.43800000 -95.98840000
v -174.65460000 112.43800000 -91.98840000
v -175.37990000 111.60080000 -95.98840000
v -175.37990000 111.60080000 -91.98840000
v -176.06510000 110.72920000 -95.98840000
v -176.06510000 110.72920000 -91.98840000
v -176.70860000 109.82470000 -95.98840000
v -176.70860000 109.82470000 -91.98840000
v -177.30890000 108.88880000 -95.98840000
v -177.30890000 108.88880000 -91.98840000
v -177.86470000 107.92280000 -95.98840000
v -177.86470000 107.92280000 -91.98840000
v -178.37450000 106.92830000 -95.98840000
v -178.37450000 106.92830000 -91.98840000
v -178.83680000 105.90660000 -95.98840000
v -178.83680000 105.90660000 -91.98840000
v -179.25010000 104.85930000 -95.98840000
v -179.25010000 104.85930000 -91.98840000
v -179.61310000 103.78790000 -95.98840000
v -179.61310000 103.78790000 -91.98840000
v -179.92420000 102.69370000 -95.98840000
v -179.92420000 102.69370000 -91.98840000
v -180.18200000 101.57820000 -95.98840000
v -180.18200000 101.57820000 -91.98840000
v -180.38510000 100.44290000 -95.98840000
v -180.38510000 100.44290000 -91.98840000
v -180.53190000 99.28920000 -95.98840000
v -180.53190000 99.28920000 -91.98840000
v -180.62110000 98.11860000 -95.98840000
v -180.62110000 98.11860000 -91.98840000
v -180.65110000 96.93260000 -95.98840000
v -180.65110000 96.93260000 -91.98840000
v -180.65110000 -0.00000000 -95.98840000
v -180.65110000 -0.00000000 -91.98840000
v 178.07430000 -0.00000000 -95.98840000
v 178.07430000 -0.00000000 -91.98840000
v 178.07430000 96.93260000 -95.98840000
v 178.07430000 96.93260000 -91.98840000
v 178.04430000 98.11860000 -95.98840000
v 178.04430000 98.11860000 -91.98840000
v 177.95510000 99.28920000 -95.98840000
v 177.95510000 99.28920000 -91.98840000
v 177.80830000 100.44290000 -95.98840000
v 177.80830000 100.44290000 -91.98840000
v 177.60520000 101.57820000 -95.98840000
v 177.60520000 101.57820000 -91.98840000
v 177.34740000 102.69370000 -95.98840000
v 177.34740000 102.69370000 -91.98840000
v 177.03630000 103.78790000 -95.98840000
v 177.03630000 103.78790000 -91.98840000
v 176.67330000 104.85930000 -95.98840000
v 176.67330000 104.85930000 -91.98840000
v 176.26000000 105.90660000 -95.98840000
v 176.26000000 105.90660000 -91.98840000
v 175.79770000 106.92830000 -95.98840000
v 175.79770000 106.92830000 -91.98840000
v 175.28790000 107.92280000 -95.98840000
v 175.28790000 107.92280000 -91.98840000
v 174.73210000 108.88880000 -95.98840000
v 174.73210000 108.88880000 -91.98840000
v 174.13180000 109.82480000 -95.98840000
v 174.13180000 109.82480000 -91.98840000
v 173.48830000 110.72920000 -95.98840000
v 173.48830000 110.72920000 -91.98840000
v 172.80310000 111.60080000 -95.98840000
v 172.80310000 111.60080000 -91.98840000
v 172.07780000 112.43800000 -95.98840000
v 172.07780000 112.43800000 -91.98840000
v 171.31370000 113.23940000 -95.98840000
v 171.31370000 113.23940000 -91.98840000
v 170.51240000 114.00350000 -95.98840000
v 170.51240000 114.00350000 -91.98840000
v 169.67520000 114.72880000 -95.98840000
v 169.67520000 114.72880000 -91.98840000
v 168.80360000 115.41390000 -95.98840000
v 168.80360000 115.41390000 -91.98840000
v 167.89910000 116.05740000 -95.98840000
v 167.89910000 116.05740000 -91.98840000
v 166.96310000 116.65780000 -95.98840000
v 166.96310000 116.65780000 -91.98840000
v 165.99710000 117.21360000 -95.98840000
v 165.99710000 117.21360000 -91.98840000
v 165.00260000 117.72330000 -95.98840000
v 165.00260000 117.72330000 -91.98840000
v 163.98100000 118.18560000 -95.98840000
v 163.98100000 118.18560000 -91.98840000
v 162.93370000 118.59900000 -95.98840000
v 162.93370000 118.59900000 -91.98840000
v 161.86220000 118.96190000 -95.98840000
v 161.86220000 118.96190000 -91.98840000
v 160.76800000 119.27310000 -95.98840000
v 160.76800000 119.27310000 -91.98840000
v 159.65250000 119.53090000 -95.98840000
v 159.65250000 119.53090000 -91.98840000
v 158.51720000 119.73390000 -95.98840000
v 158.51720000 119.73390000 -91.98840000
v 157.36360000 119.88080000 -95.98840000
v 157.36360000 119.88080000 -91.98840000
v 156.19300000 119.96990000 -95.98840000
v 156.19300000 119.96990000 -91.98840000
v -149.80170000 103.17850000 -89.70860000
v -150.55310000 103.12130000 -89.70860000
v -150.55310000 103.12130000 -87.70860000
v -149.80170000 103.17850000 -87.70860000
v -151.29380000 103.02700000 -89.70860000
v -151.29380000 103.02700000 -87.70860000
v -152.02260000 102.89670000 -89.70860000
v -152.02260000 102.89670000 -87.70860000
v -152.73870000 102.73120000 -89.70860000
v -152.73870000 102.73120000 -87.70860000
v -153.44120000 102.53140000 -89.70860000
v -153.44120000 102.53140000 -87.70860000
v -154.12900000 102.29840000 -89.70860000
v -154.12900000 102.29840000 -87.70860000
v -154.80140000 102.03300000 -89.70860000
v -154.80140000 102.03300000 -87.70860000
v -155.45720000 101.73630000 -89.70860000
v -155.45720000 101.73630000 -87.70860000
v -156.09570000 101.40900000 -89.70860000
v -156.09570000 101.40900000 -87.70860000
v -156.71580000 101.05220000 -89.70860000
v -156.71580000 101.05220000 -87.70860000
v -157.31670000 100.66680000 -89.70860000
v -157.31670000 100.66680000 -87.70860000
v -157.89740000 100.25370000 -89.70860000
v -157.89740000 100.25370000 -87.70860000
v -158.45690000 99.81390000 -89.70860000
v -158.45690000 99.81390000 -87.70860000
v -158.99440000 99.34820000 -89.70860000
v -158.99440000 99.34820000 -87.70860000
v -159.50880000 98.85770000 -89.70860000
v -159.50880000 98.85770000 -87.70860000
v -159.99930000 98.34320000 -89.70860000
v -159.99930000 98.34320000 -87.70860000
v -160.46500000 97.80580000 -89.70860000
v -160.46500000 97.80580000 -87.70860000
v -160.90480000 97.24620000 -89.70860000
v -160.90480000 97.24620000 -87.70860000
v -161.31790000 96.66560000 -89.70860000
v -161.31790000 96.66560000 -87.70860000
v -161.70330000 96.06470000 -89.70860000
v -161.70330000 96.06470000 -87.70860000
v -162.06020000 95.44460000 -89.70860000
v -162.06020000 95.44460000 -87.70860000
v -162.38740000 94.80610000 -89.70860000
v -162.38740000 94.80610000 -87.70860000
v -162.68420000 94.15020000 -89.70860000
v -162.68420000 94.15020000 -87.70860000
v -162.94950000 93.47790000 -89.70860000
v -162.94950000 93.47790000 -87.70860000
v -163.18260000 92.79000000 -89.70860000
v -163.18260000 92.79000000 -87.70860000
v -163.38230000 92.08760000 -89.70860000
v -163.38230000 92.08760000 -87.70860000
v -163.54780000 91.37150000 -89.70860000
v -163.54780000 91.37150000 -87.70860000
v -163.67810000 90.64260000 -89.70860000
v -163.67810000 90.64260000 -87.70860000
v -163.77240000 89.90200000 -89.70860000
v -163.77240000 89.90200000 -87.70860000
v -163.82970000 89.15050000 -89.70860000
v -163.82970000 89.15050000 -87.70860000
v -163.84900000 88.38910000 -89.70860000
v -163.84900000 88.38910000 -87.70860000
v -163.84890000 1.20900000 -89.70860000
v -163.84890000 1.20900000 -87.70860000
v 161.27220000 1.20900000 -89.70860000
v 161.27220000 1.20900000 -87.70860000
v 161.27220000 88.38910000 -89.70860000
v 161.27220000 88.38910000 -87.70860000
v 161.25290000 89.15050000 -89.70860000
v 161.25290000 89.15050000 -87.70860000
v 161.19560000 89.90200000 -89.70860000
v 161.19560000 89.90200000 -87.70860000
v 161.10140000 90.64260000 -89.70860000
v 161.10140000 90.64260000 -87.70860000
v 160.97100000 91.37150000 -89.70860000
v 160.97100000 91.37150000 -87.70860000
v 160.80550000 92.08760000 -89.70860000
v 160.80550000 92.08760000 -87.70860000
v 160.60580000 92.79000000 -89.70860000
v 160.60580000 92.79000000 -87.70860000
v 160.37280000 93.47790000 -89.70860000
v 160.37280000 93.47790000 -87.70860000
v 160.10740000 94.15020000 -89.70860000
v 160.10740000 94.15020000 -87.70860000
v 159.81060000 94.80610000 -89.70860000
v 159.81060000 94.80610000 -87.70860000
v 159.48340000 95.44460000 -89.70860000
v 159.48340000 95.44460000 -87.70860000
v 159.12660000 96.06470000 -89.70860000
v 159.12660000 96.06470000 -87.70860000
v 158.74110000 96.66560000 -89.70860000
v 158.74110000 96.66560000 -87.70860000
v 158.32800000 97.24620000 -89.70860000
v 158.32800000 97.24620000 -87.70860000
v 157.88820000 97.80580000 -89.70860000
v 157.88820000 97.80580000 -87.70860000
v 157.42260000 98.34320000 -89.70860000
v 157.42260000 98.34320000 -87.70860000
v 156.93200000 98.85770000 -89.70860000
v 156.93200000 98.85770000 -87.70860000
v 156.41760000 99.34820000 -89.70860000
v 156.41760000 99.34820000 -87.70860000
v 155.88010000 99.81390000 -89.70860000
v 155.88010000 99.81390000 -87.70860000
v 155.32060000 100.25370000 -89.70860000
v 155.32060000 100.25370000 -87.70860000
v 154.73990000 100.66680000 -89.70860000
v 154.73990000 100.66680000 -87.70860000
v 154.13910000 101.05220000 -89.70860000
v 154.13910000 101.05220000 -87.70860000
v 153.51890000 101.40900000 -89.70860000
v 153.51890000 101.40900000 -87.70860000
v 152.88040000 101.73630000 -89.70860000
v 152.88040000 101.73630000 -87.70860000
v 152.22460000 102.03300000 -89.70860000
v 152.22460000 102.03300000 -87.70860000
v 151.55230000 102.29840000 -89.70860000
v 151.55230000 102.29840000 -87.70860000
v 150.86440000 102.53140000 -89.70860000
v 150.86440000 102.53140000 -87.70860000
v 150.16200000 102.73110000 -89.70860000
v 150.16200000 102.73110000 -87.70860000
v 149.44580000 102.89670000 -89.70860000
v 149.44580000 102.89670000 -87.70860000
v 148.71700000 103.02700000 -89.70860000
v 148.71700000 103.02700000 -87.70860000
v 147.97640000 103.12130000 -89.70860000
v 147.97640000 103.12130000 -87.70860000
v 147.22490000 103.17850000 -89.70860000
v 147.22490000 103.17850000 -87.70860000
v 146.46350000 103.19780000 -89.70860000
v 146.46350000 103.19780000 -87.70860000
v -149.04030000 103.19780000 -89.70860000
v -149.04030000 103.19780000 -87.70860000
f 1 2 3
f 3 4 1
f 2 5 6
f 6 3 2
f 5 7 8
f 8 6 5
f 7 9 10
f 10 8 7
f 9 11 12
f 12 10 9
f 11 13 14
f 14 12 11
f 13 15 16
f 16 14 13
f 15 17 18
f 18 16 15
f 17 19 20
f 20 18 17
f 19 21 22
f 22 20 19
f 21 23 24
f 24 22 21
f 23 25 26
f 26 24 23
f 25 27 28
f 28 26 25
f 27 29 30
f 30 28 27
f 29 31 32
f 32 30 29
f 31 33 34
f 34 32 31
f 33 35 36
f 36 34 33
f 35 37 38
f 38 36 35
f 37 39 40
f 40 38 37
f 39 41 42
f 42 40 39
f 41 43 44
f 44 42 41
f 43 45 46
f 46 44 43
f 45 47 48
f 48 46 45
f 47 49 50
f 50 48 47
f 49 51 52
f 52 50 49
f 51 53 54
f 54 52 51
f 53 55 56
f 56 54 53
f 55 57 58
f 58 56 55
f 57 59 60
f 60 58 57
f 59 61 62
f 62 60 59
f 61 63 64
f 64 62 61
f 63 65 66
f 66 64 63
f 65 67 68
f 68 66 65
f 67 69 70
f 70 68 67
f 69 71 72
f 72 70 69
f 71 73 74
f 74 72 71
f 73 75 76
f 76 74 73
f 75 77 78
f 78 76 75
f 77 79 80
f 80 78 77
f 79 81 82
f 82 80 79
f 81 83 84
f 84 82 81
f 83 85 86
f 86 84 83
f 85 87 88
f 88 86 85
f 87 89 90
f 90 88 87
f 89 91 92
f 92 90 89
f 91 93 94
f 94 92 91
f 93 95 96
f 96 94 93
f 95 97 98
f 98 96 95
f 97 99 100
f 100 98 97
f 99 101 102
f 102 100 99
f 101 103 104
f 104 102 101
f 103 105 106
f 106 104 103
f 105 107 108
f 108 106 105
f 107 109 110
f 110 108 107
f 109 111 112
f 112 110 109
f 111 113 114
f 114 112 111
f 113 115 116
f 116 114 113
f 115 117 118
f 118 116 115
f 117 119 120
f 120 118 117
f 119 121 122
f 122 120 119
f 121 123 124
f 124 122 121
f 123 125 126
f 126 124 123
f 125 127 128
f 128 126 125
f 127 129 130
f 130 128 127
f 129 131 132
f 132 130 129
f 131 133 134
f 134 132 131
f 133 135 136
f 136 134 133
f 135 1 4
f 4 136 135
f 69 67 73
f 73 71 69
f 65 63 73
f 73 67 65
f 61 59 73
f 73 63 61
f 57 55 73
f 73 59 57
f 53 51 73
f 73 55 53
f 49 47 73
f 73 51 49
f 45 43 73
f 73 47 45
f 41 39 73
f 73 43 41
f 37 35 73
f 73 39 37
f 33 31 73
f 73 35 33
f 29 27 73
f 73 31 29
f 25 23 73
f 73 27 25
f 21 19 73
f 73 23 21
f 17 15 73
f 73 19 17
f 13 11 73
f 73 15 13
f 9 7 73
f 73 11 9
f 5 2 73
f 73 7 5
f 1 135 73
f 73 2 1
f 135 77 75
f 75 73 135
f 133 131 77
f 77 135 133
f 131 81 79
f 79 77 131
f 131 85 83
f 83 81 131
f 131 89 87
f 87 85 131
f 131 93 91
f 91 89 131
f 131 97 95
f 95 93 131
f 131 101 99
f 99 97 131
f 131 105 103
f 103 101 131
f 131 109 107
f 107 105 131
f 131 129 111
f 111 109 131
f 129 127 113
f 113 111 129
f 125 123 113
f 113 127 125
f 121 119 113
f 113 123 121
f 117 115 113
f 113 119 117
f 70 72 74
f 74 68 70
f 66 68 74
f 74 64 66
f 62 64 74
f 74 60 62
f 58 60 74
f 74 56 58
f 54 56 74
f 74 52 54
f 50 52 74
f 74 48 50
f 46 48 74
f 74 44 46
f 42 44 74
f 74 40 42
f 38 40 74
f 74 36 38
f 34 36 74
f 74 32 34
f 30 32 74
f 74 28 30
f 26 28 74
f 74 24 26
f 22 24 74
f 74 20 22
f 18 20 74
f 74 16 18
f 14 16 74
f 74 12 14
f 10 12 74
f 74 8 10
f 6 8 74
f 74 3 6
f 4 3 74
f 74 136 4
f 136 74 76
f 76 78 136
f 134 136 78
f 78 132 134
f 132 78 80
f 80 82 132
f 132 82 84
f 84 86 132
f 132 86 88
f 88 90 132
f 132 90 92
f 92 94 132
f 132 94 96
f 96 98 132
f 132 98 100
f 100 102 132
f 132 102 104
f 104 106 132
f 132 106 108
f 108 110 132
f 132 110 112
f 112 130 132
f 130 112 114
f 114 128 130
f 126 128 114
f 114 124 126
f 122 124 114
f 114 120 122
f 118 120 114
f 114 116 118
f 194 144 146
f 146 148 194
f 194 148 150
f 150 152 194
f 194 152 154
f 154 156 194
f 194 156 158
f 158 160 194
f 194 160 162
f 162 164 194
f 194 164 166
f 166 168 194
f 194 168 170
f 170 172 194
f 194 172 174
f 174 192 194
f 192 174 176
f 176 190 192
f 188 190 176
f 176 186 188
f 184 186 176
f 176 182 184
f 180 182 176
f 176 178 180
f 137 138 139
f 139 140 137
f 138 141 142
f 142 139 138
f 141 143 144
f 144 142 141
f 143 145 146
f 146 144 143
f 145 147 148
f 148 146 145
f 147 149 150
f 150 148 147
f 149 151 152
f 152 150 149
f 151 153 154
f 154 152 151
f 153 155 156
f 156 154 153
f 155 157 158
f 158 156 155
f 157 159 160
f 160 158 157
f 159 161 162
f 162 160 159
f 161 163 164
f 164 162 161
f 163 165 166
f 166 164 163
f 165 167 168
f 168 166 165
f 167 169 170
f 170 168 167
f 169 171 172
f 172 170 169
f 171 173 174
f 174 172 171
f 173 175 176
f 176 174 173
f 175 177 178
f 178 176 175
f 177 179 180
f 180 178 177
f 179 181 182
f 182 180 179
f 181 183 184
f 184 182 181
f 183 185 186
f 186 184 183
f 185 187 188
f 188 186 185
f 187 189 190
f 190 188 187
f 189 191 192
f 192 190 189
f 191 193 194
f 194 192 191
f 193 195 196
f 196 194 193
f 195 197 198
f 198 196 195
f 197 199 200
f 200 198 197
f 199 201 202
f 202 200 199
f 201 203 204
f 204 202 201
f 203 205 206
f 206 204 203
f 205 207 208
f 208 206 205
f 207 209 210
f 210 208 207
f 209 211 212
f 212 210 209
f 211 213 214
f 214 212 211
f 213 215 216
f 216 214 213
f 215 217 218
f 218 216 215
f 217 219 220
f 220 218 217
f 219 221 222
f 222 220 219
f 221 223 224
f 224 222 221
f 223 225 226
f 226 224 223
f 225 227 228
f 228 226 225
f 227 229 230
f 230 228 227
f 229 231 232
f 232 230 229
f 231 233 234
f 234 232 231
f 233 235 236
f 236 234 233
f 235 237 238
f 238 236 235
f 237 239 240
f 240 238 237
f 239 241 242
f 242 240 239
f 241 243 244
f 244 242 241
f 243 245 246
f 246 244 243
f 245 247 248
f 248 246 245
f 247 249 250
f 250 248 247
f 249 251 252
f 252 250 249
f 251 253 254
f 254 252 251
f 253 255 256
f 256 254 253
f 255 257 258
f 258 256 255
f 257 259 260
f 260 258 257
f 259 261 262
f 262 260 259
f 261 263 264
f 264 262 261
f 263 265 266
f 266 264 263
f 265 267 268
f 268 266 265
f 267 269 270
f 270 268 267
f 269 271 272
f 272 270 269
f 271 137 140
f 140 272 271
f 201 199 205
f 205 203 201
f 199 209 207
f 207 205 199
f 199 213 211
f 211 209 199
f 199 217 215
f 215 213 199
f 199 221 219
f 219 217 199
f 199 225 223
f 223 221 199
f 199 229 227
f 227 225 199
f 199 233 231
f 231 229 199
f 199 237 235
f 235 233 199
f 199 241 239
f 239 237 199
f 199 245 243
f 243 241 199
f 199 249 247
f 247 245 199
f 199 253 251
f 251 249 199
f 199 257 255
f 255 253 199
f 199 261 259
f 259 257 199
f 199 265 263
f 263 261 199
f 199 269 267
f 267 265 199
f 199 137 271
f 271 269 199
f 197 138 137
f 137 199 197
f 195 193 138
f 138 197 195
f 193 143 141
f 141 138 193
f 193 147 145
f 145 143 193
f 193 151 149
f 149 147 193
f 193 155 153
f 153 151 193
f 193 159 157
f 157 155 193
f 193 163 161
f 161 159 193
f 193 167 165
f 165 163 193
f 193 171 169
f 169 167 193
f 193 191 173
f 173 171 193
f 191 189 175
f 175 173 191
f 187 185 175
f 175 189 187
f 183 181 175
f 175 185 183
f 179 177 175
f 175 181 179
f 202 204 206
f 206 200 202
f 200 206 208
f 208 210 200
f 200 210 212
f 212 214 200
f 200 214 216
f 216 218 200
f 200 218 220
f 220 222 200
f 200 222 224
f 224 226 200
f 200 226 228
f 228 230 200
f 200 230 232
f 232 234 200
f 200 234 236
f 236 238 200
f 200 238 240
f 240 242 200
f 200 242 244
f 244 246 200
f 200 246 248
f 248 250 200
f 200 250 252
f 252 254 200
f 200 254 256
f 256 258 200
f 200 258 260
f 260 262 200
f 200 262 264
f 264 266 200
f 200 266 268
f 268 270 200
f 200 270 272
f 272 140 200
f 198 200 140
f 140 139 198
f 196 198 139
f 139 194 196
f 194 139 142
f 142 144 194

