# https://github.com/mikedh/trimesh
v -149.80160000 103.17850000 -87.72700000
v -150.55310000 103.12130000 -87.72700000
v -150.55310000 103.12130000 -87.65840000
v -149.80160000 103.17850000 -87.65840000
v -151.29370000 103.02700000 -87.72700000
v -151.29370000 103.02700000 -87.65840000
v -152.02260000 102.89670000 -87.72700000
v -152.02260000 102.89670000 -87.65840000
v -152.73870000 102.73110000 -87.72700000
v -152.73870000 102.73110000 -87.65840000
v -153.44110000 102.53140000 -87.72700000
v -153.44110000 102.53140000 -87.65840000
v -154.12900000 102.29840000 -87.72700000
v -154.12900000 102.29840000 -87.65840000
v -154.80130000 102.03300000 -87.72700000
v -154.80130000 102.03300000 -87.65840000
v -155.45720000 101.73630000 -87.72700000
v -155.45720000 101.73630000 -87.65840000
v -156.09570000 101.40900000 -87.72700000
v -156.09570000 101.40900000 -87.65840000
v -156.71580000 101.05220000 -87.72700000
v -156.71580000 101.05220000 -87.65840000
v -157.31670000 100.66680000 -87.72700000
v -157.31670000 100.66680000 -87.65840000
v -157.89730000 100.25370000 -87.72700000
v -157.89730000 100.25370000 -87.65840000
v -158.45690000 99.81390000 -87.72700000
v -158.45690000 99.81390000 -87.65840000
v -158.99430000 99.34820000 -87.72700000
v -158.99430000 99.34820000 -87.65840000
v -159.50880000 98.85770000 -87.72700000
v -159.50880000 98.85770000 -87.65840000
v -159.99930000 98.34320000 -87.72700000
v -159.99930000 98.34320000 -87.65840000
v -160.46500000 97.80580000 -87.72700000
v -160.46500000 97.80580000 -87.65840000
v -160.90480000 97.24620000 -87.72700000
v -160.90480000 97.24620000 -87.65840000
v -161.31790000 96.66560000 -87.72700000
v -161.31790000 96.66560000 -87.65840000
v -161.70330000 96.06470000 -87.72700000
v -161.70330000 96.06470000 -87.65840000
v -162.06010000 95.44450000 -87.72700000
v -162.06010000 95.44450000 -87.65840000
v -162.38740000 94.80610000 -87.72700000
v -162.38740000 94.80610000 -87.65840000
v -162.68420000 94.15020000 -87.72700000
v -162.68420000 94.15020000 -87.65840000
v -162.94950000 93.47790000 -87.72700000
v -162.94950000 93.47790000 -87.65840000
v -163.18260000 92.79000000 -87.72700000
v -163.18260000 92.79000000 -87.65840000
v -163.38230000 92.08760000 -87.72700000
v -163.38230000 92.08760000 -87.65840000
v -163.54780000 91.37150000 -87.72700000
v -163.54780000 91.37150000 -87.65840000
v -163.67810000 90.64260000 -87.72700000
v -163.67810000 90.64260000 -87.65840000
v -163.77240000 89.90200000 -87.72700000
v -163.77240000 89.90200000 -87.65840000
v -163.82970000 89.15050000 -87.72700000
v -163.82970000 89.15050000 -87.65840000
v -163.84890000 88.38910000 -87.72700000
v -163.84890000 88.38910000 -87.65840000
v -163.84890000 1.20910000 -87.72700000
v -163.84890000 1.20910000 -87.65840000
v 161.27210000 1.20910000 -87.72700000
v 161.27210000 1.20910000 -87.65840000
v 161.27220000 88.38910000 -87.72700000
v 161.27220000 88.38910000 -87.65840000
v 161.25290000 89.15050000 -87.72700000
v 161.25290000 89.15050000 -87.65840000
v 161.19560000 89.90200000 -87.72700000
v 161.19560000 89.90200000 -87.65840000
v 161.10130000 90.64260000 -87.72700000
v 161.10130000 90.64260000 -87.65840000
v 160.97100000 91.37150000 -87.72700000
v 160.97100000 91.37150000 -87.65840000
v 160.80550000 92.08760000 -87.72700000
v 160.80550000 92.08760000 -87.65840000
v 160.60580000 92.79000000 -87.72700000
v 160.60580000 92.79000000 -87.65840000
v 160.37270000 93.47790000 -87.72700000
v 160.37270000 93.47790000 -87.65840000
v 160.10740000 94.15020000 -87.72700000
v 160.10740000 94.15020000 -87.65840000
v 159.81060000 94.80610000 -87.72700000
v 159.81060000 94.80610000 -87.65840000
v 159.48330000 95.44460000 -87.72700000
v 159.48330000 95.44460000 -87.65840000
v 159.12650000 96.06470000 -87.72700000
v 159.12650000 96.06470000 -87.65840000
v 158.74110000 96.66560000 -87.72700000
v 158.74110000 96.66560000 -87.65840000
v 158.32800000 97.24620000 -87.72700000
v 158.32800000 97.24620000 -87.65840000
v 157.88820000 97.80580000 -87.72700000
v 157.88820000 97.80580000 -87.65840000
v 157.42250000 98.34320000 -87.72700000
v 157.42250000 98.34320000 -87.65840000
v 156.93200000 98.85770000 -87.72700000
v 156.93200000 98.85770000 -87.65840000
v 156.41760000 99.34820000 -87.72700000
v 156.41760000 99.34820000 -87.65840000
v 155.88010000 99.81380000 -87.72700000
v 155.88010000 99.81380000 -87.65840000
v 155.32060000 100.25370000 -87.72700000
v 155.32060000 100.25370000 -87.65840000
v 154.73990000 100.66680000 -87.72700000
v 154.73990000 100.66680000 -87.65840000
v 154.13900000 101.05220000 -87.72700000
v 154.13900000 101.05220000 -87.65840000
v 153.51890000 101.40900000 -87.72700000
v 153.51890000 101.40900000 -87.65840000
v 152.88040000 101.73630000 -87.72700000
v 152.88040000 101.73630000 -87.65840000
v 152.22460000 102.03300000 -87.72700000
v 152.22460000 102.03300000 -87.65840000
v 151.55220000 102.29840000 -87.72700000
v 151.55220000 102.29840000 -87.65840000
v 150.86440000 102.53140000 -87.72700000
v 150.86440000 102.53140000 -87.65840000
v 150.16190000 102.73110000 -87.72700000
v 150.16190000 102.73110000 -87.65840000
v 149.44580000 102.89670000 -87.72700000
v 149.44580000 102.89670000 -87.65840000
v 148.71700000 103.02700000 -87.72700000
v 148.71700000 103.02700000 -87.65840000
v 147.97640000 103.12130000 -87.72700000
v 147.97640000 103.12130000 -87.65840000
v 147.22490000 103.17850000 -87.72700000
v 147.22490000 103.17850000 -87.65840000
v 146.46350000 103.19780000 -87.72700000
v 146.46350000 103.19780000 -87.65840000
v -149.04020000 103.19780000 -87.72700000
v -149.04020000 103.19780000 -87.65840000
v -149.03420000 101.71240000 -87.72700000
v 146.45750000 101.71240000 -87.72700000
v 146.45750000 101.71240000 -87.65840000
v -149.03420000 101.71240000 -87.65840000
v 147.14250000 101.69500000 -87.72700000
v 147.14250000 101.69500000 -87.65840000
v 147.81880000 101.64350000 -87.72700000
v 147.81880000 101.64350000 -87.65840000
v 148.48520000 101.55860000 -87.72700000
v 148.48520000 101.55860000 -87.65840000
v 149.14110000 101.44120000 -87.72700000
v 149.14110000 101.44120000 -87.65840000
v 149.78550000 101.29220000 -87.72700000
v 149.78550000 101.29220000 -87.65840000
v 150.41770000 101.11240000 -87.72700000
v 150.41770000 101.11240000 -87.65840000
v 151.03680000 100.90260000 -87.72700000
v 151.03680000 100.90260000 -87.65840000
v 151.64190000 100.66370000 -87.72700000
v 151.64190000 100.66370000 -87.65840000
v 152.23220000 100.39660000 -87.72700000
v 152.23220000 100.39660000 -87.65840000
v 152.80680000 100.10200000 -87.72700000
v 152.80680000 100.10200000 -87.65840000
v 153.36500000 99.78080000 -87.72700000
v 153.36500000 99.78080000 -87.65840000
v 153.90590000 99.43380000 -87.72700000
v 153.90590000 99.43380000 -87.65840000
v 154.42850000 99.06190000 -87.72700000
v 154.42850000 99.06190000 -87.65840000
v 154.93220000 98.66600000 -87.72700000
v 154.93220000 98.66600000 -87.65840000
v 155.41600000 98.24680000 -87.72700000
v 155.41600000 98.24680000 -87.65840000
v 155.87920000 97.80530000 -87.72700000
v 155.87920000 97.80530000 -87.65840000
v 156.32070000 97.34220000 -87.72700000
v 156.32070000 97.34220000 -87.65840000
v 156.73990000 96.85840000 -87.72700000
v 156.73990000 96.85840000 -87.65840000
v 157.13590000 96.35470000 -87.72700000
v 157.13590000 96.35470000 -87.65840000
v 157.50780000 95.83210000 -87.72700000
v 157.50780000 95.83210000 -87.65840000
v 157.85480000 95.29120000 -87.72700000
v 157.85480000 95.29120000 -87.65840000
v 158.17600000 94.73300000 -87.72700000
v 158.17600000 94.73300000 -87.65840000
v 158.47070000 94.15840000 -87.72700000
v 158.47070000 94.15840000 -87.65840000
v 158.73790000 93.56800000 -87.72700000
v 158.73790000 93.56800000 -87.65840000
v 158.97680000 92.96290000 -87.72700000
v 158.97680000 92.96290000 -87.65840000
v 159.18660000 92.34380000 -87.72700000
v 159.18660000 92.34380000 -87.65840000
v 159.36650000 91.71160000 -87.72700000
v 159.36650000 91.71160000 -87.65840000
v 159.51550000 91.06710000 -87.72700000
v 159.51550000 91.06710000 -87.65840000
v 159.63290000 90.41110000 -87.72700000
v 159.63290000 90.41110000 -87.65840000
v 159.71780000 89.74460000 -87.72700000
v 159.71780000 89.74460000 -87.65840000
v 159.76930000 89.06830000 -87.72700000
v 159.76930000 89.06830000 -87.65840000
v 159.78670000 88.38310000 -87.72700000
v 159.78670000 88.38310000 -87.65840000
v 159.78670000 2.69450000 -87.72700000
v 159.78670000 2.69450000 -87.65840000
v -162.36350000 2.69450000 -87.72700000
v -162.36350000 2.69450000 -87.65840000
v -162.36350000 88.38310000 -87.72700000
v -162.36350000 88.38310000 -87.65840000
v -162.34610000 89.06830000 -87.72700000
v -162.34610000 89.06830000 -87.65840000
v -162.29460000 89.74460000 -87.72700000
v -162.29460000 89.74460000 -87.65840000
v -162.20970000 90.41120000 -87.72700000
v -162.20970000 90.41120000 -87.65840000
v -162.09230000 91.06710000 -87.72700000
v -162.09230000 91.06710000 -87.65840000
v -161.94330000 91.71160000 -87.72700000
v -161.94330000 91.71160000 -87.65840000
v -161.76340000 92.34380000 -87.72700000
v -161.76340000 92.34380000 -87.65840000
v -161.55360000 92.96290000 -87.72700000
v -161.55360000 92.96290000 -87.65840000
v -161.31470000 93.56810000 -87.72700000
v -161.31470000 93.56810000 -87.65840000
v -161.04750000 94.15840000 -87.72700000
v -161.04750000 94.15840000 -87.65840000
v -160.75280000 94.73300000 -87.72700000
v -160.75280000 94.73300000 -87.65840000
v -160.43160000 95.29120000 -87.72700000
v -160.43160000 95.29120000 -87.65840000
v -160.08460000 95.83210000 -87.72700000
v -160.08460000 95.83210000 -87.65840000
v -159.71270000 96.35470000 -87.72700000
v -159.71270000 96.35470000 -87.65840000
v -159.31670000 96.85840000 -87.72700000
v -159.31670000 96.85840000 -87.65840000
v -158.89750000 97.34220000 -87.72700000
v -158.89750000 97.34220000 -87.65840000
v -158.45590000 97.80530000 -87.72700000
v -158.45590000 97.80530000 -87.65840000
v -157.99280000 98.24680000 -87.72700000
v -157.99280000 98.24680000 -87.65840000
v -157.50900000 98.66600000 -87.72700000
v -157.50900000 98.66600000 -87.65840000
v -157.00530000 99.06190000 -87.72700000
v -157.00530000 99.06190000 -87.65840000
v -156.48260000 99.43380000 -87.72700000
v -156.48260000 99.43380000 -87.65840000
v -155.94180000 99.78080000 -87.72700000
v -155.94180000 99.78080000 -87.65840000
v -155.38360000 100.10200000 -87.72700000
v -155.38360000 100.10200000 -87.65840000
v -154.80890000 100.39660000 -87.72700000
v -154.80890000 100.39660000 -87.65840000
v -154.21860000 100.66370000 -87.72700000
v -154.21860000 100.66370000 -87.65840000
v -153.61350000 100.90260000 -87.72700000
v -153.61350000 100.90260000 -87.65840000
v -152.99450000 101.11240000 -87.72700000
v -152.99450000 101.11240000 -87.65840000
v -152.36230000 101.29220000 -87.72700000
v -152.36230000 101.29220000 -87.65840000
v -151.71780000 101.44120000 -87.72700000
v -151.71780000 101.44120000 -87.65840000
v -151.06200000 101.55860000 -87.72700000
v -151.06200000 101.55860000 -87.65840000
v -150.39550000 101.64340000 -87.72700000
v -150.39550000 101.64340000 -87.65840000
v -149.71930000 101.69500000 -87.72700000
v -149.71930000 101.69500000 -87.65840000
f 1 2 3
f 3 4 1
f 2 5 6
f 6 3 2
f 5 7 8
f 8 6 5
f 7 9 10
f 10 8 7
f 9 11 12
f 12 10 9
f 11 13 14
f 14 12 11
f 13 15 16
f 16 14 13
f 15 17 18
f 18 16 15
f 17 19 20
f 20 18 17
f 19 21 22
f 22 20 19
f 21 23 24
f 24 22 21
f 23 25 26
f 26 24 23
f 25 27 28
f 28 26 25
f 27 29 30
f 30 28 27
f 29 31 32
f 32 30 29
f 31 33 34
f 34 32 31
f 33 35 36
f 36 34 33
f 35 37 38
f 38 36 35
f 37 39 40
f 40 38 37
f 39 41 42
f 42 40 39
f 41 43 44
f 44 42 41
f 43 45 46
f 46 44 43
f 45 47 48
f 48 46 45
f 47 49 50
f 50 48 47
f 49 51 52
f 52 50 49
f 51 53 54
f 54 52 51
f 53 55 56
f 56 54 53
f 55 57 58
f 58 56 55
f 57 59 60
f 60 58 57
f 59 61 62
f 62 60 59
f 61 63 64
f 64 62 61
f 63 65 66
f 66 64 63
f 65 67 68
f 68 66 65
f 67 69 70
f 70 68 67
f 69 71 72
f 72 70 69
f 71 73 74
f 74 72 71
f 73 75 76
f 76 74 73
f 75 77 78
f 78 76 75
f 77 79 80
f 80 78 77
f 79 81 82
f 82 80 79
f 81 83 84
f 84 82 81
f 83 85 86
f 86 84 83
f 85 87 88
f 88 86 85
f 87 89 90
f 90 88 87
f 89 91 92
f 92 90 89
f 91 93 94
f 94 92 91
f 93 95 96
f 96 94 93
f 95 97 98
f 98 96 95
f 97 99 100
f 100 98 97
f 99 101 102
f 102 100 99
f 101 103 104
f 104 102 101
f 103 105 106
f 106 104 103
f 105 107 108
f 108 106 105
f 107 109 110
f 110 108 107
f 109 111 112
f 112 110 109
f 111 113 114
f 114 112 111
f 113 115 116
f 116 114 113
f 115 117 118
f 118 116 115
f 117 119 120
f 120 118 117
f 119 121 122
f 122 120 119
f 121 123 124
f 124 122 121
f 123 125 126
f 126 124 123
f 125 127 128
f 128 126 125
f 127 129 130
f 130 128 127
f 129 131 132
f 132 130 129
f 131 133 134
f 134 132 131
f 133 135 136
f 136 134 133
f 135 1 4
f 4 136 135
f 137 138 139
f 139 140 137
f 138 141 142
f 142 139 138
f 141 143 144
f 144 142 141
f 143 145 146
f 146 144 143
f 145 147 148
f 148 146 145
f 147 149 150
f 150 148 147
f 149 151 152
f 152 150 149
f 151 153 154
f 154 152 151
f 153 155 156
f 156 154 153
f 155 157 158
f 158 156 155
f 157 159 160
f 160 158 157
f 159 161 162
f 162 160 159
f 161 163 164
f 164 162 161
f 163 165 166
f 166 164 163
f 165 167 168
f 168 166 165
f 167 169 170
f 170 168 167
f 169 171 172
f 172 170 169
f 171 173 174
f 174 172 171
f 173 175 176
f 176 174 173
f 175 177 178
f 178 176 175
f 177 179 180
f 180 178 177
f 179 181 182
f 182 180 179
f 181 183 184
f 184 182 181
f 183 185 186
f 186 184 183
f 185 187 188
f 188 186 185
f 187 189 190
f 190 188 187
f 189 191 192
f 192 190 189
f 191 193 194
f 194 192 191
f 193 195 196
f 196 194 193
f 195 197 198
f 198 196 195
f 197 199 200
f 200 198 197
f 199 201 202
f 202 200 199
f 201 203 204
f 204 202 201
f 203 205 206
f 206 204 203
f 205 207 208
f 208 206 205
f 207 209 210
f 210 208 207
f 209 211 212
f 212 210 209
f 211 213 214
f 214 212 211
f 213 215 216
f 216 214 213
f 215 217 218
f 218 216 215
f 217 219 220
f 220 218 217
f 219 221 222
f 222 220 219
f 221 223 224
f 224 222 221
f 223 225 226
f 226 224 223
f 225 227 228
f 228 226 225
f 227 229 230
f 230 228 227
f 229 231 232
f 232 230 229
f 231 233 234
f 234 232 231
f 233 235 236
f 236 234 233
f 235 237 238
f 238 236 235
f 237 239 240
f 240 238 237
f 239 241 242
f 242 240 239
f 241 243 244
f 244 242 241
f 243 245 246
f 246 244 243
f 245 247 248
f 248 246 245
f 247 249 250
f 250 248 247
f 249 251 252
f 252 250 249
f 251 253 254
f 254 252 251
f 253 255 256
f 256 254 253
f 255 257 258
f 258 256 255
f 257 259 260
f 260 258 257
f 259 261 262
f 262 260 259
f 261 263 264
f 264 262 261
f 263 265 266
f 266 264 263
f 265 267 268
f 268 266 265
f 267 269 270
f 270 268 267
f 269 271 272
f 272 270 269
f 271 137 140
f 140 272 271
f 207 67 65
f 65 63 207
f 63 61 209
f 209 207 63
f 205 69 67
f 67 207 205
f 203 71 69
f 69 205 203
f 61 59 211
f 211 209 61
f 201 73 71
f 71 203 201
f 59 57 213
f 213 211 59
f 199 75 73
f 73 201 199
f 57 55 215
f 215 213 57
f 55 53 217
f 217 215 55
f 53 51 219
f 219 217 53
f 51 49 221
f 221 219 51
f 49 47 223
f 223 221 49
f 47 45 225
f 225 223 47
f 45 43 227
f 227 225 45
f 43 41 229
f 229 227 43
f 41 39 231
f 231 229 41
f 39 37 233
f 233 231 39
f 37 35 235
f 235 233 37
f 35 33 237
f 237 235 35
f 33 31 239
f 239 237 33
f 31 29 241
f 241 239 31
f 29 27 243
f 243 241 29
f 27 25 245
f 245 243 27
f 25 23 247
f 247 245 25
f 23 21 249
f 249 247 23
f 21 19 251
f 251 249 21
f 19 17 253
f 253 251 19
f 17 15 255
f 255 253 17
f 15 13 257
f 257 255 15
f 13 11 259
f 259 257 13
f 11 9 261
f 261 259 11
f 9 7 263
f 263 261 9
f 7 5 265
f 265 263 7
f 5 2 267
f 267 265 5
f 2 1 269
f 269 267 2
f 1 135 271
f 271 269 1
f 135 138 137
f 137 271 135
f 197 77 75
f 75 199 197
f 195 79 77
f 77 197 195
f 193 81 79
f 79 195 193
f 191 83 81
f 81 193 191
f 189 85 83
f 83 191 189
f 187 87 85
f 85 189 187
f 185 89 87
f 87 187 185
f 183 91 89
f 89 185 183
f 181 93 91
f 91 183 181
f 179 95 93
f 93 181 179
f 177 97 95
f 95 179 177
f 175 99 97
f 97 177 175
f 173 101 99
f 99 175 173
f 171 103 101
f 101 173 171
f 169 105 103
f 103 171 169
f 167 107 105
f 105 169 167
f 165 109 107
f 107 167 165
f 163 111 109
f 109 165 163
f 161 113 111
f 111 163 161
f 159 115 113
f 113 161 159
f 157 117 115
f 115 159 157
f 155 119 117
f 117 157 155
f 153 121 119
f 119 155 153
f 151 123 121
f 121 153 151
f 149 125 123
f 123 151 149
f 147 127 125
f 125 149 147
f 145 129 127
f 127 147 145
f 143 131 129
f 129 145 143
f 141 133 131
f 131 143 141
f 138 135 133
f 133 141 138
f 208 210 64
f 64 66 208
f 208 66 68
f 68 206 208
f 206 68 70
f 70 204 206
f 62 64 210
f 210 212 62
f 204 70 72
f 72 202 204
f 60 62 212
f 212 214 60
f 202 72 74
f 74 200 202
f 58 60 214
f 214 216 58
f 56 58 216
f 216 218 56
f 54 56 218
f 218 220 54
f 52 54 220
f 220 222 52
f 50 52 222
f 222 224 50
f 48 50 224
f 224 226 48
f 46 48 226
f 226 228 46
f 44 46 228
f 228 230 44
f 42 44 230
f 230 232 42
f 40 42 232
f 232 234 40
f 38 40 234
f 234 236 38
f 36 38 236
f 236 238 36
f 34 36 238
f 238 240 34
f 32 34 240
f 240 242 32
f 30 32 242
f 242 244 30
f 28 30 244
f 244 246 28
f 26 28 246
f 246 248 26
f 24 26 248
f 248 250 24
f 22 24 250
f 250 252 22
f 20 22 252
f 252 254 20
f 18 20 254
f 254 256 18
f 16 18 256
f 256 258 16
f 14 16 258
f 258 260 14
f 12 14 260
f 260 262 12
f 10 12 262
f 262 264 10
f 8 10 264
f 264 266 8
f 6 8 266
f 266 268 6
f 3 6 268
f 268 270 3
f 4 3 270
f 270 272 4
f 136 4 272
f 272 140 136
f 200 74 76
f 76 198 200
f 198 76 78
f 78 196 198
f 196 78 80
f 80 194 196
f 194 80 82
f 82 192 194
f 192 82 84
f 84 190 192
f 190 84 86
f 86 188 190
f 188 86 88
f 88 186 188
f 186 88 90
f 90 184 186
f 184 90 92
f 92 182 184
f 182 92 94
f 94 180 182
f 180 94 96
f 96 178 180
f 178 96 98
f 98 176 178
f 176 98 100
f 100 174 176
f 174 100 102
f 102 172 174
f 172 102 104
f 104 170 172
f 170 104 106
f 106 168 170
f 168 106 108
f 108 166 168
f 166 108 110
f 110 164 166
f 164 110 112
f 112 162 164
f 162 112 114
f 114 160 162
f 160 114 116
f 116 158 160
f 158 116 118
f 118 156 158
f 156 118 120
f 120 154 156
f 154 120 122
f 122 152 154
f 152 122 124
f 124 150 152
f 150 124 126
f 126 148 150
f 148 126 128
f 128 146 148
f 146 128 130
f 130 144 146
f 144 130 132
f 132 142 144
f 142 132 134
f 134 139 142
f 139 134 136
f 136 140 139

