# https://github.com/mikedh/trimesh
v -171.62540000 1.31710000 -47.90820000
v -171.62520000 1.31710000 -22.06540000
v -171.62520000 7.48110000 -22.06540000
v -171.62550000 7.48110000 -53.50960000
v -171.62550000 -0.01890000 -53.50960000
v -171.62520000 -0.01890000 -22.06540000
v -171.62550000 1.31710000 -53.50960000
v -171.59230000 1.31710000 -21.78200000
v -171.44090000 1.31710000 -20.47470000
v -171.44090000 7.48110000 -20.47470000
v -171.44090000 -0.01890000 -20.47470000
v -171.34740000 1.31710000 -20.21440000
v -170.91640000 1.31710000 -19.01370000
v -170.91640000 7.48110000 -19.01370000
v -170.91640000 -0.01890000 -19.01370000
v -170.76990000 1.31710000 -18.78400000
v -170.09430000 1.31710000 -17.72430000
v -170.09430000 7.48110000 -17.72430000
v -170.09430000 -0.01890000 -17.72430000
v -169.90240000 1.31710000 -17.53270000
v -169.01710000 1.31710000 -16.64850000
v -169.01710000 7.48110000 -16.64850000
v -169.01710000 -0.01890000 -16.64850000
v -168.78740000 1.31710000 -16.50230000
v -167.72750000 1.31710000 -15.82810000
v -167.72750000 7.48110000 -15.82810000
v -167.72750000 -0.01890000 -15.82810000
v -167.46750000 1.31710000 -15.73490000
v -166.26810000 1.31710000 -15.30510000
v -166.26810000 7.48110000 -15.30510000
v -166.26810000 -0.01890000 -15.30510000
v -165.98540000 1.31710000 -15.27240000
v -164.68130000 1.31710000 -15.12140000
v -164.68130000 7.48110000 -15.12140000
v -164.68130000 -0.01890000 -15.12140000
v -105.97480000 1.31710000 -15.12140000
v 164.87410000 1.31710000 -15.12140000
v 164.87410000 7.48110000 -15.12140000
v 164.87410000 -0.01890000 -15.12140000
v 165.15670000 1.31710000 -15.15420000
v 166.46080000 1.31710000 -15.30510000
v 166.46080000 7.48110000 -15.30510000
v 166.46080000 -0.01890000 -15.30510000
v 166.72080000 1.31710000 -15.39820000
v 167.92020000 1.31710000 -15.82800000
v 167.92020000 7.48110000 -15.82800000
v 167.92020000 -0.01890000 -15.82800000
v 168.15000000 1.31710000 -15.97420000
v 169.20980000 1.31710000 -16.64840000
v 169.20980000 7.48110000 -16.64840000
v 169.20980000 -0.01890000 -16.64840000
v 169.40170000 1.31710000 -16.84010000
v 170.28700000 1.31710000 -17.72430000
v 170.28700000 7.48110000 -17.72430000
v 170.28700000 -0.01890000 -17.72430000
v 170.43340000 1.31710000 -17.95400000
v 171.10910000 1.31710000 -19.01370000
v 171.10910000 7.48110000 -19.01370000
v 171.10910000 -0.01890000 -19.01370000
v 171.20250000 1.31710000 -19.27390000
v 171.63360000 1.31710000 -20.47470000
v 171.63360000 7.48110000 -20.47470000
v 171.63360000 -0.01890000 -20.47470000
v 171.66650000 1.31710000 -20.75800000
v 171.81790000 1.31710000 -22.06540000
v 171.81790000 7.48110000 -22.06540000
v 171.81790000 -0.01890000 -22.06540000
v 171.81800000 1.31710000 -27.66680000
v 171.81820000 1.31710000 -53.50960000
v 171.81820000 7.48110000 -53.50960000
v 171.81820000 -0.01890000 -53.50960000
v 169.19740000 1.31710000 -53.50950000
v 157.10630000 1.31710000 -53.50890000
v 157.10630000 7.48110000 -53.50890000
v 157.10630000 -0.01890000 -53.50890000
v 157.10620000 7.48110000 -53.52650000
v 157.10610000 7.48110000 -53.53680000
v 157.10600000 7.48110000 -53.53270000
v 157.10580000 7.48110000 -53.50670000
v 157.10570000 7.48110000 -53.45170000
v 157.10560000 7.48110000 -53.36040000
v 157.10550000 7.48110000 -53.22560000
v 156.48820000 7.48110000 -47.87160000
v 154.72910000 7.48110000 -42.95170000
v 151.96840000 7.48110000 -38.60810000
v 148.34640000 7.48110000 -34.98250000
v 144.00340000 7.48110000 -32.21710000
v 139.07950000 7.48110000 -30.45370000
v 133.71510000 7.48110000 -29.83440000
v -133.52230000 7.48110000 -29.83440000
v -138.88670000 7.48110000 -30.45370000
v -143.81060000 7.48110000 -32.21710000
v -148.15370000 7.48110000 -34.98250000
v -151.77560000 7.48110000 -38.60800000
v -154.53630000 7.48110000 -42.95170000
v -156.29540000 7.48110000 -47.87150000
v -156.91270000 7.48110000 -53.22560000
v -156.91280000 7.48110000 -53.36040000
v -156.91290000 7.48110000 -53.45170000
v -156.91310000 7.48110000 -53.50670000
v -156.91310000 7.48110000 -53.53270000
v -156.91330000 7.48110000 -53.53680000
v -156.91340000 7.48110000 -53.52650000
v -156.91350000 7.48110000 -53.50890000
v 157.10620000 -0.01890000 -53.52650000
v 157.10610000 -0.01890000 -53.53680000
v 157.10600000 -0.01890000 -53.53270000
v 157.10580000 -0.01890000 -53.50670000
v 157.10570000 -0.01890000 -53.45170000
v 157.10560000 -0.01890000 -53.36040000
v 157.10550000 -0.01890000 -53.22560000
v 156.48820000 -0.01890000 -47.87160000
v 154.72910000 -0.01890000 -42.95170000
v 151.96840000 -0.01890000 -38.60810000
v 148.34640000 -0.01890000 -34.98250000
v 144.00340000 -0.01890000 -32.21710000
v 139.07950000 -0.01890000 -30.45370000
v 133.71510000 -0.01890000 -29.83440000
v -133.52230000 -0.01890000 -29.83440000
v -138.88670000 -0.01890000 -30.45370000
v -143.81060000 -0.01890000 -32.21710000
v -148.15370000 -0.01890000 -34.98250000
v -151.77560000 -0.01890000 -38.60800000
v -154.53630000 -0.01890000 -42.95170000
v -156.29540000 -0.01890000 -47.87150000
v -156.91270000 -0.01890000 -53.22560000
v -156.91280000 -0.01890000 -53.36040000
v -156.91290000 -0.01890000 -53.45170000
v -156.91310000 -0.01890000 -53.50670000
v -156.91310000 -0.01890000 -53.53270000
v -156.91330000 -0.01890000 -53.53680000
v -156.91340000 -0.01890000 -53.52650000
v -156.91350000 -0.01890000 -53.50890000
v 157.10630000 1.31710000 -53.51200000
v 157.10620000 1.31710000 -53.52650000
v 157.10620000 1.31710000 -53.52830000
v 157.10610000 1.31710000 -53.53680000
v 157.10600000 1.31710000 -53.53610000
v 157.10600000 1.31710000 -53.53270000
v 157.10600000 1.31710000 -53.52800000
v 157.10580000 1.31710000 -53.50670000
v 157.10580000 1.31710000 -53.49690000
v 157.10570000 1.31710000 -53.45170000
v 157.10570000 1.31710000 -53.43550000
v 157.10560000 1.31710000 -53.36040000
v 157.10560000 1.31710000 -53.33640000
v 157.10550000 1.31710000 -53.22560000
v 156.99550000 1.31710000 -52.27180000
v 156.48820000 1.31710000 -47.87160000
v 156.17480000 1.31710000 -46.99520000
v 154.72910000 1.31710000 -42.95170000
v 154.23730000 1.31710000 -42.17800000
v 151.96840000 1.31710000 -38.60810000
v 151.32320000 1.31710000 -37.96220000
v 148.34640000 1.31710000 -34.98250000
v 147.57270000 1.31710000 -34.48990000
v 144.00340000 1.31710000 -32.21710000
v 143.12620000 1.31710000 -31.90300000
v 139.07950000 1.31710000 -30.45370000
v 138.12390000 1.31710000 -30.34340000
v 133.71510000 1.31710000 -29.83440000
v 86.10980000 1.31710000 -29.83440000
v -133.52230000 1.31710000 -29.83440000
v -134.47790000 1.31710000 -29.94470000
v -138.88670000 1.31710000 -30.45370000
v -139.76390000 1.31710000 -30.76780000
v -143.81060000 1.31710000 -32.21710000
v -144.58430000 1.31710000 -32.70970000
v -148.15370000 1.31710000 -34.98250000
v -148.79890000 1.31710000 -35.62830000
v -151.77560000 1.31710000 -38.60800000
v -152.26740000 1.31710000 -39.38180000
v -154.53630000 1.31710000 -42.95170000
v -154.84970000 1.31710000 -43.82810000
v -156.29540000 1.31710000 -47.87150000
v -156.40540000 1.31710000 -48.82530000
v -156.91270000 1.31710000 -53.22560000
v -156.91280000 1.31710000 -53.24960000
v -156.91280000 1.31710000 -53.36040000
v -156.91280000 1.31710000 -53.37670000
v -156.91290000 1.31710000 -53.45170000
v -156.91300000 1.31710000 -53.46150000
v -156.91310000 1.31710000 -53.50670000
v -156.91310000 1.31710000 -53.51130000
v -156.91310000 1.31710000 -53.53270000
v -156.91320000 1.31710000 -53.53340000
v -156.91330000 1.31710000 -53.53680000
v -156.91330000 1.31710000 -53.53500000
v -156.91340000 1.31710000 -53.52650000
v -156.91350000 1.31710000 -53.52340000
v -156.91350000 1.31710000 -53.50890000
v -159.53430000 1.31710000 -53.50900000
v -172.44760000 7.46290000 -54.33180000
v -172.44730000 7.46290000 -22.06210000
v -172.44730000 41.96290000 -22.06210000
v -172.44760000 41.96290000 -54.33180000
v -172.24140000 7.46290000 -20.28350000
v -172.24140000 41.96290000 -20.28350000
v -171.65530000 7.46290000 -18.65010000
v -171.65530000 41.96290000 -18.65010000
v -170.73650000 7.46290000 -17.20870000
v -170.73650000 41.96290000 -17.20870000
v -169.53250000 7.46290000 -16.00610000
v -169.53250000 41.96290000 -16.00610000
v -168.09090000 7.46290000 -15.08910000
v -168.09090000 41.96290000 -15.08910000
v -166.45910000 7.46290000 -14.50450000
v -166.45910000 41.96290000 -14.50450000
v -164.68460000 7.46290000 -14.29930000
v -164.68460000 41.96290000 -14.29930000
v 164.87740000 7.46290000 -14.29930000
v 164.87740000 41.96290000 -14.29930000
v 166.65180000 7.46290000 -14.50450000
v 166.65180000 41.96290000 -14.50450000
v 168.28360000 7.46290000 -15.08900000
v 168.28360000 41.96290000 -15.08900000
v 169.72530000 7.46290000 -16.00600000
v 169.72530000 41.96290000 -16.00600000
v 170.92920000 7.46290000 -17.20860000
v 170.92920000 41.96290000 -17.20860000
v 171.84800000 7.46290000 -18.65000000
v 171.84800000 41.96290000 -18.65000000
v 172.43420000 7.46290000 -20.28350000
v 172.43420000 41.96290000 -20.28350000
v 172.64010000 7.46290000 -22.06210000
v 172.64010000 41.96290000 -22.06210000
v 172.64040000 7.46290000 -54.33180000
v 172.64040000 41.96290000 -54.33180000
v 156.28410000 7.46290000 -54.33100000
v 156.28410000 41.96290000 -54.33100000
v 156.28340000 7.46290000 -53.22950000
v 156.28340000 41.96290000 -53.22950000
v 155.68760000 7.46290000 -48.06200000
v 155.68760000 41.96290000 -48.06200000
v 153.98990000 7.46290000 -43.31400000
v 153.98990000 41.96290000 -43.31400000
v 151.32570000 7.46290000 -39.12230000
v 151.32570000 41.96290000 -39.12230000
v 147.83030000 7.46290000 -35.62390000
v 147.83030000 41.96290000 -35.62390000
v 143.63930000 7.46290000 -32.95550000
v 143.63930000 41.96290000 -32.95550000
v 138.88790000 7.46290000 -31.25410000
v 138.88790000 41.96290000 -31.25410000
v 133.71170000 7.46290000 -30.65660000
v 133.71170000 41.96290000 -30.65660000
v -133.51900000 7.46290000 -30.65650000
v -133.51900000 41.96290000 -30.65650000
v -138.69520000 7.46290000 -31.25410000
v -138.69520000 41.96290000 -31.25410000
v -143.44660000 7.46290000 -32.95550000
v -143.44660000 41.96290000 -32.95550000
v -147.63760000 7.46290000 -35.62380000
v -147.63760000 41.96290000 -35.62380000
v -151.13290000 7.46290000 -39.12220000
v -151.13290000 41.96290000 -39.12220000
v -153.79710000 7.46290000 -43.31390000
v -153.79710000 41.96290000 -43.31390000
v -155.49480000 7.46290000 -48.06190000
v -155.49480000 41.96290000 -48.06190000
v -156.09060000 7.46290000 -53.22940000
v -156.09060000 41.96290000 -53.22940000
v -156.09140000 7.46290000 -54.33100000
v -156.09140000 41.96290000 -54.33100000
v -179.88240000 46.80440000 -29.85530000
v -179.88240000 46.80440000 -22.03180000
v -179.88240000 47.98580000 -22.03180000
v -179.88240000 47.98580000 -61.76720000
v -179.88240000 41.98580000 -61.76720000
v -179.88240000 41.98580000 -22.03180000
v -179.88240000 46.80440000 -61.76720000
v -179.56040000 46.80440000 -19.24070000
v -179.48150000 46.80440000 -18.55640000
v -179.48150000 47.98580000 -18.55640000
v -179.48150000 41.98580000 -18.55640000
v -178.56430000 46.80440000 -15.99320000
v -178.33950000 46.80440000 -15.36480000
v -178.33950000 47.98580000 -15.36480000
v -178.33950000 41.98580000 -15.36480000
v -176.90060000 46.80440000 -13.10290000
v -176.54790000 46.80440000 -12.54840000
v -176.54790000 47.98580000 -12.54840000
v -176.54790000 41.98580000 -12.54840000
v -174.66080000 46.80440000 -10.66130000
v -174.19820000 46.80440000 -10.19870000
v -174.19820000 47.98580000 -10.19870000
v -174.19820000 41.98580000 -10.19870000
v -171.93630000 46.80440000 -8.75990000
v -171.38180000 46.80440000 -8.40710000
v -171.38180000 47.98580000 -8.40710000
v -171.38180000 41.98580000 -8.40710000
v -168.81860000 46.80440000 -7.49000000
v -168.19020000 46.80440000 -7.26510000
v -168.19020000 47.98580000 -7.26510000
v -168.19020000 41.98580000 -7.26510000
v -165.39910000 46.80440000 -6.94310000
v -164.71480000 46.80440000 -6.86420000
v -164.71480000 47.98580000 -6.86420000
v -164.71480000 41.98580000 -6.86420000
v 100.00850000 46.80440000 -6.86420000
v 164.90760000 46.80440000 -6.86420000
v 164.90760000 47.98580000 -6.86420000
v 164.90760000 41.98580000 -6.86420000
v 167.69870000 46.80440000 -7.18620000
v 168.38300000 46.80440000 -7.26510000
v 168.38300000 47.98580000 -7.26510000
v 168.38300000 41.98580000 -7.26510000
v 170.94620000 46.80440000 -8.18230000
v 171.57460000 46.80440000 -8.40710000
v 171.57460000 47.98580000 -8.40710000
v 171.57460000 41.98580000 -8.40710000
v 173.83650000 46.80440000 -9.84600000
v 174.39100000 46.80440000 -10.19870000
v 174.39100000 47.98580000 -10.19870000
v 174.39100000 41.98580000 -10.19870000
v 176.27800000 46.80440000 -12.08580000
v 176.74070000 46.80440000 -12.54840000
v 176.74070000 47.98580000 -12.54840000
v 176.74070000 41.98580000 -12.54840000
v 178.17950000 46.80440000 -14.81030000
v 178.53220000 46.80440000 -15.36480000
v 178.53220000 47.98580000 -15.36480000
v 178.53220000 41.98580000 -15.36480000
v 179.44930000 46.80440000 -17.92800000
v 179.67420000 46.80440000 -18.55640000
v 179.67420000 47.98580000 -18.55640000
v 179.67420000 41.98580000 -18.55640000
v 179.99620000 46.80440000 -21.34750000
v 180.07520000 46.80440000 -22.03180000
v 180.07520000 47.98580000 -22.03180000
v 180.07520000 41.98580000 -22.03180000
v 180.07520000 46.80440000 -53.94370000
v 180.07520000 46.80440000 -61.76720000
v 180.07520000 47.98580000 -61.76720000
v 180.07520000 41.98580000 -61.76720000
v 154.99600000 46.80440000 -61.76600000
v 148.84770000 46.80440000 -61.76570000
v 148.84770000 47.98580000 -61.76570000
v 148.84770000 41.98580000 -61.76570000
v 148.84810000 46.80440000 -54.93420000
v 148.84820000 46.80440000 -53.25940000
v 148.84820000 47.98580000 -53.25940000
v 148.84820000 41.98580000 -53.25940000
v 148.52640000 46.80440000 -50.46820000
v 148.44750000 46.80440000 -49.78400000
v 148.44750000 47.98580000 -49.78400000
v 148.44750000 41.98580000 -49.78400000
v 147.53050000 46.80440000 -47.22080000
v 147.30570000 46.80440000 -46.59240000
v 147.30570000 47.98580000 -46.59240000
v 147.30570000 41.98580000 -46.59240000
v 145.86690000 46.80440000 -44.33050000
v 145.51420000 46.80440000 -43.77600000
v 145.51420000 47.98580000 -43.77600000
v 145.51420000 41.98580000 -43.77600000
v 143.62730000 46.80440000 -41.88890000
v 143.16470000 46.80440000 -41.42630000
v 143.16470000 47.98580000 -41.42630000
v 143.16470000 41.98580000 -41.42630000
v 140.90290000 46.80440000 -39.98740000
v 140.34840000 46.80440000 -39.63470000
v 140.34840000 47.98580000 -39.63470000
v 140.34840000 41.98580000 -39.63470000
v 137.78520000 46.80440000 -38.71750000
v 137.15690000 46.80440000 -38.49270000
v 137.15690000 47.98580000 -38.49270000
v 137.15690000 41.98580000 -38.49270000
v 134.36580000 46.80440000 -38.17060000
v 133.68150000 46.80440000 -38.09170000
v 133.68150000 47.98580000 -38.09170000
v 133.68150000 41.98580000 -38.09170000
v -80.88580000 46.80440000 -38.09170000
v -133.48880000 46.80440000 -38.09170000
v -133.48880000 47.98580000 -38.09170000
v -133.48880000 41.98580000 -38.09170000
v -136.27990000 46.80440000 -38.41370000
v -136.96410000 46.80440000 -38.49270000
v -136.96410000 47.98580000 -38.49270000
v -136.96410000 41.98580000 -38.49270000
v -139.52730000 46.80440000 -39.40980000
v -140.15570000 46.80440000 -39.63470000
v -140.15570000 47.98580000 -39.63470000
v -140.15570000 41.98580000 -39.63470000
v -142.41740000 46.80440000 -41.07350000
v -142.97190000 46.80440000 -41.42630000
v -142.97190000 47.98580000 -41.42630000
v -142.97190000 41.98580000 -41.42630000
v -144.85890000 46.80440000 -43.31330000
v -145.32150000 46.80440000 -43.77600000
v -145.32150000 47.98580000 -43.77600000
v -145.32150000 41.98580000 -43.77600000
v -146.76020000 46.80440000 -46.03780000
v -147.11290000 46.80440000 -46.59230000
v -147.11290000 47.98580000 -46.59230000
v -147.11290000 41.98580000 -46.59230000
v -148.02990000 46.80440000 -49.15550000
v -148.25470000 46.80440000 -49.78390000
v -148.25470000 47.98580000 -49.78390000
v -148.25470000 41.98580000 -49.78390000
v -148.57660000 46.80440000 -52.57510000
v -148.65550000 46.80440000 -53.25930000
v -148.65550000 47.98580000 -53.25930000
v -148.65550000 41.98580000 -53.25930000
v -148.65500000 46.80440000 -60.09090000
v -148.65490000 46.80440000 -61.76570000
v -148.65490000 47.98580000 -61.76570000
v -148.65490000 41.98580000 -61.76570000
v -173.73410000 46.80440000 -61.76690000
f 1 2 3
f 3 4 1
f 5 6 1
f 1 7 5
f 8 9 10
f 10 3 8
f 6 11 8
f 8 2 6
f 9 12 10
f 14 10 12
f 11 15 12
f 12 9 11
f 12 13 14
f 12 15 13
f 1 6 2
f 7 1 4
f 8 11 9
f 2 8 3
f 56 57 58
f 58 54 56
f 16 17 18
f 18 14 16
f 15 19 16
f 16 13 15
f 20 21 22
f 22 18 20
f 19 23 20
f 20 17 19
f 24 25 26
f 26 22 24
f 23 27 24
f 24 21 23
f 28 29 30
f 30 26 28
f 27 31 28
f 28 25 27
f 32 33 34
f 34 30 32
f 31 35 32
f 32 29 31
f 36 37 38
f 38 34 36
f 16 19 17
f 13 16 14
f 20 23 21
f 17 20 18
f 24 27 25
f 21 24 22
f 28 31 29
f 25 28 26
f 32 35 33
f 29 32 30
f 36 33 35
f 33 36 34
f 35 39 36
f 36 39 37
f 40 37 39
f 37 40 38
f 40 43 41
f 44 41 43
f 41 44 42
f 44 47 45
f 40 41 42
f 48 45 47
f 45 48 46
f 48 51 49
f 52 49 51
f 42 38 40
f 49 52 50
f 52 55 53
f 56 53 55
f 53 56 54
f 39 43 40
f 44 45 46
f 46 42 44
f 55 59 56
f 43 47 44
f 48 49 50
f 50 46 48
f 47 51 48
f 52 53 54
f 54 50 52
f 56 59 57
f 51 55 52
f 68 69 70
f 70 66 68
f 67 71 68
f 60 61 62
f 68 65 67
f 65 68 66
f 64 67 65
f 61 64 62
f 66 62 64
f 68 71 69
f 60 63 61
f 57 60 58
f 59 63 60
f 60 57 59
f 64 65 66
f 64 61 63
f 63 67 64
f 62 58 60
f 72 73 74
f 74 70 72
f 71 75 72
f 72 69 71
f 72 75 73
f 69 72 70
f 66 81 82
f 82 83 66
f 66 83 84
f 84 85 66
f 93 94 3
f 3 10 93
f 66 85 86
f 86 62 66
f 93 10 14
f 14 18 93
f 93 18 22
f 22 26 93
f 93 26 30
f 30 34 93
f 92 93 34
f 34 91 92
f 58 62 86
f 86 54 58
f 50 54 86
f 86 46 50
f 42 46 86
f 86 38 42
f 38 86 87
f 87 88 38
f 38 88 89
f 89 34 38
f 34 89 90
f 90 91 34
f 76 77 78
f 78 79 76
f 74 76 79
f 79 66 74
f 101 102 103
f 103 100 101
f 100 103 104
f 104 3 100
f 104 4 3
f 99 100 3
f 3 98 99
f 97 98 3
f 3 96 97
f 95 96 3
f 3 94 95
f 66 70 74
f 66 79 80
f 80 81 66
f 105 108 107
f 107 106 105
f 75 67 108
f 108 105 75
f 130 129 132
f 132 131 130
f 129 6 133
f 133 132 129
f 133 6 5
f 128 127 6
f 6 129 128
f 126 125 6
f 6 127 126
f 124 123 6
f 6 125 124
f 67 75 71
f 67 110 109
f 109 108 67
f 67 112 111
f 111 110 67
f 67 114 113
f 113 112 67
f 122 11 6
f 6 123 122
f 67 63 115
f 115 114 67
f 122 19 15
f 15 11 122
f 122 27 23
f 23 19 122
f 122 35 31
f 31 27 122
f 121 120 35
f 35 122 121
f 59 55 115
f 115 63 59
f 51 47 115
f 115 55 51
f 43 39 115
f 115 47 43
f 39 117 116
f 116 115 39
f 39 35 118
f 118 117 39
f 35 120 119
f 119 118 35
f 134 105 135
f 73 134 74
f 136 106 137
f 135 136 76
f 134 135 76
f 76 74 134
f 75 105 134
f 134 73 75
f 136 137 77
f 77 76 136
f 105 106 136
f 136 135 105
f 150 113 151
f 149 150 83
f 138 107 139
f 137 138 77
f 140 108 141
f 139 140 78
f 142 109 143
f 141 142 79
f 144 110 145
f 143 144 80
f 146 111 147
f 145 146 81
f 148 112 149
f 147 148 82
f 138 139 78
f 78 77 138
f 106 107 138
f 138 137 106
f 140 141 79
f 79 78 140
f 107 108 140
f 140 139 107
f 142 143 80
f 80 79 142
f 108 109 142
f 142 141 108
f 144 145 81
f 81 80 144
f 109 110 144
f 144 143 109
f 146 147 82
f 82 81 146
f 110 111 146
f 146 145 110
f 148 149 83
f 83 82 148
f 111 112 148
f 148 147 111
f 150 151 84
f 84 83 150
f 112 113 150
f 150 149 112
f 162 163 90
f 90 89 162
f 118 119 162
f 162 161 118
f 164 165 91
f 91 90 164
f 119 120 164
f 164 163 119
f 166 167 92
f 92 91 166
f 120 121 166
f 166 165 120
f 168 169 93
f 93 92 168
f 121 122 168
f 168 167 121
f 170 171 94
f 94 93 170
f 122 123 170
f 170 169 122
f 172 173 95
f 95 94 172
f 123 124 172
f 172 171 123
f 152 114 153
f 151 152 84
f 154 115 155
f 153 154 85
f 156 116 157
f 155 156 86
f 158 117 159
f 157 158 87
f 160 118 161
f 159 160 88
f 162 119 163
f 161 162 89
f 164 120 165
f 163 164 90
f 166 121 167
f 165 166 91
f 168 122 169
f 167 168 92
f 170 123 171
f 169 170 93
f 172 124 173
f 171 172 94
f 152 153 85
f 85 84 152
f 113 114 152
f 152 151 113
f 154 155 86
f 86 85 154
f 114 115 154
f 154 153 114
f 156 157 87
f 87 86 156
f 115 116 156
f 156 155 115
f 158 159 88
f 88 87 158
f 116 117 158
f 158 157 116
f 160 161 89
f 89 88 160
f 117 118 160
f 160 159 117
f 174 175 96
f 96 95 174
f 124 125 174
f 174 173 124
f 176 177 97
f 97 96 176
f 125 126 176
f 176 175 125
f 178 179 98
f 98 97 178
f 126 127 178
f 178 177 126
f 180 181 99
f 99 98 180
f 127 128 180
f 180 179 127
f 182 183 100
f 100 99 182
f 128 129 182
f 182 181 128
f 184 185 101
f 101 100 184
f 129 130 184
f 184 183 129
f 186 187 102
f 102 101 186
f 130 131 186
f 186 185 130
f 174 125 175
f 173 174 95
f 176 126 177
f 175 176 96
f 178 127 179
f 177 178 97
f 180 128 181
f 179 180 98
f 182 129 183
f 181 182 99
f 184 130 185
f 183 184 100
f 186 131 187
f 185 186 101
f 104 103 190
f 190 133 191
f 189 190 103
f 188 189 103
f 103 102 188
f 188 132 189
f 187 188 102
f 131 132 188
f 188 187 131
f 132 133 190
f 190 189 132
f 190 191 104
f 192 5 7
f 191 192 104
f 192 7 4
f 4 104 192
f 133 5 192
f 192 191 133
f 193 194 195
f 195 196 193
f 194 197 198
f 198 195 194
f 197 199 200
f 200 198 197
f 199 201 202
f 202 200 199
f 201 203 204
f 204 202 201
f 203 205 206
f 206 204 203
f 205 207 208
f 208 206 205
f 207 209 210
f 210 208 207
f 209 211 212
f 212 210 209
f 211 213 214
f 214 212 211
f 213 215 216
f 216 214 213
f 215 217 218
f 218 216 215
f 217 219 220
f 220 218 217
f 219 221 222
f 222 220 219
f 221 223 224
f 224 222 221
f 223 225 226
f 226 224 223
f 225 227 228
f 228 226 225
f 227 229 230
f 230 228 227
f 229 231 232
f 232 230 229
f 231 233 234
f 234 232 231
f 233 235 236
f 236 234 233
f 235 237 238
f 238 236 235
f 237 239 240
f 240 238 237
f 239 241 242
f 242 240 239
f 241 243 244
f 244 242 241
f 243 245 246
f 246 244 243
f 245 247 248
f 248 246 245
f 247 249 250
f 250 248 247
f 249 251 252
f 252 250 249
f 251 253 254
f 254 252 251
f 253 255 256
f 256 254 253
f 255 257 258
f 258 256 255
f 257 259 260
f 260 258 257
f 259 261 262
f 262 260 259
f 261 263 264
f 264 262 261
f 263 193 196
f 196 264 263
f 225 231 229
f 229 227 225
f 225 235 233
f 233 231 225
f 225 239 237
f 237 235 225
f 263 261 194
f 194 193 263
f 259 257 194
f 194 261 259
f 255 253 194
f 194 257 255
f 253 199 197
f 197 194 253
f 253 203 201
f 201 199 253
f 253 207 205
f 205 203 253
f 253 251 209
f 209 207 253
f 223 221 239
f 239 225 223
f 219 217 239
f 239 221 219
f 215 213 239
f 239 217 215
f 211 241 239
f 239 213 211
f 211 245 243
f 243 241 211
f 249 247 209
f 209 251 249
f 209 247 245
f 245 211 209
f 212 214 240
f 240 242 212
f 212 242 244
f 244 246 212
f 250 252 210
f 210 248 250
f 210 212 246
f 246 248 210
f 226 228 230
f 230 232 226
f 226 232 234
f 234 236 226
f 226 236 238
f 238 240 226
f 264 196 195
f 195 262 264
f 260 262 195
f 195 258 260
f 256 258 195
f 195 254 256
f 254 195 198
f 198 200 254
f 254 200 202
f 202 204 254
f 254 204 206
f 206 208 254
f 254 208 210
f 210 252 254
f 224 226 240
f 240 222 224
f 220 222 240
f 240 218 220
f 216 218 240
f 240 214 216
f 265 266 267
f 267 268 265
f 269 270 265
f 265 271 269
f 265 270 266
f 271 265 268
f 272 273 274
f 274 267 272
f 270 275 272
f 272 266 270
f 276 277 278
f 278 274 276
f 275 279 276
f 276 273 275
f 280 281 282
f 282 278 280
f 279 283 280
f 280 277 279
f 284 285 286
f 286 282 284
f 283 287 284
f 284 281 283
f 288 289 290
f 290 286 288
f 287 291 288
f 288 285 287
f 292 293 294
f 294 290 292
f 291 295 292
f 292 289 291
f 296 297 298
f 298 294 296
f 295 299 296
f 296 293 295
f 300 301 302
f 302 298 300
f 299 303 300
f 300 297 299
f 304 305 306
f 306 302 304
f 303 307 304
f 304 301 303
f 308 309 310
f 310 306 308
f 307 311 308
f 308 305 307
f 312 313 314
f 314 310 312
f 311 315 312
f 312 309 311
f 316 317 318
f 318 314 316
f 315 319 316
f 316 313 315
f 320 321 322
f 322 318 320
f 319 323 320
f 320 317 319
f 324 325 326
f 326 322 324
f 323 327 324
f 324 321 323
f 328 329 330
f 330 326 328
f 327 331 328
f 328 325 327
f 332 333 334
f 334 330 332
f 331 335 332
f 332 329 331
f 336 337 338
f 338 334 336
f 335 339 336
f 336 333 335
f 340 341 342
f 342 338 340
f 339 343 340
f 340 337 339
f 344 345 346
f 346 342 344
f 343 347 344
f 344 341 343
f 348 349 350
f 350 346 348
f 347 351 348
f 348 345 347
f 352 353 354
f 354 350 352
f 351 355 352
f 352 349 351
f 356 357 358
f 358 354 356
f 355 359 356
f 356 353 355
f 360 361 362
f 362 358 360
f 359 363 360
f 360 357 359
f 364 365 366
f 366 362 364
f 363 367 364
f 364 361 363
f 368 369 370
f 370 366 368
f 367 371 368
f 368 365 367
f 372 373 374
f 374 370 372
f 371 375 372
f 372 369 371
f 376 377 378
f 378 374 376
f 375 379 376
f 376 373 375
f 380 381 382
f 382 378 380
f 379 383 380
f 380 377 379
f 384 385 386
f 386 382 384
f 383 387 384
f 384 381 383
f 388 389 390
f 390 386 388
f 387 391 388
f 388 385 387
f 392 393 394
f 394 390 392
f 391 395 392
f 392 389 391
f 396 397 398
f 398 394 396
f 395 399 396
f 396 393 395
f 400 401 402
f 402 398 400
f 399 403 400
f 400 397 399
f 404 405 406
f 406 402 404
f 403 407 404
f 404 401 403
f 408 271 268
f 268 406 408
f 407 269 408
f 408 405 407
f 272 275 273
f 266 272 267
f 276 279 277
f 273 276 274
f 280 283 281
f 277 280 278
f 284 287 285
f 281 284 282
f 288 291 289
f 285 288 286
f 292 295 293
f 289 292 290
f 296 299 297
f 293 296 294
f 300 303 301
f 297 300 298
f 304 307 305
f 301 304 302
f 308 311 309
f 305 308 306
f 312 315 313
f 309 312 310
f 316 319 317
f 313 316 314
f 320 323 321
f 317 320 318
f 324 327 325
f 321 324 322
f 328 331 329
f 325 328 326
f 332 335 333
f 329 332 330
f 336 339 337
f 333 336 334
f 340 343 341
f 337 340 338
f 344 347 345
f 341 344 342
f 348 351 349
f 345 348 346
f 352 355 353
f 349 352 350
f 356 359 357
f 353 356 354
f 360 363 361
f 357 360 358
f 364 367 365
f 361 364 362
f 368 371 369
f 365 368 366
f 372 375 373
f 369 372 370
f 376 379 377
f 373 376 374
f 380 383 381
f 377 380 378
f 384 387 385
f 381 384 382
f 388 391 389
f 385 388 386
f 392 395 393
f 389 392 390
f 396 399 397
f 393 396 394
f 400 403 401
f 397 400 398
f 404 407 405
f 401 404 402
f 408 269 271
f 405 408 406
f 330 334 338
f 338 342 330
f 330 342 346
f 346 350 330
f 330 350 354
f 354 358 330
f 406 268 267
f 267 402 406
f 398 402 267
f 267 394 398
f 390 394 267
f 267 386 390
f 326 330 358
f 358 322 326
f 318 322 358
f 358 314 318
f 310 314 358
f 358 306 310
f 302 306 358
f 358 362 302
f 302 362 366
f 366 370 302
f 386 267 274
f 274 278 386
f 386 278 282
f 282 286 386
f 386 286 290
f 290 294 386
f 386 294 298
f 298 382 386
f 378 382 298
f 298 374 378
f 374 298 302
f 302 370 374
f 331 343 339
f 339 335 331
f 331 351 347
f 347 343 331
f 331 359 355
f 355 351 331
f 407 403 270
f 270 269 407
f 399 395 270
f 270 403 399
f 391 387 270
f 270 395 391
f 327 323 359
f 359 331 327
f 319 315 359
f 359 323 319
f 311 307 359
f 359 315 311
f 303 363 359
f 359 307 303
f 303 371 367
f 367 363 303
f 387 279 275
f 275 270 387
f 387 287 283
f 283 279 387
f 387 295 291
f 291 287 387
f 387 383 299
f 299 295 387
f 379 375 299
f 299 383 379
f 375 371 303
f 303 299 375

